<svg width="20" height="18" viewBox="0 0 20 18" fill="none" xmlns="http://www.w3.org/2000/svg">
<path d="M7.59844 7.79961C8.55322 7.79961 9.46889 7.42032 10.144 6.74519C10.8192 6.07006 11.1984 5.15439 11.1984 4.19961C11.1984 3.24483 10.8192 2.32916 10.144 1.65402C9.46889 0.978894 8.55322 0.599609 7.59844 0.599609C6.64366 0.599609 5.72798 0.978894 5.05285 1.65402C4.37772 2.32916 3.99844 3.24483 3.99844 4.19961C3.99844 5.15439 4.37772 6.07006 5.05285 6.74519C5.72798 7.42032 6.64366 7.79961 7.59844 7.79961ZM7.59844 10.1996C9.508 10.1996 11.3393 10.9582 12.6896 12.3084C14.0399 13.6587 14.7984 15.49 14.7984 17.3996H0.398438C0.398438 15.49 1.15701 13.6587 2.50727 12.3084C3.85753 10.9582 5.68888 10.1996 7.59844 10.1996ZM17.1984 5.39961C17.1984 5.08135 17.072 4.77612 16.847 4.55108C16.6219 4.32604 16.3167 4.19961 15.9984 4.19961C15.6802 4.19961 15.375 4.32604 15.1499 4.55108C14.9249 4.77612 14.7984 5.08135 14.7984 5.39961V6.59961H13.5984C13.2802 6.59961 12.975 6.72604 12.7499 6.95108C12.5249 7.17612 12.3984 7.48135 12.3984 7.79961C12.3984 8.11787 12.5249 8.42309 12.7499 8.64814C12.975 8.87318 13.2802 8.99961 13.5984 8.99961H14.7984V10.1996C14.7984 10.5179 14.9249 10.8231 15.1499 11.0481C15.375 11.2732 15.6802 11.3996 15.9984 11.3996C16.3167 11.3996 16.6219 11.2732 16.847 11.0481C17.072 10.8231 17.1984 10.5179 17.1984 10.1996V8.99961H18.3984C18.7167 8.99961 19.0219 8.87318 19.247 8.64814C19.472 8.42309 19.5984 8.11787 19.5984 7.79961C19.5984 7.48135 19.472 7.17612 19.247 6.95108C19.0219 6.72604 18.7167 6.59961 18.3984 6.59961H17.1984V5.39961Z" fill="#2873FF"/>
</svg>
