<svg width="239" height="199" viewBox="0 0 239 199" fill="none" xmlns="http://www.w3.org/2000/svg">
<path opacity="0.4" d="M34.9992 180.037C81.6785 204.42 157.326 204.42 203.995 180.037C250.663 155.654 250.674 116.136 203.995 91.753C157.315 67.3699 81.6675 67.3754 34.9992 91.753C-11.6691 116.131 -11.6636 155.66 34.9992 180.037Z" fill="#161A22"/>
<path d="M21.1564 141.167H23.1225C24.0236 138.158 24.6143 135.065 24.8853 131.936C25.3136 126.142 22.5074 117.273 17.3672 114.302C12.227 111.331 9.44269 115.005 11.1671 118.146C12.8915 121.287 18.7072 130.222 18.784 137.911L21.1564 141.167Z" fill="#2873FF"/>
<path d="M20.6851 141.167H21.2343C21.7708 137.373 21.7708 133.522 21.2343 129.728C20.3446 122.21 17.8733 118.717 15.5778 116.29C15.5276 116.237 15.4583 116.206 15.3851 116.204C15.312 116.202 15.2411 116.229 15.1879 116.279C15.1348 116.329 15.1037 116.399 15.1017 116.472C15.0996 116.545 15.1267 116.616 15.1769 116.669C17.412 119.025 19.8174 122.43 20.6686 129.789C21.2126 133.562 21.2182 137.393 20.6851 141.167Z" fill="#929292"/>
<path d="M21.3151 141.167C20.3046 136.4 15.7136 130.733 11.3807 129.756C6.35578 128.657 3.91198 131.31 4.63139 133.6C5.3508 135.89 9.32129 136.955 13.1764 138.751C14.4746 139.352 15.6612 140.169 16.6856 141.167H21.3151Z" fill="#2873FF"/>
<path d="M19.4863 141.167H20.0739C17.9486 135.824 13.116 132.013 9.16195 131.661C9.12615 131.657 9.08997 131.661 9.05553 131.671C9.02109 131.682 8.98909 131.699 8.96144 131.722C8.93379 131.745 8.91104 131.773 8.89455 131.805C8.87805 131.837 8.86814 131.872 8.8654 131.908C8.86082 131.944 8.86369 131.981 8.87384 132.015C8.88399 132.05 8.90119 132.083 8.92438 132.11C8.94757 132.138 8.97624 132.161 9.00861 132.177C9.04098 132.193 9.07636 132.203 9.11252 132.205C12.8469 132.54 17.4105 136.12 19.4863 141.167Z" fill="#929292"/>
<path d="M198.591 90.924L202.705 93.0823L203.051 90.5067C201.013 84.7624 202.688 78.2492 204.89 75.5363C207.092 72.8235 206.67 70.83 205.873 69.9403C205.077 69.0507 202.057 68.3752 199.069 71.8679C196.082 75.3606 195.395 79.6002 195.895 83.8782C196.213 86.5527 197.619 89.2985 198.591 90.924Z" fill="#2873FF"/>
<path opacity="0.2" d="M198.591 90.924L202.705 93.0823L203.051 90.5067C201.013 84.7624 202.688 78.2492 204.89 75.5363C207.092 72.8235 206.67 70.83 205.873 69.9403C205.077 69.0507 202.057 68.3752 199.069 71.8679C196.082 75.3606 195.395 79.6002 195.895 83.8782C196.213 86.5527 197.619 89.2985 198.591 90.924Z" fill="black"/>
<path d="M200.29 91.8134L201.102 92.2417C201.094 92.2263 201.085 92.2116 201.075 92.1978C199.911 90.8139 198.406 84.0372 199.037 80.0667C199.817 75.1626 202.332 71.961 204.485 70.6045C204.512 70.5883 204.534 70.5669 204.552 70.5417C204.57 70.5165 204.583 70.4879 204.59 70.4577C204.596 70.4274 204.597 70.3962 204.591 70.3657C204.585 70.3353 204.574 70.3063 204.557 70.2805C204.522 70.228 204.468 70.1912 204.406 70.1778C204.345 70.1645 204.28 70.1757 204.227 70.2091C202.03 71.6205 199.372 74.932 198.565 79.9953C197.983 83.6912 199.147 89.5453 200.29 91.8134Z" fill="#929292"/>
<path d="M202.786 81.1212C203.989 84.0703 203.983 85.5146 202.023 85.8166C200.255 86.0802 198.107 88.2275 200.101 91.7147L211.765 97.8324C211.795 97.1804 211.956 96.5412 212.239 95.9531C212.522 95.3651 212.921 94.8406 213.413 94.4111C215.329 92.4945 217.098 91.0502 216.823 88.9194C216.548 86.7886 214.698 84.7347 214.39 82.8786C214.083 81.0224 215.027 79.9625 217.043 77.8811C219.058 75.7998 220.887 72.5707 218.196 71.0989C215.505 69.6271 212.424 72.1478 211.139 73.8447C209.854 75.5417 208.679 76.2885 206.147 76.1458C203.616 76.003 201.584 78.1722 202.786 81.1212Z" fill="#2873FF"/>
<path d="M206.089 94.8563C206.035 85.806 212.52 75.207 216.128 73.0653C216.182 73.0313 216.22 72.9782 216.235 72.9169C216.25 72.8556 216.242 72.7908 216.211 72.7358C216.178 72.6829 216.126 72.6449 216.065 72.6295C216.005 72.6142 215.941 72.6227 215.887 72.6534C212.229 74.8501 205.689 85.4545 205.617 94.6201L206.089 94.8563Z" fill="#929292"/>
<path d="M207.822 85.449C207.772 85.4603 207.72 85.4546 207.674 85.4326C207.628 85.4107 207.591 85.3739 207.569 85.3282C206.521 83.3736 205.639 81.3345 204.933 79.2324C204.924 79.2028 204.92 79.1717 204.923 79.1408C204.925 79.1099 204.934 79.0798 204.948 79.0523C204.963 79.0247 204.982 79.0003 205.006 78.9803C205.03 78.9603 205.057 78.9452 205.087 78.9359C205.116 78.9265 205.147 78.923 205.178 78.9257C205.209 78.9283 205.239 78.937 205.267 78.9513C205.294 78.9656 205.319 78.9852 205.339 79.0089C205.359 79.0326 205.374 79.0601 205.383 79.0896C206.083 81.1626 206.954 83.1739 207.986 85.103C208.016 85.1592 208.022 85.2246 208.003 85.2852C207.985 85.3458 207.943 85.3968 207.887 85.427L207.822 85.449Z" fill="#929292"/>
<path d="M206.265 90.9956C206.22 91.0039 206.173 90.9996 206.131 90.9831C206.088 90.9666 206.051 90.9386 206.023 90.9022C205.987 90.8497 205.973 90.785 205.984 90.7223C205.996 90.6595 206.031 90.6038 206.084 90.5672C208.448 88.9116 211.318 88.1345 214.195 88.3706C214.257 88.3786 214.314 88.4111 214.353 88.4611C214.391 88.511 214.409 88.5743 214.401 88.6369C214.393 88.6995 214.36 88.7564 214.31 88.795C214.26 88.8337 214.197 88.8509 214.134 88.8428C211.379 88.6332 208.636 89.3714 206.358 90.9352C206.331 90.9613 206.3 90.9819 206.265 90.9956Z" fill="#929292"/>
<path d="M137.343 35.7107L123.96 27.9839L110.582 35.7107L123.96 43.4375L137.343 35.7107Z" fill="#7C7C7C"/>
<path d="M123.957 58.8963L137.34 51.1695V35.7104L123.957 43.4372V58.8963Z" fill="#EBEBEB"/>
<path d="M126.54 53.7672C126.469 53.7685 126.399 53.7515 126.337 53.7178C126.251 53.6554 126.183 53.5722 126.139 53.4761C126.095 53.3799 126.076 53.2741 126.084 53.1686V51.5211V51.4003H126.166L127.451 50.6479V52.4767C127.45 52.7122 127.391 52.9439 127.281 53.1522C127.171 53.3605 127.013 53.5394 126.82 53.6739C126.737 53.73 126.64 53.7623 126.54 53.7672ZM126.293 51.6419V53.1577C126.283 53.2282 126.292 53.2999 126.318 53.3661C126.344 53.4324 126.386 53.491 126.441 53.5366C126.485 53.5564 126.534 53.5639 126.583 53.5581C126.631 53.5523 126.677 53.5334 126.715 53.5036C126.88 53.3889 127.015 53.2372 127.111 53.0608C127.206 52.8844 127.259 52.6881 127.265 52.4877V52.3559H126.787L126.693 51.7133L126.293 51.6419ZM126.952 52.1472H127.248V51.0214L126.479 51.4662L126.858 51.5376L126.952 52.1472Z" fill="#929292"/>
<path d="M126.769 55.0739C126.741 55.0739 126.714 55.063 126.695 55.0434C126.675 55.0238 126.664 54.9973 126.664 54.9696V53.5967C126.663 53.5828 126.666 53.5689 126.671 53.5558C126.676 53.5428 126.683 53.531 126.693 53.5211C126.703 53.5113 126.715 53.5036 126.728 53.4987C126.741 53.4937 126.755 53.4916 126.769 53.4923C126.796 53.4923 126.823 53.5033 126.842 53.5229C126.862 53.5425 126.873 53.569 126.873 53.5967V54.9476C126.875 54.9629 126.874 54.9785 126.87 54.9934C126.866 55.0084 126.859 55.0222 126.849 55.0342C126.839 55.0461 126.827 55.0558 126.813 55.0626C126.799 55.0695 126.784 55.0734 126.769 55.0739Z" fill="#929292"/>
<path d="M126.17 55.4202C126.152 55.42 126.134 55.4148 126.119 55.4051C126.103 55.3954 126.091 55.3816 126.083 55.3652C126.075 55.354 126.07 55.3413 126.068 55.3279C126.065 55.3145 126.066 55.3007 126.07 55.2877C126.074 55.2746 126.08 55.2625 126.089 55.2522C126.098 55.2419 126.109 55.2336 126.121 55.2279L127.313 54.536C127.325 54.5291 127.338 54.5247 127.351 54.5229C127.365 54.5211 127.379 54.522 127.392 54.5256C127.405 54.5291 127.418 54.5353 127.429 54.5437C127.439 54.5521 127.449 54.5625 127.455 54.5744C127.468 54.5988 127.471 54.6269 127.464 54.6533C127.457 54.6797 127.44 54.7025 127.417 54.7172L126.22 55.4037L126.17 55.4202Z" fill="#929292"/>
<path d="M130.432 53.0478C130.395 53.0592 130.354 53.0592 130.317 53.0478C130.277 53.0209 130.244 52.9838 130.223 52.9404C130.202 52.8971 130.193 52.8488 130.196 52.8007V52.5206C130.195 52.5072 130.197 52.4937 130.202 52.4811C130.206 52.4684 130.214 52.4569 130.223 52.4471C130.232 52.4373 130.243 52.4296 130.256 52.4243C130.268 52.4189 130.281 52.4162 130.295 52.4162C130.309 52.4154 130.323 52.4176 130.336 52.4226C130.349 52.4275 130.361 52.4352 130.37 52.445C130.38 52.4549 130.388 52.4667 130.393 52.4797C130.398 52.4928 130.4 52.5067 130.399 52.5206V52.7512C130.399 52.7952 130.399 52.8171 130.399 52.8171C130.399 52.8171 130.432 52.8171 130.465 52.8171C130.529 52.7591 130.579 52.6877 130.613 52.6079C130.646 52.5282 130.661 52.4421 130.657 52.3558V50.5546C130.657 50.5411 130.66 50.5278 130.665 50.5154C130.671 50.5031 130.678 50.4919 130.688 50.4827C130.698 50.4734 130.709 50.4662 130.722 50.4616C130.735 50.457 130.748 50.455 130.762 50.4557C130.788 50.4557 130.813 50.4661 130.832 50.4847C130.85 50.5032 130.86 50.5283 130.86 50.5546V52.3888C130.865 52.511 130.84 52.6326 130.79 52.744C130.739 52.8555 130.664 52.9538 130.569 53.0313C130.525 53.0454 130.479 53.051 130.432 53.0478Z" fill="#929292"/>
<path d="M129.344 51.4495V51.2738C129.369 50.8164 129.502 50.3714 129.731 49.9746C129.96 49.5778 130.279 49.2403 130.662 48.9892C130.799 48.8739 130.968 48.8035 131.147 48.7876C131.325 48.7717 131.504 48.8111 131.659 48.9005C131.815 48.9898 131.939 49.1248 132.015 49.287C132.091 49.4493 132.115 49.631 132.084 49.8075V49.8679L129.344 51.4495ZM131.277 49.0112C131.095 49.0169 130.919 49.0719 130.766 49.1704C130.44 49.3856 130.163 49.6678 129.955 49.9983C129.747 50.3288 129.611 50.7 129.558 51.087L131.875 49.7526C131.884 49.623 131.86 49.4933 131.804 49.3759C131.748 49.2586 131.663 49.1576 131.557 49.0826C131.472 49.0342 131.375 49.0096 131.277 49.0112Z" fill="#929292"/>
<path d="M134.108 50.9388C134.082 50.9389 134.056 50.9286 134.036 50.9102C134.017 50.8918 134.005 50.8667 134.004 50.84V47.3363C134.004 47.3086 134.015 47.2821 134.034 47.2625C134.054 47.2429 134.081 47.2319 134.108 47.2319C134.136 47.2319 134.162 47.2429 134.182 47.2625C134.202 47.2821 134.213 47.3086 134.213 47.3363V50.84C134.211 50.8667 134.2 50.8918 134.18 50.9102C134.161 50.9286 134.135 50.9389 134.108 50.9388Z" fill="#929292"/>
<path d="M133.825 48.1324H133.786C133.773 48.127 133.762 48.1192 133.752 48.1094C133.743 48.0996 133.735 48.0879 133.73 48.0752C133.725 48.0624 133.722 48.0488 133.723 48.035C133.723 48.0213 133.726 48.0077 133.731 47.9951L134.099 47.1494L134.506 47.6217C134.514 47.6318 134.521 47.6435 134.525 47.6561C134.529 47.6688 134.531 47.6821 134.53 47.6954C134.529 47.7086 134.525 47.7215 134.519 47.7334C134.513 47.7453 134.505 47.7558 134.495 47.7645C134.484 47.7731 134.473 47.7797 134.46 47.7838C134.447 47.788 134.434 47.7896 134.421 47.7886C134.408 47.7875 134.395 47.7839 134.383 47.7779C134.371 47.7719 134.36 47.7636 134.352 47.7535L134.154 47.5338L133.918 48.083C133.909 48.0992 133.895 48.1125 133.878 48.1212C133.862 48.13 133.843 48.1339 133.825 48.1324Z" fill="#929292"/>
<path d="M135.078 50.4007C135.051 50.3993 135.026 50.3877 135.008 50.3683C134.99 50.3489 134.979 50.3231 134.979 50.2964V46.7927C134.976 46.7774 134.976 46.7614 134.979 46.7461C134.983 46.7307 134.989 46.7164 134.999 46.7041C135.009 46.6917 135.021 46.6818 135.035 46.6749C135.05 46.6681 135.065 46.6646 135.081 46.6646C135.097 46.6646 135.112 46.6681 135.126 46.6749C135.14 46.6818 135.153 46.6917 135.163 46.7041C135.172 46.7164 135.179 46.7307 135.183 46.7461C135.186 46.7614 135.186 46.7774 135.182 46.7927V50.2964C135.182 50.324 135.172 50.3506 135.152 50.3701C135.132 50.3897 135.106 50.4007 135.078 50.4007Z" fill="#929292"/>
<path d="M134.778 47.589H134.739C134.727 47.5836 134.715 47.5758 134.706 47.5659C134.696 47.5561 134.688 47.5445 134.683 47.5317C134.678 47.519 134.676 47.5053 134.676 47.4916C134.676 47.4779 134.679 47.4643 134.684 47.4517L135.052 46.606L135.459 47.0782C135.477 47.0976 135.487 47.1231 135.487 47.1496C135.487 47.1762 135.477 47.2017 135.459 47.221C135.438 47.2395 135.412 47.2498 135.385 47.2498C135.357 47.2498 135.331 47.2395 135.31 47.221L135.118 46.9959L134.882 47.545C134.871 47.5616 134.855 47.5746 134.836 47.5824C134.818 47.5902 134.797 47.5925 134.778 47.589Z" fill="#929292"/>
<path d="M123.957 58.8963L110.574 51.1695L110.58 35.7104L123.957 43.4372V58.8963Z" fill="#929292"/>
<path d="M117.992 39.9941L131.365 32.2619L129.854 31.3887L116.477 39.121L117.992 39.9941Z" fill="#929292"/>
<path d="M112.606 44.5742L117.401 47.3201C117.676 47.5017 117.906 47.7453 118.071 48.0313C118.236 48.3173 118.332 48.6379 118.351 48.9676V51.9221C118.351 52.5317 117.922 52.7788 117.401 52.4713L112.606 49.7254C112.33 49.5441 112.101 49.3006 111.936 49.0145C111.771 48.7284 111.675 48.4077 111.656 48.0779V45.1234C111.656 44.5138 112.085 44.2722 112.606 44.5742Z" fill="#2873FF"/>
<path d="M112.238 45.3101L112.42 45.4199V48.6984L112.238 48.5941V45.3101Z" fill="#2873FF"/>
<path d="M112.98 45.7383L113.293 45.925V49.2035L112.98 49.0223V45.7383Z" fill="#2873FF"/>
<path d="M113.723 46.1665L113.904 46.2708V49.5549L113.723 49.4505V46.1665Z" fill="#2873FF"/>
<path d="M114.277 46.4854L114.645 46.6995V49.9836L114.277 49.7639V46.4854Z" fill="#2873FF"/>
<path d="M115.199 47.0234L115.386 47.1278V50.4118L115.199 50.302V47.0234Z" fill="#2873FF"/>
<path d="M115.736 47.3252L116.12 47.5558V50.8344L115.73 50.6037L115.736 47.3252Z" fill="#2873FF"/>
<path d="M116.68 47.8799L116.861 47.9842V51.2628L116.68 51.1584V47.8799Z" fill="#2873FF"/>
<path d="M117.105 48.1162L117.199 48.1711V51.4497L117.105 51.4002V48.1162Z" fill="#2873FF"/>
<path d="M116.348 47.6987L116.436 47.7536V51.0322L116.348 50.9828V47.6987Z" fill="#2873FF"/>
<path d="M114.852 46.8257L114.939 46.8751V50.1591L114.852 50.1042V46.8257Z" fill="#2873FF"/>
<path d="M114.035 46.3535L114.129 46.4084V49.6924L114.035 49.6375V46.3535Z" fill="#2873FF"/>
<path d="M113.445 46.0293L113.539 46.0842V49.3682L113.445 49.3133V46.0293Z" fill="#2873FF"/>
<path d="M112.652 45.5459L112.746 45.6008V48.8848L112.652 48.8299V45.5459Z" fill="#2873FF"/>
<path d="M117.422 48.3027L117.603 48.4071V51.6911L117.422 51.5868V48.3027Z" fill="#2873FF"/>
<path d="M119.497 33.1349L103.878 24.123L88.2656 33.1349L103.878 42.1522L119.497 33.1349Z" fill="#7C7C7C"/>
<path d="M97.186 38.2859L112.804 29.2741L111.289 28.4009L95.6758 37.4127L97.186 38.2859Z" fill="#929292"/>
<path d="M103.879 70.4837L119.497 61.4718V33.1348L103.879 42.1521V70.4837Z" fill="#EBEBEB"/>
<path d="M106.462 65.3821C106.391 65.3833 106.32 65.3643 106.259 65.3272C106.172 65.2659 106.104 65.1829 106.059 65.0865C106.015 64.9901 105.997 64.8837 106.007 64.778V63.1305V63.0097H106.094L107.374 62.2573V64.0861C107.371 64.3214 107.313 64.5527 107.203 64.7609C107.093 64.9691 106.935 65.1481 106.742 65.2832C106.66 65.3413 106.563 65.3755 106.462 65.3821ZM106.215 63.2568V64.7725C106.206 64.843 106.215 64.9147 106.241 64.981C106.267 65.0472 106.309 65.1058 106.363 65.1514C106.408 65.1713 106.457 65.1787 106.505 65.1729C106.554 65.1671 106.6 65.1483 106.638 65.1185C106.803 65.0037 106.938 64.8521 107.033 64.6757C107.129 64.4993 107.181 64.303 107.187 64.1025V63.9707H106.709L106.616 63.3282L106.215 63.2568ZM106.874 63.762H107.198V62.6363L106.429 63.0866L106.808 63.1525L106.874 63.762Z" fill="#929292"/>
<path d="M106.69 66.6672C106.663 66.6672 106.636 66.6562 106.616 66.6366C106.597 66.6171 106.586 66.5905 106.586 66.5629V65.1844C106.586 65.171 106.589 65.1577 106.594 65.1453C106.599 65.1329 106.607 65.1218 106.617 65.1125C106.627 65.1033 106.638 65.0961 106.651 65.0915C106.663 65.0869 106.677 65.0849 106.69 65.0856C106.717 65.0856 106.743 65.0958 106.762 65.1142C106.782 65.1326 106.793 65.1577 106.795 65.1844V66.5629C106.793 66.5901 106.782 66.6159 106.763 66.6352C106.743 66.6545 106.718 66.6659 106.69 66.6672Z" fill="#929292"/>
<path d="M106.1 67.0294C106.082 67.0298 106.065 67.0254 106.049 67.0167C106.034 67.008 106.021 66.9954 106.012 66.98C106 66.9557 105.997 66.9276 106.004 66.9012C106.011 66.8747 106.028 66.8519 106.051 66.8372L107.242 66.1507C107.254 66.1439 107.267 66.1394 107.281 66.1376C107.295 66.1358 107.308 66.1367 107.322 66.1403C107.335 66.1439 107.347 66.15 107.358 66.1584C107.369 66.1668 107.378 66.1773 107.385 66.1892C107.392 66.2007 107.396 66.2134 107.398 66.2266C107.4 66.2398 107.399 66.2532 107.395 66.266C107.392 66.2788 107.385 66.2908 107.377 66.3012C107.369 66.3116 107.358 66.3202 107.347 66.3265L106.149 67.0184C106.135 67.0272 106.117 67.031 106.1 67.0294Z" fill="#929292"/>
<path d="M110.354 64.6408C110.314 64.6409 110.274 64.6315 110.239 64.6133C110.199 64.5864 110.166 64.5494 110.145 64.506C110.124 64.4626 110.114 64.4144 110.118 64.3662V64.0806C110.118 64.0672 110.121 64.0539 110.126 64.0415C110.131 64.0291 110.139 64.018 110.149 64.0087C110.158 63.9995 110.17 63.9923 110.183 63.9877C110.195 63.983 110.209 63.981 110.222 63.9818C110.235 63.9818 110.248 63.9843 110.26 63.9893C110.272 63.9943 110.283 64.0015 110.292 64.0107C110.301 64.0199 110.309 64.0308 110.314 64.0428C110.318 64.0548 110.321 64.0676 110.321 64.0806V64.3662C110.321 64.4046 110.321 64.4266 110.321 64.4321C110.321 64.4376 110.354 64.4321 110.387 64.4321C110.451 64.373 110.501 64.3006 110.535 64.2199C110.568 64.1393 110.583 64.0524 110.579 63.9653V62.1366C110.579 62.1089 110.59 62.0824 110.61 62.0628C110.629 62.0432 110.656 62.0322 110.684 62.0322C110.711 62.0336 110.737 62.045 110.756 62.0643C110.775 62.0836 110.787 62.1093 110.788 62.1366V63.9653C110.793 64.0883 110.769 64.2107 110.717 64.3224C110.666 64.4342 110.588 64.532 110.491 64.6078C110.449 64.6291 110.402 64.6404 110.354 64.6408Z" fill="#929292"/>
<path d="M109.27 63.0428V62.8615C109.296 62.405 109.428 61.961 109.657 61.5651C109.886 61.1693 110.205 60.8327 110.588 60.5825C110.725 60.4671 110.894 60.3967 111.072 60.3809C111.251 60.365 111.43 60.4044 111.585 60.4937C111.74 60.5831 111.864 60.718 111.94 60.8803C112.016 61.0425 112.041 61.2242 112.01 61.4007V61.4612L109.27 63.0428ZM111.203 60.599C111.021 60.6073 110.846 60.6621 110.692 60.7582C110.365 60.9739 110.088 61.257 109.88 61.5885C109.671 61.9201 109.536 62.2923 109.484 62.6803L111.801 61.3458C111.809 61.2155 111.784 61.0852 111.729 60.9671C111.673 60.8491 111.588 60.747 111.483 60.6704C111.397 60.6236 111.3 60.5991 111.203 60.599Z" fill="#929292"/>
<path d="M114.05 62.5317C114.022 62.5317 113.995 62.5207 113.976 62.5011C113.956 62.4816 113.945 62.455 113.945 62.4274V58.9237C113.945 58.896 113.956 58.8695 113.976 58.8499C113.995 58.8303 114.022 58.8193 114.05 58.8193C114.077 58.8193 114.104 58.8303 114.123 58.8499C114.143 58.8695 114.154 58.896 114.154 58.9237V62.4274C114.154 62.455 114.143 62.4816 114.123 62.5011C114.104 62.5207 114.077 62.5317 114.05 62.5317Z" fill="#929292"/>
<path d="M113.75 59.7256H113.712C113.699 59.7208 113.688 59.7135 113.678 59.7042C113.669 59.6949 113.661 59.6837 113.656 59.6714C113.651 59.6591 113.648 59.6458 113.648 59.6325C113.649 59.6192 113.651 59.606 113.657 59.5938L114.025 58.748L114.431 59.2203C114.449 59.2407 114.457 59.2672 114.455 59.294C114.453 59.3208 114.44 59.3456 114.42 59.3631C114.4 59.3806 114.373 59.3893 114.346 59.3872C114.32 59.3851 114.295 59.3725 114.277 59.3521L114.08 59.127L113.843 59.6761C113.834 59.6924 113.82 59.7056 113.804 59.7144C113.787 59.7231 113.769 59.727 113.75 59.7256Z" fill="#929292"/>
<path d="M115.001 61.9883C114.975 61.9883 114.95 61.9779 114.931 61.9593C114.913 61.9408 114.902 61.9157 114.902 61.8894V58.3857C114.902 58.3723 114.904 58.3589 114.908 58.3462C114.913 58.3336 114.92 58.322 114.929 58.3123C114.939 58.3025 114.95 58.2947 114.962 58.2894C114.975 58.2841 114.988 58.2814 115.001 58.2814C115.015 58.2806 115.029 58.2828 115.042 58.2877C115.055 58.2927 115.067 58.3003 115.077 58.3102C115.087 58.32 115.094 58.3319 115.099 58.3449C115.104 58.3579 115.106 58.3718 115.106 58.3857V61.8894C115.106 61.9029 115.103 61.9162 115.098 61.9286C115.092 61.9409 115.085 61.9521 115.075 61.9614C115.065 61.9706 115.053 61.9778 115.041 61.9824C115.028 61.987 115.015 61.989 115.001 61.9883Z" fill="#929292"/>
<path d="M114.703 59.1817H114.66C114.635 59.1698 114.616 59.1491 114.606 59.1237C114.595 59.0983 114.595 59.0701 114.605 59.0445L114.973 58.1987L115.384 58.671C115.401 58.6909 115.411 58.7162 115.411 58.7424C115.411 58.7686 115.401 58.7939 115.384 58.8138C115.375 58.8236 115.363 58.8314 115.35 58.8367C115.338 58.842 115.324 58.8447 115.31 58.8447C115.297 58.8447 115.283 58.842 115.27 58.8367C115.257 58.8314 115.246 58.8236 115.236 58.8138L115.044 58.5886L114.808 59.1378C114.797 59.1549 114.781 59.1683 114.763 59.1762C114.744 59.184 114.723 59.186 114.703 59.1817Z" fill="#929292"/>
<path d="M103.878 70.4837L88.2656 61.4718V33.1348L103.878 42.1521V70.4837Z" fill="#929292"/>
<path d="M91.4422 55.5796L96.231 58.3254C96.508 58.5062 96.7388 58.7494 96.9048 59.0355C97.0707 59.3216 97.1673 59.6427 97.1865 59.9729V62.933C97.1865 63.537 96.7582 63.7842 96.231 63.4821L91.4422 60.7363C91.1653 60.5559 90.9349 60.3127 90.7698 60.0264C90.6047 59.7401 90.5096 59.4188 90.4922 59.0888V56.1343C90.4922 55.4972 90.9205 55.2776 91.4422 55.5796Z" fill="#7C7C7C"/>
<path d="M91.0742 56.3154L91.2554 56.4253V59.7038L91.0742 59.5995V56.3154Z" fill="#929292"/>
<path d="M91.8164 56.7437L92.1294 56.9304V60.2144L91.8164 60.0277V56.7437Z" fill="#929292"/>
<path d="M92.5508 57.1719L92.7375 57.2762L92.732 60.5602L92.5508 60.4559V57.1719Z" fill="#929292"/>
<path d="M93.1094 57.4907L93.4718 57.7049V60.9889L93.1094 60.7693V57.4907Z" fill="#929292"/>
<path d="M94.0352 58.0288L94.2164 58.1332V61.4172L94.0352 61.3073V58.0288Z" fill="#929292"/>
<path d="M94.5664 58.3306L94.9563 58.5612V61.8397L94.5664 61.6091V58.3306Z" fill="#929292"/>
<path d="M95.5156 58.8799L95.6969 58.9897V62.2682L95.5156 62.1639V58.8799Z" fill="#929292"/>
<path d="M95.9375 59.1216L96.0309 59.1765V62.4605L95.9375 62.4056V59.1216Z" fill="#929292"/>
<path d="M95.1797 58.7041L95.2676 58.759V62.0376L95.1797 61.9881V58.7041Z" fill="#929292"/>
<path d="M93.6875 57.8311L93.7754 57.8805V61.1645L93.6875 61.1096V57.8311Z" fill="#929292"/>
<path d="M92.8711 57.3589L92.959 57.4138V60.6978L92.8711 60.6429V57.3589Z" fill="#929292"/>
<path d="M92.2812 57.0347L92.3746 57.0896V60.3736L92.2812 60.3187V57.0347Z" fill="#929292"/>
<path d="M91.4844 56.5513L91.5777 56.6062V59.8902L91.4844 59.8353V56.5513Z" fill="#929292"/>
<path d="M96.2578 59.3081L96.439 59.4124V62.6965L96.2578 62.5921V59.3081Z" fill="#929292"/>
<path d="M95.6758 41.0705L97.186 41.9437V38.2863L95.6758 37.4131V41.0705Z" fill="#F0F0F0"/>
<path d="M72.6493 62.7571L61.4957 56.3208L45.8828 65.3327L57.0364 71.7744L72.6493 62.7571Z" fill="#7C7C7C"/>
<path d="M57.0352 97.5302L72.648 88.5183V62.7568L57.0352 71.7742V97.5302Z" fill="#EBEBEB"/>
<path d="M59.6128 92.4065C59.543 92.4079 59.4742 92.3888 59.4151 92.3516C59.3289 92.2899 59.2602 92.2068 59.2159 92.1105C59.1716 92.0142 59.1532 91.908 59.1625 91.8024V90.1549V90.0341H59.2449L60.5299 89.2817V91.1105C60.5272 91.3458 60.4686 91.5771 60.3587 91.7853C60.2489 91.9935 60.0911 92.1725 59.8984 92.3077C59.8136 92.3652 59.715 92.3993 59.6128 92.4065ZM59.3712 90.2812V91.7969C59.361 91.8675 59.3693 91.9396 59.3953 92.006C59.4212 92.0724 59.464 92.1309 59.5195 92.1758C59.5644 92.1936 59.613 92.1998 59.6609 92.1941C59.7088 92.1883 59.7546 92.1707 59.794 92.1429C59.9585 92.0281 60.0938 91.8765 60.1892 91.7001C60.2845 91.5237 60.3373 91.3274 60.3432 91.1269V90.9951H59.8654L59.7721 90.3526L59.3712 90.2812ZM60.0302 90.7865H60.3267V89.6552L59.5579 90.1055L59.9368 90.1714L60.0302 90.7865Z" fill="#929292"/>
<path d="M59.8465 93.7136C59.8189 93.7136 59.7923 93.7026 59.7727 93.683C59.7532 93.6635 59.7422 93.6369 59.7422 93.6092V92.2308C59.7422 92.2174 59.7449 92.2041 59.7502 92.1917C59.7555 92.1793 59.7633 92.1682 59.7731 92.1589C59.7828 92.1497 59.7944 92.1425 59.807 92.1379C59.8196 92.1332 59.8331 92.1312 59.8465 92.132C59.8727 92.132 59.8979 92.1424 59.9164 92.1609C59.935 92.1795 59.9454 92.2046 59.9454 92.2308V93.6092C59.9454 93.636 59.9352 93.6617 59.9168 93.6811C59.8984 93.7006 59.8732 93.7122 59.8465 93.7136Z" fill="#929292"/>
<path d="M59.2501 94.0543C59.2323 94.0554 59.2145 94.0512 59.1989 94.0425C59.1834 94.0337 59.1706 94.0207 59.1622 94.0049C59.1544 93.9936 59.1489 93.9807 59.1463 93.9671C59.1437 93.9536 59.144 93.9396 59.1471 93.9262C59.1502 93.9127 59.1561 93.9001 59.1643 93.889C59.1726 93.878 59.1831 93.8688 59.1952 93.8621L60.3924 93.1756C60.4043 93.1688 60.4174 93.1643 60.431 93.1625C60.4447 93.1607 60.4585 93.1616 60.4718 93.1652C60.485 93.1688 60.4975 93.1749 60.5083 93.1833C60.5192 93.1917 60.5283 93.2022 60.5352 93.2141C60.5419 93.2256 60.5463 93.2383 60.548 93.2515C60.5497 93.2647 60.5488 93.2781 60.5452 93.2909C60.5416 93.3037 60.5355 93.3157 60.5271 93.3261C60.5188 93.3365 60.5085 93.3451 60.4967 93.3514L59.2995 94.0433C59.2846 94.0521 59.2673 94.0559 59.2501 94.0543Z" fill="#929292"/>
<path d="M63.5102 91.687C63.4702 91.6871 63.4306 91.6777 63.3949 91.6596C63.3548 91.6326 63.3225 91.5956 63.3013 91.5522C63.2801 91.5088 63.2707 91.4606 63.2741 91.4124V91.1269C63.2741 91.1006 63.2845 91.0755 63.3031 91.057C63.3216 91.0384 63.3467 91.028 63.373 91.028C63.3864 91.0273 63.3998 91.0293 63.4125 91.0339C63.4251 91.0385 63.4367 91.0457 63.4464 91.0549C63.4562 91.0642 63.464 91.0754 63.4693 91.0877C63.4746 91.1001 63.4773 91.1134 63.4773 91.1269V91.4124C63.4773 91.4509 63.4773 91.4728 63.4773 91.4783C63.4773 91.4838 63.5102 91.4783 63.5432 91.4783C63.6062 91.4183 63.6558 91.3458 63.6889 91.2654C63.722 91.1849 63.7379 91.0985 63.7354 91.0115V89.1828C63.7318 89.1675 63.7317 89.1516 63.7352 89.1362C63.7386 89.1209 63.7455 89.1065 63.7552 89.0942C63.765 89.0819 63.7774 89.0719 63.7916 89.0651C63.8058 89.0582 63.8213 89.0547 63.837 89.0547C63.8527 89.0547 63.8682 89.0582 63.8824 89.0651C63.8966 89.0719 63.909 89.0819 63.9188 89.0942C63.9285 89.1065 63.9354 89.1209 63.9388 89.1362C63.9423 89.1516 63.9422 89.1675 63.9386 89.1828V91.0115C63.9431 91.1339 63.9192 91.2556 63.8687 91.367C63.8182 91.4785 63.7425 91.5768 63.6475 91.6541C63.6049 91.6754 63.5579 91.6866 63.5102 91.687Z" fill="#929292"/>
<path d="M62.4219 90.0947V89.9135C62.4479 89.4569 62.5807 89.0129 62.8096 88.6171C63.0385 88.2212 63.3572 87.8846 63.7399 87.6344C63.8763 87.5178 64.0455 87.4464 64.2242 87.4299C64.4028 87.4135 64.5822 87.4528 64.7376 87.5426C64.893 87.6323 65.0168 87.768 65.0918 87.931C65.1669 88.094 65.1896 88.2763 65.1567 88.4527V88.5131L62.4219 90.0947ZM64.3549 87.6509C64.1738 87.6592 63.9979 87.714 63.8442 87.8101C63.5174 88.0259 63.2406 88.309 63.0322 88.6405C62.8238 88.972 62.6887 89.3442 62.6361 89.7322L64.9535 88.3923C64.9613 88.2628 64.9361 88.1335 64.8804 88.0163C64.8247 87.8992 64.7403 87.798 64.635 87.7223C64.5512 87.6745 64.4569 87.6481 64.3604 87.6454L64.3549 87.6509Z" fill="#929292"/>
<path d="M67.2059 89.5786C67.1782 89.5786 67.1517 89.5676 67.1321 89.548C67.1126 89.5285 67.1016 89.5019 67.1016 89.4742V85.9706C67.1016 85.9429 67.1126 85.9163 67.1321 85.8968C67.1517 85.8772 67.1782 85.8662 67.2059 85.8662C67.2336 85.8662 67.2601 85.8772 67.2797 85.8968C67.2992 85.9163 67.3102 85.9429 67.3102 85.9706V89.4742C67.3102 89.5019 67.2992 89.5285 67.2797 89.548C67.2601 89.5676 67.2336 89.5786 67.2059 89.5786Z" fill="#929292"/>
<path d="M66.9063 86.7998H66.8679C66.8554 86.795 66.8441 86.7877 66.8345 86.7784C66.825 86.7691 66.8174 86.7579 66.8123 86.7456C66.8072 86.7333 66.8046 86.7201 66.8047 86.7067C66.8048 86.6934 66.8076 86.6802 66.813 86.668L67.1809 85.8223L67.5873 86.2946C67.6048 86.3149 67.6134 86.3414 67.6114 86.3682C67.6093 86.395 67.5967 86.4199 67.5763 86.4373C67.5662 86.446 67.5545 86.4526 67.5419 86.4567C67.5292 86.4608 67.5159 86.4624 67.5026 86.4614C67.4759 86.4594 67.451 86.4467 67.4335 86.4264L67.2358 86.2012L66.9997 86.7504C66.9904 86.7666 66.9767 86.7798 66.9602 86.7886C66.9436 86.7973 66.925 86.8012 66.9063 86.7998Z" fill="#929292"/>
<path d="M68.1551 89.0347C68.1284 89.0347 68.1026 89.0245 68.0832 89.0061C68.0638 88.9877 68.0522 88.9625 68.0508 88.9358V85.4321C68.0508 85.4045 68.0618 85.3779 68.0813 85.3584C68.1009 85.3388 68.1275 85.3278 68.1551 85.3278C68.169 85.327 68.183 85.3291 68.196 85.3341C68.209 85.3391 68.2208 85.3467 68.2307 85.3566C68.2405 85.3664 68.2482 85.3783 68.2531 85.3913C68.2581 85.4043 68.2603 85.4182 68.2595 85.4321V88.9358C68.2595 88.9493 68.2568 88.9626 68.2514 88.975C68.2461 88.9873 68.2384 88.9985 68.2286 89.0077C68.2188 89.017 68.2073 89.0242 68.1946 89.0288C68.182 89.0334 68.1686 89.0354 68.1551 89.0347Z" fill="#929292"/>
<path d="M67.8555 86.2505C67.8432 86.2551 67.8295 86.2551 67.8171 86.2505C67.8047 86.2457 67.7933 86.2384 67.7838 86.2291C67.7742 86.2198 67.7666 86.2086 67.7615 86.1963C67.7564 86.184 67.7538 86.1708 67.7539 86.1574C67.754 86.1441 67.7568 86.1309 67.7622 86.1187L68.1301 85.2729L68.5365 85.7452C68.5547 85.7646 68.5648 85.7901 68.5648 85.8166C68.5648 85.8432 68.5547 85.8687 68.5365 85.888C68.5268 85.8978 68.5153 85.9056 68.5025 85.9109C68.4898 85.9162 68.4762 85.9189 68.4624 85.9189C68.4486 85.9189 68.4349 85.9162 68.4222 85.9109C68.4095 85.9056 68.3979 85.8978 68.3882 85.888L68.196 85.6629L67.9599 86.212C67.9479 86.2276 67.9317 86.2395 67.9133 86.2463C67.8948 86.2531 67.8748 86.2545 67.8555 86.2505Z" fill="#929292"/>
<path d="M57.0364 97.5302L45.8828 91.094V65.3325L57.0364 71.7743V97.5302Z" fill="#929292"/>
<path d="M51.0625 71.9831L52.5727 72.8563V69.1989L51.0625 68.3257V71.9831Z" fill="#7C7C7C"/>
<path d="M52.5727 69.1986L68.1911 60.1813L66.6754 59.3081L51.0625 68.3254L52.5727 69.1986Z" fill="#929292"/>
<path d="M52.5715 84.6524L32.4995 73.0649L12.4219 84.6524L32.4995 96.2453L52.5715 84.6524Z" fill="#7C7C7C"/>
<path d="M32.5 111.699L52.5721 100.111V84.6523L32.5 96.2453V111.699Z" fill="#EBEBEB"/>
<path d="M35.0735 106.57C35.004 106.568 34.936 106.549 34.8758 106.515C34.79 106.453 34.7216 106.37 34.6774 106.273C34.6331 106.177 34.6145 106.071 34.6232 105.966V104.318V104.197H34.7056L35.9906 103.439V105.274C35.9871 105.508 35.928 105.738 35.8182 105.945C35.7084 106.153 35.5511 106.331 35.3591 106.465C35.2746 106.524 35.1761 106.56 35.0735 106.57ZM34.8264 104.444V105.96C34.8166 106.03 34.8251 106.101 34.8511 106.166C34.8771 106.232 34.9197 106.29 34.9747 106.334C35.0196 106.354 35.0692 106.362 35.1184 106.358C35.1676 106.353 35.2146 106.335 35.2547 106.306C35.4186 106.191 35.5534 106.039 35.6487 105.863C35.744 105.686 35.7971 105.49 35.8039 105.29V105.153H35.3096L35.2163 104.51L34.8264 104.444ZM35.4854 104.95H35.8039V103.824L35.0406 104.274L35.4195 104.34L35.4854 104.95Z" fill="#929292"/>
<path d="M35.3047 107.877C35.2917 107.877 35.2789 107.874 35.2669 107.869C35.2549 107.864 35.244 107.857 35.2348 107.848C35.2256 107.839 35.2184 107.828 35.2134 107.816C35.2084 107.804 35.2059 107.791 35.2059 107.778V106.4C35.2023 106.384 35.2022 106.368 35.2056 106.353C35.2091 106.338 35.2159 106.323 35.2257 106.311C35.2355 106.299 35.2479 106.289 35.2621 106.282C35.2762 106.275 35.2917 106.271 35.3075 106.271C35.3232 106.271 35.3387 106.275 35.3529 106.282C35.367 106.289 35.3795 106.299 35.3892 106.311C35.399 106.323 35.4059 106.338 35.4093 106.353C35.4127 106.368 35.4126 106.384 35.4091 106.4V107.778C35.4091 107.791 35.4064 107.805 35.4011 107.817C35.3957 107.83 35.388 107.841 35.3782 107.85C35.3684 107.859 35.3569 107.866 35.3442 107.871C35.3316 107.876 35.3182 107.878 35.3047 107.877Z" fill="#929292"/>
<path d="M34.7072 108.217C34.6852 108.216 34.6642 108.208 34.6472 108.194C34.6302 108.18 34.6181 108.161 34.6127 108.139C34.6072 108.118 34.6086 108.095 34.6167 108.075C34.6248 108.054 34.6392 108.037 34.6578 108.025L35.8549 107.339C35.8658 107.331 35.8783 107.326 35.8914 107.323C35.9046 107.32 35.9181 107.321 35.9311 107.324C35.9442 107.327 35.9563 107.333 35.9669 107.341C35.9774 107.349 35.9861 107.36 35.9922 107.372C36.0001 107.383 36.0056 107.396 36.0082 107.409C36.0108 107.423 36.0105 107.437 36.0074 107.45C36.0043 107.464 35.9984 107.477 35.9901 107.488C35.9819 107.499 35.9713 107.508 35.9593 107.515L34.7621 108.217H34.7072Z" fill="#929292"/>
<path d="M38.9674 105.856C38.9312 105.864 38.8937 105.864 38.8576 105.856C38.8156 105.829 38.7817 105.791 38.7595 105.747C38.7372 105.702 38.7275 105.652 38.7313 105.603V105.323C38.7313 105.295 38.7423 105.269 38.7618 105.249C38.7814 105.229 38.8079 105.218 38.8356 105.218C38.8633 105.218 38.8898 105.229 38.9094 105.249C38.929 105.269 38.94 105.295 38.94 105.323V105.603C38.9324 105.626 38.9324 105.651 38.94 105.674C38.94 105.674 38.9729 105.674 39.0113 105.674C39.0733 105.614 39.1219 105.541 39.1541 105.461C39.1863 105.38 39.2012 105.294 39.1981 105.207V103.379C39.1994 103.352 39.2108 103.326 39.2301 103.306C39.2494 103.287 39.2752 103.276 39.3024 103.274C39.3301 103.274 39.3566 103.285 39.3762 103.305C39.3958 103.325 39.4067 103.351 39.4067 103.379V105.207C39.4113 105.33 39.3873 105.452 39.3368 105.563C39.2863 105.674 39.2106 105.773 39.1157 105.85C39.0674 105.863 39.0166 105.865 38.9674 105.856Z" fill="#929292"/>
<path d="M37.8867 104.258V104.077C37.9106 103.62 38.0425 103.175 38.2716 102.778C38.5007 102.382 38.8205 102.046 39.2047 101.797C39.3411 101.681 39.5103 101.609 39.689 101.593C39.8677 101.577 40.0471 101.616 40.2025 101.706C40.3579 101.795 40.4816 101.931 40.5567 102.094C40.6317 102.257 40.6544 102.439 40.6216 102.616V102.676L37.8867 104.258ZM39.8198 101.814C39.6371 101.823 39.4597 101.878 39.3036 101.973C38.9778 102.19 38.702 102.473 38.4946 102.804C38.2872 103.136 38.1529 103.508 38.1009 103.895L40.4129 102.555C40.4218 102.426 40.3977 102.297 40.3429 102.18C40.2882 102.063 40.2045 101.961 40.0999 101.885C40.0146 101.837 39.9178 101.812 39.8198 101.814Z" fill="#929292"/>
<path d="M42.6696 103.747C42.6557 103.748 42.6418 103.746 42.6287 103.741C42.6157 103.736 42.6039 103.728 42.594 103.718C42.5842 103.708 42.5765 103.696 42.5716 103.683C42.5666 103.67 42.5644 103.656 42.5652 103.643V100.139C42.5617 100.124 42.5616 100.108 42.565 100.092C42.5685 100.077 42.5753 100.063 42.5851 100.05C42.5949 100.038 42.6073 100.028 42.6214 100.021C42.6356 100.014 42.6511 100.011 42.6668 100.011C42.6826 100.011 42.6981 100.014 42.7122 100.021C42.7264 100.028 42.7388 100.038 42.7486 100.05C42.7584 100.063 42.7652 100.077 42.7687 100.092C42.7721 100.108 42.772 100.124 42.7684 100.139V103.643C42.7692 103.656 42.7672 103.669 42.7626 103.682C42.7579 103.695 42.7508 103.706 42.7415 103.716C42.7322 103.726 42.7211 103.734 42.7087 103.739C42.6964 103.744 42.683 103.747 42.6696 103.747Z" fill="#929292"/>
<path d="M42.3938 100.941H42.3499C42.3372 100.935 42.3258 100.927 42.3163 100.917C42.3068 100.907 42.2996 100.896 42.2949 100.883C42.2903 100.87 42.2883 100.856 42.2893 100.842C42.2903 100.829 42.2941 100.815 42.3004 100.803L42.6629 99.9575L43.0748 100.43C43.093 100.451 43.102 100.478 43.1 100.506C43.0979 100.534 43.0849 100.56 43.0638 100.578C43.0427 100.596 43.0152 100.605 42.9874 100.603C42.9596 100.601 42.9337 100.588 42.9155 100.567L42.7233 100.342L42.4872 100.891C42.4774 100.907 42.4636 100.92 42.4472 100.929C42.4308 100.937 42.4124 100.941 42.3938 100.941Z" fill="#929292"/>
<path d="M43.62 103.203C43.5923 103.203 43.5658 103.192 43.5462 103.173C43.5266 103.153 43.5156 103.126 43.5156 103.099V99.5951C43.5156 99.5674 43.5266 99.5409 43.5462 99.5213C43.5658 99.5017 43.5923 99.4907 43.62 99.4907C43.6476 99.4907 43.6742 99.5017 43.6937 99.5213C43.7133 99.5409 43.7243 99.5674 43.7243 99.5951V103.099C43.7243 103.126 43.7133 103.153 43.6937 103.173C43.6742 103.192 43.6476 103.203 43.62 103.203Z" fill="#929292"/>
<path d="M43.3165 100.397H43.278C43.2656 100.392 43.2543 100.385 43.2447 100.376C43.2351 100.366 43.2276 100.355 43.2224 100.343C43.2173 100.331 43.2147 100.317 43.2148 100.304C43.215 100.291 43.2178 100.277 43.2231 100.265L43.5911 99.4141L43.9975 99.8863C44.0072 99.896 44.015 99.9076 44.0203 99.9203C44.0256 99.933 44.0284 99.9467 44.0284 99.9605C44.0284 99.9743 44.0256 99.9879 44.0203 100.001C44.015 100.013 44.0072 100.025 43.9975 100.035C43.9882 100.044 43.9771 100.052 43.9649 100.057C43.9526 100.062 43.9394 100.065 43.9261 100.065C43.9127 100.065 43.8995 100.062 43.8872 100.057C43.875 100.052 43.8639 100.044 43.8547 100.035L43.657 99.8095L43.4208 100.359C43.4093 100.375 43.3932 100.387 43.3746 100.394C43.356 100.401 43.3357 100.402 43.3165 100.397Z" fill="#929292"/>
<path d="M32.4995 111.699L12.4219 100.111V84.6523L32.4995 96.2453V111.699Z" fill="#929292"/>
<path d="M21.7031 93.6697L23.2133 94.5428V90.8854L21.7031 90.0122V93.6697Z" fill="#7C7C7C"/>
<path d="M23.2133 90.8855L43.2909 79.2981L41.7807 78.4194L21.7031 90.0124L23.2133 90.8855Z" fill="#929292"/>
<path d="M15.6024 94.2188L20.3912 96.9646C20.6682 97.1453 20.899 97.3885 21.0649 97.6747C21.2309 97.9608 21.3274 98.2819 21.3467 98.6121V101.572C21.3467 102.176 20.9184 102.423 20.3912 102.121L15.6024 99.3754C15.3255 99.1951 15.0951 98.9518 14.93 98.6655C14.7649 98.3792 14.6697 98.058 14.6523 97.7279V94.7734C14.6523 94.1584 15.0807 93.9387 15.6024 94.2188Z" fill="#7C7C7C"/>
<path d="M15.2344 94.9546L15.4156 95.0589V98.343L15.2344 98.2386V94.9546Z" fill="#929292"/>
<path d="M15.9688 95.3833L16.2873 95.57V98.8486L15.9688 98.6673V95.3833Z" fill="#929292"/>
<path d="M16.7109 95.8115L16.8977 95.9159L16.8922 99.1999L16.7109 99.0955V95.8115Z" fill="#929292"/>
<path d="M17.2695 96.1299L17.6375 96.3441L17.632 99.6281L17.2695 99.4084V96.1299Z" fill="#929292"/>
<path d="M18.1953 96.668L18.3765 96.7723V100.056L18.1953 99.9465V96.668Z" fill="#929292"/>
<path d="M18.7266 96.9702L19.1165 97.2009V100.479L18.7266 100.249V96.9702Z" fill="#929292"/>
<path d="M19.6758 97.5249L19.857 97.6292V100.908L19.6758 100.803V97.5249Z" fill="#929292"/>
<path d="M20.0977 97.7612L20.191 97.8161V101.095L20.0977 101.045V97.7612Z" fill="#929292"/>
<path d="M19.3398 97.3438L19.4277 97.3932V100.677L19.3398 100.628V97.3438Z" fill="#929292"/>
<path d="M17.8477 96.4707L17.9355 96.5201V99.8041L17.8477 99.7492V96.4707Z" fill="#929292"/>
<path d="M17.0312 95.998L17.1246 96.053V99.3315L17.0312 99.2821V95.998Z" fill="#929292"/>
<path d="M16.4414 95.6743L16.5348 95.7292V99.0133L16.4414 98.9583V95.6743Z" fill="#929292"/>
<path d="M15.6445 95.1909L15.7379 95.2458V98.5244L15.6445 98.4749V95.1909Z" fill="#929292"/>
<path d="M20.418 97.9478L20.5992 98.0576V101.336L20.418 101.232V97.9478Z" fill="#929292"/>
<path d="M48.114 53.7454L32.5012 44.728L16.8828 53.7454L32.5012 62.7572L48.114 53.7454Z" fill="#7C7C7C"/>
<path d="M32.5 93.6696L48.1128 84.6523V53.7451L32.5 62.757V93.6696Z" fill="#EBEBEB"/>
<path d="M35.0735 88.5407C35.0045 88.5412 34.9364 88.5242 34.8758 88.4912C34.79 88.4292 34.7216 88.346 34.6774 88.2498C34.6331 88.1536 34.6145 88.0476 34.6232 87.9421V86.2946V86.1737H34.7056L35.9906 85.4214V87.2501C35.9875 87.4854 35.9286 87.7166 35.8188 87.9247C35.709 88.1328 35.5515 88.3119 35.3591 88.4473C35.2737 88.5029 35.1752 88.5351 35.0735 88.5407ZM34.8264 86.4154V87.9366C34.8177 88.0063 34.8267 88.077 34.8526 88.1423C34.8785 88.2076 34.9205 88.2653 34.9747 88.31C35.0196 88.3306 35.0692 88.3388 35.1184 88.334C35.1676 88.3292 35.2146 88.3114 35.2547 88.2825C35.4187 88.166 35.5536 88.0132 35.6488 87.8361C35.7441 87.6589 35.7971 87.4621 35.8039 87.2611V87.1293H35.3096L35.2163 86.4868L34.8264 86.4154ZM35.4854 86.9206H35.8039V85.7948L35.0406 86.2451L35.4195 86.311L35.4854 86.9206Z" fill="#929292"/>
<path d="M35.306 89.8474C35.2926 89.8474 35.2793 89.8447 35.2669 89.8394C35.2545 89.8341 35.2434 89.8263 35.2341 89.8165C35.2249 89.8068 35.2177 89.7952 35.2131 89.7826C35.2084 89.7699 35.2064 89.7565 35.2072 89.7431V88.3701C35.2064 88.3567 35.2084 88.3432 35.2131 88.3306C35.2177 88.318 35.2249 88.3064 35.2341 88.2967C35.2434 88.2869 35.2545 88.2791 35.2669 88.2738C35.2793 88.2685 35.2926 88.2658 35.306 88.2658C35.3199 88.265 35.3339 88.2671 35.3469 88.2721C35.3599 88.2771 35.3717 88.2847 35.3816 88.2946C35.3914 88.3044 35.3991 88.3163 35.4041 88.3293C35.409 88.3423 35.4112 88.3562 35.4104 88.3701V89.7431C35.4112 89.757 35.409 89.7709 35.4041 89.7839C35.3991 89.7969 35.3914 89.8087 35.3816 89.8186C35.3717 89.8285 35.3599 89.8361 35.3469 89.8411C35.3339 89.846 35.3199 89.8482 35.306 89.8474Z" fill="#929292"/>
<path d="M34.7072 90.1935C34.6852 90.1921 34.6642 90.1838 34.6472 90.1698C34.6302 90.1558 34.6181 90.1367 34.6127 90.1154C34.6072 90.094 34.6086 90.0715 34.6167 90.051C34.6248 90.0305 34.6392 90.0131 34.6578 90.0013L35.8549 89.3094C35.879 89.2955 35.9075 89.2918 35.9343 89.299C35.9611 89.3062 35.9839 89.3238 35.9977 89.3478C36.0116 89.3718 36.0153 89.4004 36.0081 89.4272C36.0009 89.4539 35.9833 89.4767 35.9593 89.4906L34.7621 90.177C34.746 90.1882 34.7268 90.1939 34.7072 90.1935Z" fill="#929292"/>
<path d="M38.9675 87.8264C38.9284 87.8265 38.8902 87.815 38.8577 87.7934C38.8157 87.768 38.7817 87.7315 38.7593 87.6878C38.737 87.6442 38.7273 87.5951 38.7314 87.5463V87.2662C38.7314 87.2385 38.7423 87.212 38.7619 87.1924C38.7815 87.1729 38.808 87.1619 38.8357 87.1619C38.8634 87.1619 38.8899 87.1729 38.9095 87.1924C38.929 87.212 38.94 87.2385 38.94 87.2662V87.5463C38.9325 87.5695 38.9325 87.5945 38.94 87.6177C38.9634 87.6242 38.9881 87.6242 39.0114 87.6177C39.0741 87.5589 39.1233 87.4872 39.1555 87.4076C39.1877 87.3279 39.2023 87.2422 39.1981 87.1564V85.3276C39.1981 85.3 39.2091 85.2734 39.2287 85.2539C39.2483 85.2343 39.2748 85.2233 39.3025 85.2233C39.3164 85.2225 39.3303 85.2247 39.3433 85.2296C39.3564 85.2346 39.3682 85.2422 39.378 85.2521C39.3879 85.2619 39.3955 85.2738 39.4005 85.2868C39.4055 85.2998 39.4076 85.3137 39.4068 85.3276V87.1564C39.4113 87.2787 39.3874 87.4004 39.3369 87.5119C39.2864 87.6234 39.2107 87.7216 39.1158 87.7989C39.0693 87.8198 39.0184 87.8292 38.9675 87.8264Z" fill="#929292"/>
<path d="M37.8867 86.2502V86.0745C37.9115 85.6169 38.0437 85.1716 38.2727 84.7747C38.5017 84.3778 38.821 84.0404 39.2047 83.79C39.3423 83.676 39.5116 83.607 39.6897 83.5923C39.8677 83.5776 40.046 83.6179 40.2005 83.7077C40.3549 83.7975 40.4781 83.9325 40.5534 84.0945C40.6287 84.2565 40.6525 84.4378 40.6216 84.6137V84.6686L37.8867 86.2502ZM39.8198 83.8119C39.6371 83.8212 39.4597 83.876 39.3036 83.9712C38.9784 84.1869 38.703 84.4694 38.4956 84.7999C38.2883 85.1303 38.1537 85.5012 38.1009 85.8878L40.4129 84.5533C40.4228 84.4241 40.3992 84.2946 40.3444 84.1772C40.2895 84.0598 40.2053 83.9586 40.0999 83.8833C40.0174 83.8253 39.9205 83.7911 39.8198 83.7845V83.8119Z" fill="#929292"/>
<path d="M42.6696 85.701C42.6419 85.701 42.6154 85.69 42.5958 85.6704C42.5762 85.6509 42.5652 85.6243 42.5652 85.5967V82.093C42.5617 82.0776 42.5616 82.0617 42.565 82.0464C42.5685 82.031 42.5753 82.0167 42.5851 82.0044C42.5949 81.992 42.6073 81.9821 42.6214 81.9752C42.6356 81.9684 42.6511 81.9648 42.6668 81.9648C42.6826 81.9648 42.6981 81.9684 42.7122 81.9752C42.7264 81.9821 42.7388 81.992 42.7486 82.0044C42.7584 82.0167 42.7652 82.031 42.7687 82.0464C42.7721 82.0617 42.772 82.0776 42.7684 82.093V85.5967C42.7685 85.6234 42.7582 85.6491 42.7398 85.6686C42.7214 85.688 42.6963 85.6996 42.6696 85.701Z" fill="#929292"/>
<path d="M42.3938 82.9059H42.3499C42.3372 82.9006 42.3258 82.8927 42.3163 82.8828C42.3068 82.8728 42.2996 82.861 42.2949 82.8481C42.2903 82.8352 42.2883 82.8215 42.2893 82.8078C42.2903 82.7941 42.2941 82.7807 42.3004 82.7686L42.6629 81.9229L43.0748 82.3951C43.0929 82.4145 43.103 82.44 43.103 82.4665C43.103 82.4931 43.0929 82.5186 43.0748 82.5379C43.0545 82.5564 43.0281 82.5667 43.0006 82.5667C42.9732 82.5667 42.9467 82.5564 42.9265 82.5379L42.7343 82.3128L42.4981 82.8619C42.4873 82.8791 42.4716 82.8925 42.4529 82.9003C42.4342 82.9082 42.4136 82.9101 42.3938 82.9059Z" fill="#929292"/>
<path d="M43.62 85.1523C43.5927 85.151 43.567 85.1396 43.5477 85.1203C43.5284 85.101 43.517 85.0752 43.5156 85.048V81.5443C43.5156 81.5166 43.5266 81.4901 43.5462 81.4705C43.5658 81.4509 43.5923 81.4399 43.62 81.4399C43.6476 81.4399 43.6742 81.4509 43.6937 81.4705C43.7133 81.4901 43.7243 81.5166 43.7243 81.5443V85.048C43.723 85.0752 43.7116 85.101 43.6923 85.1203C43.673 85.1396 43.6472 85.151 43.62 85.1523Z" fill="#929292"/>
<path d="M43.3167 82.3678H43.2783C43.2656 82.3624 43.2542 82.3546 43.2446 82.3447C43.235 82.3349 43.2274 82.3233 43.2223 82.3105C43.2172 82.2978 43.2147 82.2841 43.2149 82.2704C43.215 82.2567 43.2179 82.2431 43.2234 82.2305L43.5913 81.3848L43.9977 81.8571C44.0075 81.8668 44.0153 81.8783 44.0206 81.891C44.0259 81.9037 44.0286 81.9174 44.0286 81.9312C44.0286 81.945 44.0259 81.9586 44.0206 81.9713C44.0153 81.9841 44.0075 81.9956 43.9977 82.0053C43.9778 82.0223 43.9525 82.0317 43.9263 82.0317C43.9001 82.0317 43.8748 82.0223 43.8549 82.0053L43.6572 81.7802L43.4211 82.3293C43.4091 82.3449 43.3929 82.3568 43.3744 82.3636C43.356 82.3704 43.336 82.3719 43.3167 82.3678Z" fill="#929292"/>
<path d="M32.5012 93.6696L16.8828 84.6523V53.7451L32.5012 62.757V93.6696Z" fill="#929292"/>
<path d="M24.2891 61.675L25.8048 62.5482V58.8963L24.2891 58.0176V61.675Z" fill="#7C7C7C"/>
<path d="M25.8048 58.8964L41.4176 49.879L39.9074 49.0059L24.2891 58.0177L25.8048 58.8964Z" fill="#929292"/>
<path d="M20.061 78.7598L24.8498 81.5056C25.127 81.6856 25.3577 81.9288 25.5228 82.2152C25.6879 82.5016 25.7829 82.823 25.7998 83.1531V86.1076C25.7998 86.7117 25.377 86.9589 24.8498 86.6568L20.061 83.911C19.7831 83.7312 19.5516 83.4882 19.3855 83.2019C19.2194 82.9156 19.1235 82.594 19.1055 82.2635V79.3089C19.111 78.7049 19.5338 78.4577 20.061 78.7598Z" fill="#7C7C7C"/>
<path d="M19.6875 79.501L19.8687 79.6053V82.8893L19.6875 82.7795V79.501Z" fill="#929292"/>
<path d="M20.4297 79.9297L20.7427 80.1109V83.3949L20.4297 83.2082V79.9297Z" fill="#929292"/>
<path d="M21.1719 80.3525L21.3531 80.4624V83.7409L21.1719 83.6366V80.3525Z" fill="#929292"/>
<path d="M21.7305 80.6709L22.0929 80.8906V84.1691L21.7305 83.9549V80.6709Z" fill="#929292"/>
<path d="M22.6523 81.209L22.8336 81.3133V84.5974L22.6523 84.493V81.209Z" fill="#929292"/>
<path d="M23.1875 81.5112L23.5774 81.7419V85.0259L23.1875 84.7953V81.5112Z" fill="#929292"/>
<path d="M24.1367 82.0659L24.3179 82.1703V85.4543L24.1367 85.3445V82.0659Z" fill="#929292"/>
<path d="M24.5586 82.3076L24.6465 82.357V85.6411L24.5586 85.5861V82.3076Z" fill="#929292"/>
<path d="M23.7969 81.8848L23.8902 81.9397V85.2237L23.7969 85.1688V81.8848Z" fill="#929292"/>
<path d="M22.3008 81.0112L22.3941 81.0661V84.3447L22.3008 84.2953V81.0112Z" fill="#929292"/>
<path d="M21.4844 80.5444L21.5777 80.5939V83.8779L21.4844 83.823V80.5444Z" fill="#929292"/>
<path d="M20.9023 80.2207L20.9902 80.2701V83.5541L20.9023 83.4992V80.2207Z" fill="#929292"/>
<path d="M20.1055 79.7373L20.1933 79.7867V83.0708L20.1055 83.0158V79.7373Z" fill="#929292"/>
<path d="M24.8711 82.4941L25.0578 82.5985V85.877L24.8711 85.7727V82.4941Z" fill="#929292"/>
<path d="M17.0313 138.833L76.9675 173.431C77.7044 173.805 78.519 174 79.3454 174C80.1717 174 80.9864 173.805 81.7233 173.431L213.046 97.6457C214.358 96.8878 214.358 95.6577 213.046 94.8998L153.11 60.3022C152.374 59.9258 151.559 59.7295 150.732 59.7295C149.905 59.7295 149.09 59.9258 148.354 60.3022L17.0313 136.087C15.7187 136.845 15.7187 138.075 17.0313 138.833Z" fill="#455A64"/>
<path d="M49.4262 154.896C50.4481 155.412 51.5767 155.681 52.7212 155.681C53.8658 155.681 54.9944 155.412 56.0163 154.896C57.845 153.842 57.845 152.151 56.0163 151.08C54.9952 150.562 53.8663 150.292 52.7212 150.292C51.5762 150.292 50.4473 150.562 49.4262 151.08C47.5975 152.151 47.5975 153.853 49.4262 154.896Z" fill="#263238"/>
<path d="M78.0914 173.431L18.1552 138.833C16.98 138.152 16.8592 137.098 17.7873 136.34C17.2011 136.804 16.7191 137.385 16.3728 138.048C16.0265 138.71 15.8236 139.438 15.7773 140.184V142.419C15.8224 143.244 16.0612 144.047 16.4743 144.763C16.8874 145.478 17.4633 146.086 18.1552 146.538L78.0914 181.135C78.8243 181.518 79.6429 181.707 80.4693 181.685V174.002C79.6409 174.018 78.8223 173.821 78.0914 173.431Z" fill="#37474F"/>
<path d="M213.039 105.345C213.732 104.895 214.31 104.287 214.724 103.571C215.138 102.855 215.377 102.052 215.422 101.226V98.9911C215.378 98.2442 215.175 97.5152 214.827 96.8525C214.48 96.1898 213.996 95.6085 213.407 95.147C214.34 95.9048 214.219 96.9592 213.044 97.6347L81.7216 173.431C80.9883 173.812 80.1701 174.001 79.3438 173.98V181.707C80.1701 181.728 80.9883 181.539 81.7216 181.158L213.039 105.345Z" fill="#263238"/>
<path d="M86.8381 166.264L29.472 133.128C28.6812 132.672 28.6812 131.93 29.472 131.48L140.36 67.4415C140.802 67.2168 141.292 67.0996 141.788 67.0996C142.284 67.0996 142.773 67.2168 143.216 67.4415L200.604 100.573C201.389 101.029 201.389 101.765 200.604 102.22L89.6718 166.264C89.2323 166.486 88.747 166.601 88.255 166.601C87.7629 166.601 87.2777 166.486 86.8381 166.264Z" fill="#929292"/>
<path d="M63.7257 147.763L70.4201 143.897L68.1905 142.612L61.4961 146.472L63.7257 147.763Z" fill="#2873FF"/>
<path d="M144.034 101.396L150.729 97.5302L148.494 96.2451L141.805 100.111L144.034 101.396Z" fill="#2873FF"/>
<path d="M157.417 93.6697L164.111 89.8036L161.882 88.5186L155.188 92.3792L157.417 93.6697Z" fill="#2873FF"/>
<path d="M178.904 80.1326C179.164 80.2626 179.451 80.3303 179.742 80.3303C180.032 80.3303 180.319 80.2626 180.579 80.1326C180.68 80.0981 180.767 80.033 180.829 79.9463C180.891 79.8597 180.925 79.7558 180.925 79.6493C180.925 79.5428 180.891 79.4389 180.829 79.3523C180.767 79.2656 180.68 79.2005 180.579 79.166C180.32 79.0335 180.033 78.9644 179.742 78.9644C179.45 78.9644 179.163 79.0335 178.904 79.166C178.803 79.2005 178.716 79.2656 178.654 79.3523C178.592 79.4389 178.559 79.5428 178.559 79.6493C178.559 79.7558 178.592 79.8597 178.654 79.9463C178.716 80.033 178.803 80.0981 178.904 80.1326Z" fill="#263238"/>
<path d="M181.575 87.7166C182.093 87.9791 182.666 88.1159 183.247 88.1159C183.828 88.1159 184.401 87.9791 184.919 87.7166C185.842 87.1675 185.842 86.3162 184.919 85.7836C184.401 85.5211 183.828 85.3843 183.247 85.3843C182.666 85.3843 182.093 85.5211 181.575 85.7836C180.652 86.3162 180.652 87.1839 181.575 87.7166Z" fill="#263238"/>
<path d="M179.216 84.3558C179.831 83.9989 179.798 83.4058 179.145 83.0268L168.161 76.673C167.808 76.4835 167.414 76.3807 167.013 76.373C166.612 76.3654 166.215 76.4531 165.855 76.629C165.24 76.986 165.273 77.5791 165.926 77.958L176.943 84.3119C177.292 84.4956 177.679 84.5952 178.074 84.6028C178.469 84.6105 178.86 84.5259 179.216 84.3558Z" fill="#263238"/>
<path d="M160.468 58.5891L160.842 58.3694C160.584 59.3065 160.458 60.2751 160.468 61.247V62.587C160.468 67.3977 166.24 79.6881 168.365 84.0375C168.585 84.4933 165.669 87.5961 165.669 87.5961L169.134 85.5971C169.134 85.5971 177.794 78.458 177.794 72.5928V71.2529C177.794 65.3603 173.917 58.3474 169.134 55.5851C166.718 54.1957 164.538 54.1463 162.967 55.2007L159.672 57.0898L160.468 58.5891ZM164.801 63.0868C164.801 60.3409 166.74 59.2041 169.134 60.588C168.936 62.3618 172.176 67.8865 173.461 68.0897C173.461 70.8355 171.523 71.9723 169.134 70.5884C167.877 69.7646 166.831 68.6561 166.082 67.3528C165.333 66.0494 164.902 64.5879 164.823 63.0868H164.801Z" fill="#2873FF"/>
<path d="M156.904 64.734C157.003 70.6211 165.944 87.5959 165.944 87.5959C165.944 87.5959 174.489 80.3359 174.395 74.4488V73.1089C174.296 67.2218 170.304 60.2693 165.471 57.5894C160.639 54.9094 156.805 57.5015 156.904 63.3941V64.734ZM161.243 65.1624C161.199 62.4166 163.121 61.2468 165.532 62.5868C166.806 63.3879 167.873 64.4782 168.647 65.7693C169.421 67.0603 169.879 68.5156 169.985 70.017C170.035 72.7629 168.113 73.9326 165.696 72.5926C164.424 71.7899 163.357 70.6992 162.584 69.4085C161.81 68.1178 161.351 66.6633 161.243 65.1624Z" fill="#2873FF"/>
<path opacity="0.1" d="M156.904 64.734C157.003 70.6211 165.944 87.5959 165.944 87.5959C165.944 87.5959 174.489 80.3359 174.395 74.4488V73.1089C174.296 67.2218 170.304 60.2693 165.471 57.5894C160.639 54.9094 156.805 57.5015 156.904 63.3941V64.734ZM161.243 65.1624C161.199 62.4166 163.121 61.2468 165.532 62.5868C166.806 63.3879 167.873 64.4782 168.647 65.7693C169.421 67.0603 169.879 68.5156 169.985 70.017C170.035 72.7629 168.113 73.9326 165.696 72.5926C164.424 71.7899 163.357 70.6992 162.584 69.4085C161.81 68.1178 161.351 66.6633 161.243 65.1624Z" fill="black"/>
<path d="M73.1492 143.249C78.7013 146.445 91.7166 144.122 102.222 138.054L131.081 121.397C141.586 115.329 145.595 107.827 140.032 104.637C134.469 101.446 121.443 103.78 110.926 109.843L82.1226 126.477C71.6225 132.54 67.6026 140.069 73.1492 143.249Z" fill="#F0F0F0"/>
<path d="M157.174 3.61175H157.202L161.952 0.865906H161.99C164.983 -0.649798 168.981 -0.232426 173.287 2.56833C181.942 8.1369 188.548 20.9874 188.048 31.2624C187.796 36.3861 185.852 39.9008 182.848 41.4494H182.82L178.064 44.1953H178.032C175.039 45.7165 171.035 45.2936 166.724 42.4983C158.075 36.9243 151.468 24.0792 151.968 13.8043C152.232 8.67508 154.203 5.1604 157.174 3.61175Z" fill="#37474F"/>
<path d="M178.305 44.0523L182.835 41.4163H182.868C185.845 39.8622 187.811 36.3475 188.063 31.2293C188.283 26.6492 187.091 21.5584 184.939 16.8301L180.183 19.5759C182.341 24.3043 183.533 29.395 183.308 33.9806C183.071 38.978 181.182 42.4543 178.305 44.0523Z" fill="#263238"/>
<path d="M166.748 42.4927C158.098 36.9187 151.492 24.0736 151.991 13.7987C152.491 3.52376 159.921 -0.292959 168.554 5.27561C177.187 10.8442 183.816 23.6947 183.316 33.9696C182.816 44.2446 175.397 48.0613 166.748 42.4927Z" fill="#455A64"/>
<path d="M173.995 41.768C179.097 42.0151 179.926 36.2763 180.036 33.805C180.475 24.7438 174.402 12.9366 166.774 8.02159C165.148 6.8831 163.257 6.18323 161.282 5.98967C156.186 5.74254 155.357 11.4813 155.241 13.9526C154.802 23.0139 160.87 34.821 168.504 39.7635C170.129 40.902 172.02 41.6019 173.995 41.7954V41.768Z" fill="#E8E8E8"/>
<path d="M166.651 25.5842C166.711 25.5843 166.771 25.5732 166.827 25.5512C166.941 25.514 167.041 25.44 167.109 25.3408C167.178 25.2415 167.212 25.1225 167.206 25.0021V11.9154C167.206 11.7697 167.148 11.63 167.045 11.5271C166.942 11.4241 166.802 11.3662 166.657 11.3662C166.511 11.3662 166.371 11.4241 166.268 11.5271C166.165 11.63 166.107 11.7697 166.107 11.9154V23.4095L159.995 15.5564C159.905 15.4398 159.772 15.364 159.626 15.3454C159.479 15.3269 159.332 15.3672 159.215 15.4575C159.099 15.5478 159.023 15.6807 159.004 15.8269C158.986 15.9732 159.026 16.1208 159.117 16.2373L166.228 25.37C166.278 25.435 166.342 25.488 166.415 25.5251C166.489 25.5621 166.569 25.5823 166.651 25.5842Z" fill="#37474F"/>
<path d="M169.803 35.2659C169.828 35.2709 169.854 35.2709 169.88 35.2659C169.938 35.248 169.987 35.2083 170.017 35.1551C170.047 35.1019 170.055 35.0392 170.039 34.9803L166.958 24.6065C166.941 24.5475 166.901 24.4979 166.847 24.4685C166.792 24.4392 166.729 24.4325 166.67 24.45C166.611 24.4675 166.561 24.5077 166.532 24.5617C166.503 24.6158 166.496 24.6793 166.513 24.7383L169.589 35.1121C169.605 35.1565 169.633 35.1951 169.672 35.2226C169.71 35.2501 169.756 35.2652 169.803 35.2659Z" fill="#2873FF"/>
<path d="M166.828 22.4043C165.807 21.7508 164.934 22.2011 164.879 23.4093C164.882 24.0683 165.041 24.7172 165.343 25.3031C165.644 25.8891 166.08 26.3955 166.614 26.7812C167.63 27.4402 168.503 26.9899 168.564 25.7817C168.559 25.1222 168.4 24.473 168.098 23.8864C167.797 23.2998 167.362 22.7921 166.828 22.4043Z" fill="#2873FF"/>
<path d="M77.1124 140.036L83.8013 136.17L81.5717 134.885L74.8828 138.745L77.1124 140.036Z" fill="#2873FF"/>
<path d="M90.4992 132.309L97.1935 128.443L94.9584 127.158L88.2695 131.019L90.4992 132.309Z" fill="#2873FF"/>
<path d="M87.7452 130.733C87.7452 133.963 85.4826 137.873 82.6874 139.52C81.1991 140.382 79.8591 140.41 78.9365 139.762C78.5646 139.469 78.2591 139.101 78.0404 138.682C77.8216 138.262 77.6947 137.801 77.668 137.329C77.8558 137.241 78.0391 137.144 78.2171 137.038C81.0124 135.429 83.275 131.502 83.275 128.251C83.2776 128.011 83.2629 127.77 83.231 127.532C83.65 127.31 84.1104 127.178 84.5832 127.144C85.0559 127.11 85.5305 127.175 85.9769 127.334C87.0752 127.795 87.7452 128.987 87.7452 130.733Z" fill="#263238"/>
<path d="M88.2017 124.099L88.1084 124.044C86.7025 123.297 84.8134 123.435 82.6881 124.654C78.3771 127.142 74.8789 133.193 74.8789 138.174C74.8789 140.678 75.7631 142.43 77.1909 143.243C78.6187 144.056 80.5463 143.919 82.6826 142.694C86.9936 140.206 90.4863 134.149 90.4863 129.168C90.4918 126.664 89.6241 124.912 88.2017 124.099ZM82.71 139.509C81.2163 140.371 79.8763 140.398 78.9537 139.745C78.141 139.196 77.6467 138.097 77.6467 136.587C77.6467 133.364 79.9148 129.448 82.71 127.801C83.9841 127.065 85.1429 126.938 86.0051 127.317C87.0704 127.773 87.7404 128.965 87.7404 130.722C87.7459 133.973 85.4833 137.9 82.6881 139.52L82.71 139.509Z" fill="#37474F"/>
<path d="M86.2634 127.466L86.203 127.433C85.2914 126.944 84.0558 127.038 82.6883 127.823C79.8931 129.437 77.625 133.364 77.625 136.61C77.625 138.257 78.1742 139.355 79.1242 139.905C80.0743 140.454 81.3209 140.344 82.6883 139.542C85.4836 137.928 87.7462 134.001 87.7462 130.755C87.7462 129.13 87.1805 127.988 86.2634 127.466ZM82.6883 138.367C81.4911 139.059 80.4148 139.081 79.6679 138.554C79.0199 138.098 78.619 137.225 78.619 136.016C78.6959 134.605 79.1045 133.231 79.8115 132.007C80.5185 130.783 81.5041 129.743 82.6883 128.971C83.073 128.702 83.5151 128.527 83.9794 128.459C84.4437 128.391 84.9174 128.433 85.3628 128.581C86.2195 128.949 86.7577 129.904 86.7577 131.327C86.6812 132.737 86.2728 134.11 85.5657 135.334C84.8586 136.557 83.8727 137.596 82.6883 138.367Z" fill="#2873FF"/>
<path d="M103.882 124.577L110.576 120.716L108.347 119.426L101.652 123.292L103.882 124.577Z" fill="#2873FF"/>
<path d="M117.27 116.85L123.959 112.99L121.73 111.699L115.035 115.565L117.27 116.85Z" fill="#2873FF"/>
<path d="M130.653 109.123L137.342 105.263L135.112 103.972L128.418 107.838L130.653 109.123Z" fill="#2873FF"/>
<path d="M97.3473 73.1917C97.4172 73.0982 97.5152 73.0295 97.6268 72.9955C97.7385 72.9615 97.8581 72.9639 97.9683 73.0025C98.0785 73.0411 98.1735 73.1137 98.2396 73.21C98.3057 73.3062 98.3394 73.421 98.3358 73.5377C98.3787 73.8503 98.3469 74.1686 98.2428 74.4664C98.1387 74.7643 97.9654 75.0332 97.7372 75.2511C97.2979 75.63 96.853 75.4762 96.7487 74.9051C96.7062 74.5925 96.7383 74.2743 96.8423 73.9765C96.9464 73.6787 97.1194 73.4098 97.3473 73.1917Z" fill="#2873FF"/>
<path d="M102.498 75.6188L98.0221 73.0322L97.0391 75.3991L101.531 77.9912L102.498 75.6188Z" fill="#2873FF"/>
<path d="M101.812 75.767C102.251 75.3936 102.691 75.5474 102.8 76.1185C102.841 76.4306 102.807 76.7479 102.702 77.0446C102.597 77.3413 102.424 77.6091 102.196 77.8264C101.757 78.2053 101.312 78.0516 101.208 77.4804C101.168 77.1675 101.201 76.8496 101.306 76.552C101.411 76.2545 101.584 75.9857 101.812 75.767Z" fill="#2873FF"/>
<path d="M136.212 97.4261C136.212 97.536 136.212 97.6348 136.212 97.7447C136.212 97.9643 136.212 98.1895 136.212 98.4146C135.322 98.0357 134.164 98.162 132.89 98.8979C130.094 100.512 127.826 104.439 127.826 107.685C127.826 109.189 128.32 110.277 129.133 110.842C128.905 111.005 128.669 111.155 128.425 111.293L128.167 111.424L127.392 114.341L122.911 111.842C121.494 111.024 120.621 109.277 120.621 106.784C120.621 101.803 124.114 95.7512 128.425 93.2579C130.556 92.0278 132.483 91.9015 133.916 92.7088L138.31 95.1691L138.403 95.224L136.212 97.4261Z" fill="#455A64"/>
<path d="M138.397 95.1748L138.304 95.1199C136.898 94.373 135.009 94.5103 132.883 95.7295C128.572 98.2172 125.074 104.269 125.074 109.25C125.074 111.754 125.958 113.506 127.386 114.319C128.814 115.132 130.742 114.994 132.878 113.77C137.189 111.282 140.682 105.225 140.682 100.244C140.698 97.7394 139.814 95.9876 138.397 95.1748ZM132.905 110.584C131.412 111.447 130.072 111.474 129.149 110.821C128.336 110.271 127.842 109.173 127.842 107.663C127.842 104.439 130.11 100.524 132.905 98.8762C134.179 98.1403 135.338 98.014 136.228 98.3929C137.293 98.8487 137.963 100.04 137.963 101.798C137.952 105.049 135.679 108.975 132.883 110.584H132.905Z" fill="#37474F"/>
<path d="M137.952 101.82C137.952 105.049 135.69 108.959 132.894 110.607C131.406 111.469 130.066 111.496 129.144 110.848C128.772 110.556 128.466 110.188 128.247 109.768C128.029 109.349 127.902 108.888 127.875 108.415C128.063 108.328 128.246 108.231 128.424 108.124C131.219 106.515 133.482 102.589 133.482 99.3376C133.485 99.0971 133.47 98.8567 133.438 98.6182C133.857 98.3966 134.317 98.2645 134.79 98.2305C135.263 98.1965 135.738 98.2612 136.184 98.4205C137.271 98.8818 137.952 100.063 137.952 101.82Z" fill="#263238"/>
<path d="M136.459 98.5409L136.398 98.5025C135.487 98.0192 134.246 98.1071 132.884 98.8979C130.088 100.512 127.82 104.433 127.82 107.685C127.82 109.332 128.369 110.43 129.32 110.98C130.27 111.529 131.516 111.413 132.884 110.612C135.679 109.003 137.941 105.076 137.941 101.825C137.952 100.205 137.403 99.0681 136.459 98.5409ZM132.884 109.436C131.681 110.134 130.605 110.156 129.863 109.629C129.21 109.173 128.814 108.3 128.814 107.091C128.891 105.68 129.3 104.306 130.007 103.082C130.714 101.858 131.699 100.818 132.884 100.046C133.905 99.4525 134.839 99.3482 135.553 99.6557C136.409 100.024 136.947 100.979 136.947 102.402C136.871 103.811 136.463 105.183 135.757 106.405C135.051 107.628 134.067 108.666 132.884 109.436Z" fill="#2873FF"/>
<path d="M128.42 103.462L141.05 96.1689C142.517 95.3177 137.755 90.3478 134.213 90.0128C132.263 89.7772 130.285 89.9645 128.414 90.5619C128.414 90.5619 131.11 94.0162 130.649 95.9767C130.188 97.9373 128.42 103.462 128.42 103.462Z" fill="#2873FF"/>
<path d="M110.573 82.8516C110.573 82.8516 128.883 92.0886 129.673 92.6432C130.464 93.1979 129.673 99.6396 128.416 103.462C127.158 107.284 125.225 113.16 124.451 114.808C123.677 116.455 122.666 117.07 120.81 118.141L107.63 125.758L89.7874 127.933L82.7031 124.089L84.5483 112.496C84.5483 112.496 103.511 102.407 106.109 100.908C108.706 99.409 116.389 92.3741 110.573 82.8516Z" fill="#2873FF"/>
<path opacity="0.2" d="M110.573 82.8516C110.573 82.8516 128.883 92.0886 129.673 92.6432C130.464 93.1979 129.673 99.6396 128.416 103.462C127.158 107.284 125.225 113.16 124.451 114.808C123.677 116.455 122.666 117.07 120.81 118.141L107.63 125.758L89.7874 127.933L82.7031 124.089L84.5483 112.496C84.5483 112.496 103.511 102.407 106.109 100.908C108.706 99.409 116.389 92.3741 110.573 82.8516Z" fill="black"/>
<path d="M130.028 101.259C131.676 96.8331 132.906 93.1646 132.697 90.6879C132.444 87.7498 131.346 85.35 126.502 84.1418C121.659 82.9336 114.888 82.9556 114.888 82.9556L112.828 84.1473C112.828 84.1473 126.755 92.2201 128.337 93.0987C129.303 93.6479 130.336 96.0697 128.441 103.467L128.765 103.654C128.924 103.753 129.501 102.682 130.028 101.259Z" fill="#2873FF"/>
<path opacity="0.3" d="M130.028 101.259C131.676 96.8331 132.906 93.1646 132.697 90.6879C132.444 87.7498 131.346 85.35 126.502 84.1418C121.659 82.9336 114.888 82.9556 114.888 82.9556L112.828 84.1473C112.828 84.1473 126.755 92.2201 128.337 93.0987C129.303 93.6479 130.336 96.0697 128.441 103.467L128.765 103.654C128.924 103.753 129.501 102.682 130.028 101.259Z" fill="#929292"/>
<path d="M119.478 88.0025L121.73 86.7174C121.73 86.7174 121.598 78.9137 118.314 77.0191C115.03 75.1245 103.882 76.415 103.882 76.415L101.652 77.7001L119.478 88.0025Z" fill="#2873FF"/>
<path d="M112.174 78.8039C111.103 79.4244 111.103 80.4239 112.174 81.039C112.775 81.3447 113.439 81.5041 114.113 81.5041C114.787 81.5041 115.451 81.3447 116.051 81.039C117.117 80.4239 117.117 79.419 116.051 78.8039C115.45 78.5007 114.786 78.3428 114.113 78.3428C113.439 78.3428 112.775 78.5007 112.174 78.8039Z" fill="#F0F0F0"/>
<path d="M115.599 82.5328C114.847 82.9721 114.847 83.6805 115.599 84.1144C116.024 84.3318 116.495 84.4451 116.972 84.4451C117.45 84.4451 117.92 84.3318 118.345 84.1144C119.103 83.6805 119.103 82.9721 118.345 82.5328C117.919 82.318 117.449 82.2061 116.972 82.2061C116.495 82.2061 116.025 82.318 115.599 82.5328Z" fill="#F0F0F0"/>
<path d="M106.971 77.8097C106.213 78.2436 106.213 78.952 106.971 79.3913C107.397 79.6062 107.867 79.7181 108.344 79.7181C108.821 79.7181 109.291 79.6062 109.717 79.3913C110.474 78.952 110.474 78.2436 109.717 77.8097C109.292 77.5924 108.821 77.479 108.344 77.479C107.866 77.479 107.396 77.5924 106.971 77.8097Z" fill="#F0F0F0"/>
<path d="M119.829 85.7399C120.268 85.361 120.708 85.5147 120.818 86.0859C120.858 86.3988 120.824 86.7169 120.72 87.0145C120.615 87.3121 120.441 87.5809 120.213 87.7993C120.143 87.8927 120.046 87.9614 119.934 87.9955C119.822 88.0295 119.703 88.027 119.592 87.9885C119.482 87.9499 119.387 87.8772 119.321 87.781C119.255 87.6848 119.221 87.57 119.225 87.4533C119.183 87.1403 119.215 86.8217 119.32 86.5238C119.425 86.2259 119.6 85.9572 119.829 85.7399Z" fill="#2873FF"/>
<path d="M124.951 88.1672L120.47 85.5806L119.492 87.9475L123.979 90.5341L124.951 88.1672Z" fill="#2873FF"/>
<path d="M124.262 88.3157C124.332 88.2223 124.43 88.1536 124.541 88.1195C124.653 88.0855 124.772 88.088 124.883 88.1265C124.993 88.1651 125.088 88.2378 125.154 88.334C125.22 88.4302 125.254 88.545 125.25 88.6617C125.292 88.9747 125.259 89.2932 125.154 89.591C125.049 89.8888 124.875 90.1575 124.646 90.3751C124.207 90.754 123.767 90.5948 123.658 90.0291C123.617 89.7162 123.65 89.3979 123.755 89.1003C123.86 88.8026 124.034 88.5338 124.262 88.3157Z" fill="#2873FF"/>
<path d="M124.262 88.3157C124.332 88.2223 124.43 88.1536 124.541 88.1195C124.653 88.0855 124.772 88.088 124.883 88.1265C124.993 88.1651 125.088 88.2378 125.154 88.334C125.22 88.4302 125.254 88.545 125.25 88.6617C125.292 88.9747 125.259 89.2932 125.154 89.591C125.049 89.8888 124.875 90.1575 124.646 90.3751C124.207 90.754 123.767 90.5948 123.658 90.0291C123.617 89.7162 123.65 89.3979 123.755 89.1003C123.86 88.8026 124.034 88.5338 124.262 88.3157Z" fill="black"/>
<path d="M86.0165 126.34C86.0165 126.45 86.0165 126.548 86.0165 126.658C86.0165 126.878 86.0165 127.103 86.0165 127.328C85.1269 126.949 83.9681 127.076 82.7215 127.811C79.9263 129.426 77.6582 133.353 77.6582 136.598C77.6582 138.103 78.1525 139.19 78.9652 139.756C78.737 139.918 78.5006 140.068 78.2568 140.206L77.9987 140.338L77.2244 143.254L72.7432 140.755C71.3263 139.937 70.4531 138.191 70.4531 135.698C70.4531 130.717 73.9458 124.665 78.2568 122.172C80.3876 120.941 82.3152 120.815 83.7485 121.622L88.1418 124.083L88.2352 124.138L86.0165 126.34Z" fill="#455A64"/>
<path d="M72.6491 117.625L69.3047 129.217L75.999 133.084L79.4643 121.562L72.6491 117.625Z" fill="#2873FF"/>
<path opacity="0.2" d="M72.6491 117.625L69.3047 129.217L75.999 133.084L79.4643 121.562L72.6491 117.625Z" fill="black"/>
<path d="M72.6484 117.625C72.6484 117.625 76.4432 120.848 79.4636 121.562C83.4286 122.523 89.7331 122.628 91.9682 122.781C95.384 123.018 97.9651 123.012 99.1733 122.578C100.738 122.029 104.945 119.585 106.109 118.915C108.339 117.63 109.289 112.572 103.144 111.189C98.9886 110.328 94.7562 109.895 90.5129 109.898L72.6484 117.625Z" fill="#2873FF"/>
<path d="M110.494 116.142C110.303 116.62 110.174 117.12 110.11 117.63C109.933 118.161 109.891 118.727 109.989 119.278C110.408 119.97 111.066 120.484 111.84 120.722C112.397 120.846 112.973 120.854 113.534 120.745C114.094 120.636 114.626 120.414 115.096 120.09C116.233 119.409 117.09 118.586 118.704 118.124C119.858 117.88 120.945 117.387 121.89 116.68C122.785 115.961 123.982 113.973 122.268 113.511C120.555 113.05 116.832 114.676 113.438 114.824L110.494 116.142Z" fill="#37474F"/>
<path d="M110.492 114.022V116.559C110.596 116.844 110.777 117.095 111.014 117.284C111.252 117.473 111.537 117.593 111.838 117.63C112.113 117.67 112.395 117.64 112.656 117.542C113.067 117.385 113.424 117.111 113.681 116.754C113.939 116.397 114.086 115.972 114.106 115.532L114.205 114.022H110.492Z" fill="#FFA8A7"/>
<path d="M115.326 98.3325C115.326 101.49 114.436 115.143 114.436 115.143C114.436 115.143 113.145 116.79 110.339 115.143L109.395 99.8867L115.326 98.3325Z" fill="#37474F"/>
<path d="M100.607 111.787L109.394 106.724C109.754 106.535 110.056 106.251 110.266 105.903C110.476 105.555 110.588 105.156 110.588 104.749C110.588 104.343 110.476 103.944 110.266 103.596C110.056 103.248 109.754 102.964 109.394 102.775L102.848 98.9969C102.479 98.8102 102.072 98.7129 101.659 98.7129C101.246 98.7129 100.839 98.8102 100.47 98.9969L91.6833 104.06C91.3248 104.251 91.0249 104.535 90.8158 104.883C90.6066 105.23 90.4961 105.629 90.4961 106.035C90.4961 106.44 90.6066 106.839 90.8158 107.186C91.0249 107.534 91.3248 107.818 91.6833 108.009L98.2294 111.787C98.5979 111.974 99.0053 112.071 99.4184 112.071C99.8315 112.071 100.239 111.974 100.607 111.787Z" fill="#2873FF"/>
<path d="M100.607 111.787L109.394 106.724C109.754 106.535 110.056 106.251 110.266 105.903C110.476 105.555 110.588 105.156 110.588 104.749C110.588 104.343 110.476 103.944 110.266 103.596C110.056 103.248 109.754 102.964 109.394 102.775L102.848 98.9969C102.479 98.8102 102.072 98.7129 101.659 98.7129C101.246 98.7129 100.839 98.8102 100.47 98.9969L91.6833 104.06C91.3248 104.251 91.0249 104.535 90.8158 104.883C90.6066 105.23 90.4961 105.629 90.4961 106.035C90.4961 106.44 90.6066 106.839 90.8158 107.186C91.0249 107.534 91.3248 107.818 91.6833 108.009L98.2294 111.787C98.5979 111.974 99.0053 112.071 99.4184 112.071C99.8315 112.071 100.239 111.974 100.607 111.787Z" fill="#929292"/>
<path d="M91.6834 105.433L98.2295 109.211C98.598 109.398 99.0053 109.495 99.4184 109.495C99.8315 109.495 100.239 109.398 100.607 109.211L109.394 104.148C109.537 104.099 109.662 104.007 109.75 103.884C109.839 103.761 109.886 103.613 109.886 103.462C109.886 103.31 109.839 103.162 109.75 103.039C109.662 102.916 109.537 102.824 109.394 102.775L102.848 98.9969C102.479 98.8102 102.072 98.7129 101.659 98.7129C101.246 98.7129 100.839 98.8102 100.47 98.9969L91.6834 104.06C91.5399 104.109 91.4153 104.201 91.3271 104.324C91.2389 104.448 91.1914 104.595 91.1914 104.747C91.1914 104.898 91.2389 105.046 91.3271 105.169C91.4153 105.292 91.5399 105.384 91.6834 105.433Z" fill="#2873FF"/>
<path d="M97.0364 71.8241L95.9216 76.4206L91.1328 76.7117L92.1653 70.3413L97.0364 71.8241Z" fill="#FFA8A7"/>
<path d="M101.708 68.3643C101.708 68.3643 102.257 70.3083 102.032 70.4181C101.686 70.4709 101.334 70.4709 100.988 70.4181L101.708 68.3643Z" fill="#F28F8F"/>
<path d="M100.79 62.1588C101.558 63.0649 102.261 64.5532 101.718 68.1997C101.125 72.1866 100.389 72.6479 99.7955 73.0323C99.0212 73.5376 95.9239 73.2685 95.0507 72.6314C94.0018 71.8681 92.3817 69.4463 91.9973 67.0574C91.547 64.2511 92.4861 61.1374 94.551 60.6047C97.4561 59.8523 100.136 61.39 100.79 62.1588Z" fill="#FFA8A7"/>
<path d="M91.6828 71.6318C92.4241 72.4007 93.9453 72.6094 94.9009 72.7851C95.8564 72.9608 98.7945 73.153 99.6622 71.0607C100.53 68.9684 99.9367 67.4637 101.002 66.9584C102.068 66.4532 103.133 66.1237 103.413 65.8601C103.693 65.5965 103.699 62.1532 100.837 60.3684C97.9762 58.5836 93.5939 58.1717 90.7107 61.7908C88.525 64.586 89.4202 69.2704 91.6828 71.6318Z" fill="#455A64"/>
<path d="M94.5664 72.8126C95.3078 72.8785 97.6527 72.5105 98.3612 71.544C99.0696 70.5775 99.3552 68.8476 99.4595 67.9415C99.4691 67.5846 99.6 67.2416 99.8306 66.9691C100.061 66.6966 100.378 66.5108 100.728 66.4422C101.437 66.2171 103.002 65.4482 103.002 65.4482V65.0199C103.506 64.9882 104.013 64.9882 104.517 65.0199C104.847 65.0803 104.666 65.5691 103.831 65.9919C102.996 66.4148 100.706 67.233 100.355 67.5131C100.003 67.7932 99.8384 68.9739 99.5583 70.2315C99.2783 71.4891 98.4106 73.3672 94.5664 72.8126Z" fill="#37474F"/>
<path d="M101.155 78.0133L103.901 76.4372C104.165 75.6409 103.742 75.24 102.995 75.2894C102.248 75.3389 102.479 74.614 102.023 74.4108C101.424 74.1362 101.084 74.29 100.815 74.1637C100.546 74.0373 100.43 73.7188 100.079 73.6804C98.5084 73.5321 97.4375 75.7727 97.4375 75.7727L101.155 78.0133Z" fill="#F28F8F"/>
<path d="M82.5195 98.1789C82.5195 98.1789 94.6507 92.1655 96.765 91.1934C98.8792 90.2214 102.196 88.8101 103.959 88.8101C104.648 88.867 105.293 89.1704 105.776 89.6647C106.26 90.159 106.548 90.811 106.59 91.501C106.612 92.5603 106.552 93.6198 106.408 94.6697C103.075 95.7631 99.6694 96.6201 96.2158 97.2343C91.1689 98.113 82.5195 98.1789 82.5195 98.1789Z" fill="#37474F"/>
<path d="M83.8356 94.7026C83.8356 97.1958 83.5994 99.7879 84.6374 101.611C85.6753 103.434 91.2988 107.652 96.5928 106.768C100.053 106.186 110.322 101.457 110.322 101.457C110.322 101.457 115.303 99.6286 115.325 98.3271C115.358 96.4105 115.226 93.7086 110.882 93.8239C106.923 93.9282 95.2418 96.3665 95.2418 96.3665L83.8356 94.7026Z" fill="#455A64"/>
<path d="M87.2244 74.9488C89.1026 72.9883 90.3711 72.8236 91.2718 73.0652C93.3416 73.6576 95.3455 74.4599 97.2522 75.4596C97.2522 75.4596 96.5273 82.4779 99.9596 84.4989V95.4383C99.9596 95.4383 99.8553 96.6245 98.3615 97.8052C97.0435 98.8431 94.0615 99.8921 90.5029 99.5955C86.2743 99.244 83.836 94.7024 83.836 94.7024C83.836 94.7024 83.7262 85.7565 84.3248 82.2033C85.0277 78.0571 86.5764 75.6298 87.2244 74.9488Z" fill="#455A64"/>
<path d="M99.9613 85.0314C99.9613 85.0314 97.8854 83.3839 97.2539 81.2422C97.2539 81.2422 97.501 84.6031 99.9613 86.3055V85.0314Z" fill="#37474F"/>
<path d="M119.174 90.1939C120.16 90.2345 121.129 89.9338 121.919 89.3427C121.919 89.3427 122.875 87.4865 124.05 87.6458C124.05 87.6458 124.259 86.855 123.776 86.5968C123.292 86.3387 123.084 86.4101 122.886 86.1355C122.688 85.861 122.666 85.3502 121.788 85.3502C121.425 85.3502 121.475 85.0921 120.596 84.9878C119.717 84.8834 118.85 86.9099 118.207 86.9099L119.174 90.1939Z" fill="#FFA8A7"/>
<path d="M97.2535 75.4595C100.268 75.9263 101.361 76.8214 102.46 77.8374C103.558 78.8533 110.28 85.5971 110.28 85.5971L118.418 86.7668C118.846 87.1132 119.16 87.58 119.319 88.1068C119.649 89.0624 119.352 90.1058 119.039 90.3529C119.039 90.3529 110.966 90.8362 109.379 90.5341C107.792 90.2321 99.9335 85.015 99.9335 85.015C99.1824 84.4486 98.5524 83.7373 98.0808 82.9233C97.6092 82.1093 97.3055 81.209 97.1876 80.2757C96.6769 76.9642 97.2535 75.4595 97.2535 75.4595Z" fill="#455A64"/>
<path d="M90.0144 104.466L77.5428 119.689C77.4043 119.707 77.265 119.716 77.1254 119.717C76.6309 119.725 76.1421 119.61 75.7031 119.382L65.17 113.297L64.4561 112.885C64.0662 112.66 63.7422 111.737 63.7422 110.826V108.261C63.7418 105.627 64.4348 103.039 65.7516 100.757C67.0684 98.4751 68.9626 96.5802 71.2438 95.2624L83.8198 88.0024L97.203 95.7292L90.0144 104.466Z" fill="#2873FF"/>
<g opacity="0.1">
<path opacity="0.1" d="M90.0144 104.466L77.5428 119.689C77.4043 119.707 77.265 119.716 77.1254 119.717C76.6309 119.725 76.1421 119.61 75.7031 119.382L65.17 113.297L64.4561 112.885C64.0662 112.66 63.7422 111.737 63.7422 110.826V108.261C63.7418 105.627 64.4348 103.039 65.7516 100.757C67.0684 98.4751 68.9626 96.5802 71.2438 95.2624L83.8198 88.0024L97.203 95.7292L90.0144 104.466Z" fill="black"/>
</g>
<path d="M85.7141 109.716L97.1862 95.7346L83.803 88.0078L71.2325 95.2623C69.6064 96.2037 68.172 97.4426 67.0039 98.9143L85.7141 109.716Z" fill="#2873FF"/>
<path d="M97.187 106.96C97.187 107.872 96.8684 108.794 96.473 109.019L95.7591 109.431L78.5372 119.377C78.2239 119.546 77.8807 119.652 77.5267 119.69C77.3883 119.707 77.2489 119.716 77.1094 119.717V115.988C77.1089 113.353 77.8026 110.764 79.1204 108.483C80.4383 106.201 82.3339 104.306 84.6165 102.989L86.0388 102.171L97.187 95.7295V106.96Z" fill="#2873FF"/>
<g opacity="0.2">
<path opacity="0.2" d="M97.187 106.96C97.187 107.872 96.8684 108.794 96.473 109.019L95.7591 109.431L78.5372 119.377C78.2239 119.546 77.8807 119.652 77.5267 119.69C77.3883 119.707 77.2489 119.716 77.1094 119.717V115.988C77.1089 113.353 77.8026 110.764 79.1204 108.483C80.4383 106.201 82.3339 104.306 84.6165 102.989L86.0388 102.171L97.187 95.7295V106.96Z" fill="black"/>
</g>
<path d="M100.883 125.796L107.621 125.774L117.264 120.206L107.819 127.032L100.707 127.131L100.883 125.796Z" fill="#929292"/>
<path d="M84.5221 135.385C84.5221 135.385 96.6697 130.805 97.7021 130.266C98.9138 129.524 100.063 128.685 101.14 127.757C101.36 127.466 101.463 127.104 101.429 126.741C101.396 126.379 101.228 126.041 100.959 125.796C100.959 125.796 96.0162 125.571 94.7476 125.961C94.0391 126.175 82.6055 129.843 82.6055 129.843L84.5221 135.385Z" fill="#929292"/>
<path d="M83.9778 130.266C82.9728 129.404 81.9623 129.761 81.7152 131.057C81.6208 131.772 81.6965 132.5 81.936 133.18C82.1755 133.86 82.5721 134.475 83.0936 134.973C84.0986 135.835 85.1091 135.484 85.3562 134.182C85.4501 133.467 85.3743 132.74 85.1348 132.06C84.8953 131.379 84.4989 130.765 83.9778 130.266Z" fill="#455A64"/>
</svg>
