<svg width="34" height="36" viewBox="0 0 34 36" fill="none" xmlns="http://www.w3.org/2000/svg">
<path d="M31.9987 13.6665C32.2176 13.6666 32.4343 13.6235 32.6366 13.5397C32.8388 13.456 33.0226 13.3332 33.1773 13.1785C33.3321 13.0237 33.4549 12.8399 33.5386 12.6377C33.6223 12.4355 33.6654 12.2187 33.6654 11.9998V6.99983C33.6655 6.65013 33.5555 6.30925 33.351 6.02558C33.1465 5.7419 32.8579 5.52982 32.526 5.41943L17.526 0.419433C17.1837 0.305501 16.8137 0.305501 16.4713 0.419433L1.47135 5.41943C1.13952 5.52982 0.850879 5.7419 0.646374 6.02558C0.44187 6.30925 0.331888 6.65013 0.332031 6.99983V11.9998C0.331974 12.2187 0.375045 12.4355 0.458783 12.6377C0.542521 12.8399 0.665284 13.0237 0.82006 13.1785C0.974836 13.3332 1.15859 13.456 1.36082 13.5397C1.56306 13.6235 1.77981 13.6666 1.9987 13.6665H3.66536V25.6403C2.69326 25.9827 1.85097 26.6176 1.25414 27.4579C0.657314 28.2981 0.335202 29.3025 0.332031 30.3332V33.6665C0.331974 33.8854 0.375045 34.1021 0.458783 34.3044C0.542521 34.5066 0.665284 34.6904 0.82006 34.8451C0.974836 34.9999 1.15859 35.1227 1.36082 35.2064C1.56306 35.2902 1.77981 35.3332 1.9987 35.3332H31.9987C32.2176 35.3332 32.4343 35.2902 32.6366 35.2064C32.8388 35.1227 33.0226 34.9999 33.1773 34.8451C33.3321 34.6904 33.4549 34.5066 33.5386 34.3044C33.6223 34.1021 33.6654 33.8854 33.6654 33.6665V30.3332C33.6622 29.3025 33.3401 28.2981 32.7433 27.4579C32.1464 26.6176 31.3041 25.9827 30.332 25.6403V13.6665H31.9987ZM30.332 31.9998H3.66536V30.3332C3.66581 29.8913 3.84154 29.4676 4.15401 29.1551C4.46647 28.8427 4.89014 28.6669 5.33203 28.6665H28.6654C29.1073 28.6669 29.5309 28.8427 29.8434 29.1551C30.1559 29.4676 30.3316 29.8913 30.332 30.3332V31.9998ZM6.9987 25.3332V13.6665H10.332V25.3332H6.9987ZM13.6654 25.3332V13.6665H20.332V25.3332H13.6654ZM23.6654 25.3332V13.6665H26.9987V25.3332H23.6654ZM3.66536 10.3332V8.201L16.9987 3.756L30.332 8.201V10.3332H3.66536Z" fill="#2873FF"/>
</svg>
