<svg width="36" height="36" viewBox="0 0 36 36" fill="none" xmlns="http://www.w3.org/2000/svg">
<path fill-rule="evenodd" clip-rule="evenodd" d="M8.40232 24.4463C9.42907 24.4463 10.4328 24.7851 11.2865 25.4198C12.1402 26.0546 12.8056 26.9568 13.1985 28.0123C13.5914 29.0679 13.6943 30.2293 13.4939 31.3499C13.2936 32.4705 12.7992 33.4998 12.0732 34.3076C11.3471 35.1155 10.4221 35.6657 9.4151 35.8886C8.40807 36.1115 7.36426 35.9971 6.41566 35.5599C5.46706 35.1226 4.65628 34.3822 4.08584 33.4323C3.51541 32.4823 3.21094 31.3655 3.21094 30.2229C3.21094 28.6909 3.75788 27.2216 4.73146 26.1382C5.70503 25.0549 7.02548 24.4463 8.40232 24.4463ZM8.40232 25.9282C7.64054 25.9282 6.89587 26.1796 6.26248 26.6505C5.62909 27.1214 5.13542 27.7908 4.8439 28.5739C4.55238 29.3571 4.4761 30.2188 4.62472 31.0502C4.77333 31.8815 5.14016 32.6452 5.67882 33.2446C6.21748 33.844 6.90377 34.2522 7.6509 34.4175C8.39804 34.5829 9.17247 34.498 9.87626 34.1736C10.58 33.8493 11.1816 33.2999 11.6048 32.5951C12.028 31.8903 12.2539 31.0617 12.2539 30.2141C12.2539 29.0774 11.8481 27.9873 11.1258 27.1835C10.4035 26.3798 9.42382 25.9282 8.40232 25.9282Z" fill="#000044"/>
<path fill-rule="evenodd" clip-rule="evenodd" d="M8.39848 25.9287C9.16025 25.9287 9.90492 26.1801 10.5383 26.651C11.1717 27.1219 11.6654 27.7913 11.9569 28.5744C12.2484 29.3576 12.3247 30.2193 12.1761 31.0507C12.0275 31.882 11.6606 32.6457 11.122 33.2451C10.5833 33.8445 9.89703 34.2527 9.14989 34.418C8.40275 34.5834 7.62832 34.4985 6.92453 34.1741C6.22074 33.8497 5.61921 33.3004 5.19599 32.5956C4.77277 31.8908 4.54688 31.0622 4.54688 30.2145C4.54687 29.0779 4.95267 27.9878 5.67498 27.184C6.3973 26.3803 7.37697 25.9287 8.39848 25.9287ZM8.39848 27.5417C7.92459 27.5417 7.46134 27.6981 7.06732 27.9911C6.6733 28.284 6.36619 28.7004 6.18484 29.1876C6.00349 29.6748 5.95605 30.2108 6.0485 30.728C6.14095 31.2452 6.36915 31.7203 6.70424 32.0931C7.03932 32.466 7.46625 32.7199 7.93104 32.8228C8.39582 32.9257 8.87758 32.8729 9.31539 32.6711C9.75321 32.4693 10.1274 32.1276 10.3907 31.6891C10.654 31.2507 10.7945 30.7352 10.7945 30.2079C10.7945 29.5008 10.5421 28.8226 10.0927 28.3226C9.64338 27.8226 9.03394 27.5417 8.39848 27.5417Z" fill="#A9C2C2"/>
<path d="M8.40314 33.2448C7.86401 33.2448 7.33699 33.0669 6.88874 32.7335C6.4405 32.4002 6.09117 31.9264 5.88494 31.3721C5.67872 30.8178 5.62486 30.2079 5.73018 29.6196C5.83551 29.0312 6.09528 28.4908 6.47665 28.0668C6.85801 27.6427 7.34383 27.3541 7.87265 27.2373C8.40147 27.1205 8.94954 27.1809 9.44752 27.4108C9.9455 27.6407 10.371 28.0297 10.6703 28.5288C10.9695 29.0278 11.129 29.6143 11.1286 30.2143C11.1281 31.0182 10.8407 31.789 10.3296 32.3573C9.81857 32.9256 9.12564 33.2448 8.40314 33.2448ZM8.40314 26.2884C7.70534 26.2884 7.02321 26.5186 6.44301 26.95C5.86281 27.3814 5.4106 27.9945 5.14357 28.7119C4.87653 29.4292 4.80666 30.2186 4.94279 30.9802C5.07893 31.7417 5.41495 32.4412 5.90837 32.9903C6.40179 33.5393 7.03044 33.9132 7.71484 34.0647C8.39923 34.2162 9.10862 34.1385 9.7533 33.8413C10.398 33.5442 10.949 33.041 11.3367 32.3954C11.7244 31.7498 11.9313 30.9907 11.9313 30.2143C11.9315 29.6985 11.8405 29.1878 11.6633 28.7112C11.4861 28.2346 11.2263 27.8016 10.8986 27.4368C10.571 27.072 10.1819 26.7826 9.75376 26.5852C9.32558 26.3878 8.86663 26.2861 8.40314 26.2861" fill="#7E9191"/>
<path fill-rule="evenodd" clip-rule="evenodd" d="M7.9315 29.2633C7.99453 29.2241 8.06157 29.1936 8.13117 29.1722L8.25896 27.3037H8.54449L8.67427 29.1722C8.74375 29.194 8.81074 29.2245 8.87394 29.2633L10.1538 28.0436L10.2536 28.1547L10.3555 28.268L9.2593 29.6899C9.29354 29.7606 9.32098 29.835 9.34116 29.9121L11.0204 30.0543V30.372L9.34116 30.5164C9.32074 30.5934 9.29331 30.6678 9.2593 30.7386L10.3555 32.1605L10.2536 32.2739L10.1538 32.3849L8.86995 31.1741C8.80635 31.2119 8.73944 31.2424 8.67028 31.2652L8.54049 33.1337H8.25696L8.12918 31.2652C8.05986 31.2429 7.99291 31.2124 7.92951 31.1741L6.64963 32.3916L6.5498 32.2805L6.44797 32.1672L7.54614 30.7297C7.51214 30.6589 7.48471 30.5845 7.46428 30.5075L5.78906 30.372V30.0632L7.46827 29.921C7.48845 29.8439 7.51589 29.7694 7.55014 29.6988L6.45396 28.2769L6.55579 28.1635L6.65562 28.0525L7.9315 29.2633Z" fill="#A9C2C2"/>
<path fill-rule="evenodd" clip-rule="evenodd" d="M30.8127 31.517C31.044 31.5166 31.27 31.4399 31.4622 31.2965C31.6543 31.1532 31.804 30.9497 31.8922 30.7118C31.9805 30.4738 32.0034 30.2121 31.958 29.9597C31.9126 29.7073 31.801 29.4755 31.6373 29.2936C31.4736 29.1118 31.2651 28.988 31.0382 28.9379C30.8113 28.8879 30.5761 28.9138 30.3625 29.0124C30.1488 29.111 29.9662 29.2779 29.8377 29.4919C29.7092 29.706 29.6406 29.9576 29.6406 30.2151C29.6412 30.5606 29.7649 30.8917 29.9846 31.1358C30.2044 31.3799 30.5022 31.517 30.8127 31.517Z" fill="#A9C2C2"/>
<path fill-rule="evenodd" clip-rule="evenodd" d="M31.6383 29.2928C31.8019 29.4749 31.9132 29.7069 31.9583 29.9594C32.0034 30.2119 31.9802 30.4737 31.8916 30.7115C31.803 30.9494 31.653 31.1527 31.4607 31.2957C31.2683 31.4387 31.0421 31.5151 30.8107 31.5151C30.5793 31.5151 30.3531 31.4387 30.1607 31.2957C29.9683 31.1527 29.8183 30.9494 29.7298 30.7115C29.6412 30.4737 29.618 30.2119 29.6631 29.9594C29.7081 29.7069 29.8195 29.4749 29.9831 29.2928C30.0917 29.1718 30.2207 29.0758 30.3627 29.0103C30.5048 28.9448 30.657 28.9111 30.8107 28.9111C30.9644 28.9111 31.1166 28.9448 31.2586 29.0103C31.4006 29.0758 31.5296 29.1718 31.6383 29.2928Z" fill="#A9C2C2"/>
<path fill-rule="evenodd" clip-rule="evenodd" d="M31.9807 30.2151C31.9807 30.4726 31.9121 30.7243 31.7835 30.9384C31.655 31.1525 31.4722 31.3194 31.2584 31.4179C31.0446 31.5165 30.8094 31.5422 30.5824 31.492C30.3554 31.4418 30.147 31.3178 29.9833 31.1357C29.8197 30.9536 29.7083 30.7216 29.6631 30.4691C29.618 30.2165 29.6411 29.9547 29.7297 29.7168C29.8182 29.4789 29.9682 29.2756 30.1606 29.1325C30.353 28.9894 30.5793 28.9131 30.8107 28.9131C31.1208 28.9137 31.4181 29.051 31.6375 29.2951C31.8568 29.5391 31.9802 29.8699 31.9807 30.2151Z" fill="#A9C2C2"/>
<path fill-rule="evenodd" clip-rule="evenodd" d="M31.6378 31.135C31.4741 31.317 31.2656 31.4409 31.0387 31.4911C30.8117 31.5413 30.5765 31.5154 30.3627 31.4169C30.149 31.3183 29.9663 31.1514 29.8378 30.9373C29.7092 30.7232 29.6406 30.4715 29.6406 30.2141C29.6406 29.9566 29.7092 29.7049 29.8378 29.4908C29.9663 29.2767 30.149 29.1099 30.3627 29.0113C30.5765 28.9127 30.8117 28.8869 31.0387 28.9371C31.2656 28.9872 31.4741 29.1111 31.6378 29.2931C31.7465 29.4141 31.8327 29.5576 31.8916 29.7156C31.9504 29.8737 31.9807 30.043 31.9807 30.2141C31.9807 30.3851 31.9504 30.5545 31.8916 30.7125C31.8327 30.8705 31.7465 31.0141 31.6378 31.135Z" fill="#A9C2C2"/>
<path fill-rule="evenodd" clip-rule="evenodd" d="M30.8107 31.517C30.5793 31.517 30.353 31.4407 30.1606 31.2976C29.9682 31.1545 29.8182 30.9512 29.7297 30.7133C29.6411 30.4754 29.618 30.2136 29.6631 29.9611C29.7083 29.7085 29.8197 29.4765 29.9833 29.2944C30.147 29.1123 30.3554 28.9883 30.5824 28.9381C30.8094 28.8879 31.0446 28.9136 31.2584 29.0122C31.4722 29.1107 31.655 29.2776 31.7835 29.4917C31.9121 29.7058 31.9807 29.9575 31.9807 30.2151C31.9802 30.5602 31.8568 30.891 31.6375 31.135C31.4181 31.3791 31.1208 31.5164 30.8107 31.517Z" fill="#A9C2C2"/>
<path fill-rule="evenodd" clip-rule="evenodd" d="M29.9831 31.1344C29.8195 30.9523 29.7081 30.7203 29.6631 30.4678C29.618 30.2152 29.6412 29.9535 29.7298 29.7156C29.8183 29.4778 29.9683 29.2745 30.1607 29.1315C30.3531 28.9884 30.5793 28.9121 30.8107 28.9121C31.0421 28.9121 31.2683 28.9884 31.4607 29.1315C31.653 29.2745 31.803 29.4778 31.8916 29.7156C31.9802 29.9535 32.0034 30.2152 31.9583 30.4678C31.9132 30.7203 31.8019 30.9523 31.6383 31.1344C31.5296 31.2554 31.4006 31.3514 31.2586 31.4169C31.1166 31.4823 30.9644 31.516 30.8107 31.516C30.657 31.516 30.5048 31.4823 30.3627 31.4169C30.2207 31.3514 30.0917 31.2554 29.9831 31.1344Z" fill="#A9C2C2"/>
<path fill-rule="evenodd" clip-rule="evenodd" d="M29.6406 30.2146C29.6402 29.9566 29.7086 29.7042 29.8372 29.4894C29.9657 29.2747 30.1486 29.1072 30.3628 29.0081C30.5769 28.9091 30.8126 28.8829 31.0401 28.933C31.2676 28.9831 31.4766 29.1071 31.6407 29.2894C31.8049 29.4717 31.9167 29.7041 31.9621 29.9571C32.0075 30.2102 31.9844 30.4725 31.8957 30.711C31.8071 30.9494 31.6568 31.1532 31.464 31.2966C31.2713 31.44 31.0446 31.5166 30.8127 31.5166C30.6589 31.5169 30.5065 31.4834 30.3643 31.4181C30.2221 31.3528 30.0929 31.257 29.984 31.136C29.8752 31.0151 29.7888 30.8715 29.7299 30.7134C29.671 30.5553 29.6406 30.3858 29.6406 30.2146Z" fill="#A9C2C2"/>
<path fill-rule="evenodd" clip-rule="evenodd" d="M30.8086 24.4463C31.8353 24.4463 32.839 24.7851 33.6927 25.4198C34.5465 26.0546 35.2118 26.9568 35.6048 28.0123C35.9977 29.0679 36.1005 30.2293 35.9002 31.3499C35.6999 32.4705 35.2055 33.4998 34.4794 34.3076C33.7534 35.1155 32.8284 35.6657 31.8214 35.8886C30.8143 36.1115 29.7705 35.9971 28.8219 35.5599C27.8733 35.1226 27.0625 34.3822 26.4921 33.4323C25.9217 32.4823 25.6172 31.3655 25.6172 30.2229C25.6172 28.6909 26.1641 27.2216 27.1377 26.1382C28.1113 25.0549 29.4317 24.4463 30.8086 24.4463ZM30.8086 25.9282C30.0468 25.9282 29.3021 26.1796 28.6687 26.6505C28.0353 27.1214 27.5417 27.7908 27.2501 28.5739C26.9586 29.3571 26.8824 30.2188 27.031 31.0502C27.1796 31.8815 27.5464 32.6452 28.0851 33.2446C28.6237 33.844 29.31 34.2522 30.0572 34.4175C30.8043 34.5829 31.5787 34.498 32.2825 34.1736C32.9863 33.8493 33.5878 33.2999 34.0111 32.5951C34.4343 31.8903 34.6602 31.0617 34.6602 30.2141C34.6604 29.6511 34.561 29.0937 34.3675 28.5736C34.174 28.0535 33.8904 27.5809 33.5326 27.1829C33.1749 26.7848 32.7502 26.4691 32.2828 26.2539C31.8154 26.0386 31.3144 25.9279 30.8086 25.9282Z" fill="#000044"/>
<path fill-rule="evenodd" clip-rule="evenodd" d="M30.8106 25.9287C31.5723 25.9292 32.3168 26.1809 32.9499 26.6521C33.5831 27.1233 34.0764 27.7928 34.3676 28.576C34.6588 29.3591 34.7348 30.2208 34.586 31.052C34.4371 31.8833 34.0702 32.6467 33.5314 33.2459C32.9927 33.845 32.3064 34.253 31.5593 34.4182C30.8122 34.5834 30.0379 34.4984 29.3342 34.1739C28.6306 33.8495 28.0291 33.3001 27.606 32.5954C27.1829 31.8906 26.957 31.0621 26.957 30.2145C26.957 29.0779 27.3628 27.9878 28.0851 27.184C28.8075 26.3803 29.7871 25.9287 30.8086 25.9287M30.8086 27.5417C30.3347 27.5417 29.8715 27.6981 29.4775 27.9911C29.0835 28.284 28.7763 28.7004 28.595 29.1876C28.4137 29.6748 28.3662 30.2108 28.4587 30.728C28.5511 31.2452 28.7793 31.7203 29.1144 32.0931C29.4495 32.466 29.8764 32.7199 30.3412 32.8228C30.806 32.9257 31.2877 32.8729 31.7256 32.6711C32.1634 32.4693 32.5376 32.1276 32.8009 31.6891C33.0641 31.2507 33.2047 30.7352 33.2047 30.2079C33.2047 29.5008 32.9522 28.8226 32.5029 28.3226C32.0535 27.8226 31.4441 27.5417 30.8086 27.5417Z" fill="#A9C2C2"/>
<path d="M30.8112 33.2448C30.272 33.2452 29.7448 33.0677 29.2963 32.7346C28.8478 32.4015 28.4981 31.9279 28.2916 31.3736C28.0851 30.8194 28.0309 30.2094 28.136 29.6209C28.2411 29.0324 28.5007 28.4918 28.882 28.0676C29.2633 27.6433 29.7491 27.3544 30.278 27.2375C30.8069 27.1205 31.355 27.1808 31.8531 27.4106C32.3512 27.6404 32.7769 28.0295 33.0762 28.5285C33.3755 29.0276 33.5351 29.6143 33.5347 30.2143C33.5342 31.0178 33.2471 31.7883 32.7364 32.3565C32.2258 32.9247 31.5334 33.2442 30.8112 33.2448ZM30.8112 26.2884C30.1137 26.2897 29.4321 26.521 28.8527 26.9532C28.2733 27.3854 27.822 27.999 27.5559 28.7165C27.2898 29.434 27.2208 30.2231 27.3576 30.9842C27.4944 31.7454 27.8309 32.4443 28.3245 32.9926C28.8182 33.541 29.4469 33.9143 30.1311 34.0652C30.8153 34.2161 31.5244 34.138 32.1687 33.8407C32.8131 33.5433 33.3637 33.0401 33.7512 32.3947C34.1386 31.7492 34.3453 30.9904 34.3453 30.2143C34.3456 29.698 34.2543 29.1867 34.0768 28.7097C33.8992 28.2327 33.6388 27.7993 33.3106 27.4344C32.9823 27.0696 32.5926 26.7803 32.1637 26.5833C31.7348 26.3862 31.2752 26.2853 30.8112 26.2861" fill="#7E9191"/>
<path fill-rule="evenodd" clip-rule="evenodd" d="M30.3359 29.2633C30.399 29.2243 30.466 29.1937 30.5356 29.1722L30.6634 27.3037H30.9469L31.0767 29.1722C31.1462 29.194 31.2132 29.2245 31.2764 29.2633L32.5542 28.0436L32.6561 28.1547L32.7559 28.268L31.6617 29.6899C31.696 29.7606 31.7234 29.835 31.7436 29.9121L33.4228 30.0543V30.372L31.7456 30.5075C31.7252 30.5845 31.6977 30.6589 31.6637 30.7297L32.7579 32.1517L32.6581 32.265L32.5562 32.3761L31.2784 31.1585C31.2148 31.1964 31.1479 31.2269 31.0787 31.2496L30.9489 33.1181H30.6634L30.5356 31.2496C30.4663 31.2272 30.3994 31.1966 30.3359 31.1585L29.0581 32.3761L28.9562 32.265L28.8564 32.1517L29.9486 30.7297C29.9137 30.6594 29.8862 30.5848 29.8667 30.5075L28.1875 30.3631V30.0632L29.8667 29.921C29.886 29.8436 29.9135 29.769 29.9486 29.6988L28.8524 28.2769L28.9522 28.1635L29.0541 28.0525L30.3359 29.2633Z" fill="#A9C2C2"/>
<path fill-rule="evenodd" clip-rule="evenodd" d="M26.3789 22.9273L27.3193 22.3252L31.2368 29.9748C31.3846 30.2636 31.2488 30.5658 31.0372 30.7991C30.8255 31.0324 30.4382 30.868 30.2964 30.5769L26.3789 22.9273Z" fill="#2873FF"/>
<path fill-rule="evenodd" clip-rule="evenodd" d="M30.8086 22.8389C31.3974 22.8387 31.9837 22.9261 32.5517 23.0988C32.6333 23.122 32.7078 23.1691 32.7676 23.235C32.8274 23.301 32.8703 23.3835 32.8919 23.4741C32.9134 23.5646 32.9129 23.66 32.8903 23.7502C32.8677 23.8405 32.8239 23.9224 32.7633 23.9875L25.2059 32.397C25.1474 32.4644 25.0738 32.5131 24.9926 32.5383C24.9115 32.5634 24.8258 32.564 24.7445 32.54C24.6631 32.516 24.5889 32.4683 24.5296 32.4017C24.4703 32.3352 24.4281 32.2523 24.4072 32.1615C24.1406 31.068 24.1038 29.9208 24.2996 28.8089C24.4954 27.697 24.9186 26.6501 25.5363 25.7494C26.1541 24.8487 26.9499 24.1182 27.8621 23.6147C28.7742 23.1111 29.7783 22.8479 30.7966 22.8455L30.8086 22.8389Z" fill="#2873FF"/>
<path fill-rule="evenodd" clip-rule="evenodd" d="M8.20589 21.3991L18.4868 21.2324C16.546 25.4738 16.4602 28.5421 18.4868 31.0994H13.7786L13.4432 30.7306H2.09604C1.95871 30.731 1.8229 30.6987 1.69776 30.6358C1.57262 30.5729 1.46106 30.4808 1.3706 30.3658C1.28015 30.2509 1.2129 30.1156 1.1734 29.9693C1.1339 29.8229 1.12306 29.6689 1.14162 29.5175C1.65876 25.2116 4.02483 22.0145 7.78858 21.7923C8.23584 21.7657 8.28975 21.5124 8.20589 21.3991Z" fill="#2873FF"/>
<path fill-rule="evenodd" clip-rule="evenodd" d="M16.9281 30.5231H17.4493C15.8679 27.7836 16.4409 24.7464 17.6489 21.8203H17.2496C17.0766 21.8191 16.9074 21.8767 16.7646 21.9856C16.6219 22.0944 16.5124 22.2491 16.4509 22.4291C15.5524 24.9575 15.191 27.5392 16.1295 29.9388C16.1942 30.1143 16.3051 30.2641 16.4476 30.3683C16.5901 30.4726 16.7576 30.5265 16.9281 30.5231Z" fill="#2873FF"/>
<path fill-rule="evenodd" clip-rule="evenodd" d="M13.678 30.8454H18.2703C19.7299 30.8454 21.6887 31.0676 22.6051 29.3857L26.6285 21.9516C27.1396 21.0051 27.1456 20.2852 26.8681 18.9988L25.9496 14.733C25.8677 14.3553 25.8298 14.0664 26.1492 14.0664H26.5725C26.7663 14.0647 26.9549 14.1364 27.1072 14.2696C27.2596 14.4028 27.3668 14.5897 27.4111 14.7996L28.2198 18.51C28.3855 19.2632 28.9426 21.7538 28.5872 22.4204L23.6634 31.6186H13.5781C13.6238 31.363 13.6572 31.1049 13.678 30.8454Z" fill="#2873FF"/>
<path d="M23.5599 31.5508H13.5046C13.4373 31.5508 13.3828 31.6115 13.3828 31.6863V32.1862C13.3828 32.2611 13.4373 32.3217 13.5046 32.3217H23.5599C23.6272 32.3217 23.6817 32.2611 23.6817 32.1862V31.6863C23.6817 31.6115 23.6272 31.5508 23.5599 31.5508Z" fill="#2873FF"/>
<path fill-rule="evenodd" clip-rule="evenodd" d="M8.38461 22.5957C10.155 22.5953 11.8654 23.3096 13.1983 24.6061C14.5312 25.9025 15.3962 27.6931 15.6326 29.6454C15.6489 29.7812 15.6388 29.9193 15.603 30.0503C15.5672 30.1814 15.5066 30.3024 15.4252 30.4052C15.3439 30.5079 15.2436 30.5901 15.1313 30.6461C15.0189 30.702 14.8971 30.7306 14.774 30.7297H1.99522C1.87227 30.73 1.75069 30.7009 1.63868 30.6445C1.52666 30.5882 1.4268 30.5057 1.34582 30.4028C1.26484 30.2998 1.20463 30.1788 1.16924 30.0477C1.13385 29.9167 1.12409 29.7788 1.14064 29.6432C1.3774 27.6921 2.24195 25.9026 3.574 24.6067C4.90605 23.3108 6.61523 22.5963 8.38461 22.5957Z" fill="#2873FF"/>
<path fill-rule="evenodd" clip-rule="evenodd" d="M8.38828 23.3828C9.89129 23.3828 11.3433 23.9895 12.4749 25.0902C13.6065 26.1908 14.341 27.7109 14.5421 29.3683C14.5577 29.4835 14.5501 29.6011 14.5197 29.7126C14.4893 29.8241 14.4369 29.9266 14.3663 30.0126C14.3486 30.0364 14.3292 30.0587 14.3084 30.0793C13.9103 28.6796 13.1218 27.4574 12.0573 26.5899C10.9928 25.7224 9.70769 25.2548 8.38828 25.2548C7.06886 25.2548 5.78374 25.7224 4.71926 26.5899C3.65478 27.4574 2.86629 28.6796 2.46811 30.0793C2.44732 30.0587 2.42797 30.0364 2.41021 30.0126C2.33964 29.9266 2.28724 29.8241 2.25685 29.7126C2.22645 29.6011 2.21881 29.4835 2.2345 29.3683C2.43554 27.7109 3.17 26.1908 4.30164 25.0902C5.43327 23.9895 6.88526 23.3828 8.38828 23.3828Z" fill="#2873FF"/>
<path d="M18.5271 19.2861H8.02059C7.89488 19.2861 7.79297 19.3995 7.79297 19.5394V21.1458C7.79297 21.2857 7.89488 21.3991 8.02059 21.3991H18.5271C18.6529 21.3991 18.7548 21.2857 18.7548 21.1458V19.5394C18.7548 19.3995 18.6529 19.2861 18.5271 19.2861Z" fill="#2873FF"/>
<path d="M12.5332 6.49023H0.42729C0.191304 6.49023 0 6.70311 0 6.9657V18.7856C0 19.0482 0.191304 19.2611 0.42729 19.2611H12.5332C12.7692 19.2611 12.9605 19.0482 12.9605 18.7856V6.9657C12.9605 6.70311 12.7692 6.49023 12.5332 6.49023Z" fill="#2873FF"/>
<path fill-rule="evenodd" clip-rule="evenodd" d="M1.12156 7.22168H11.8378C11.8876 7.22168 11.9369 7.2326 11.9829 7.25381C12.029 7.27503 12.0708 7.30612 12.106 7.34532C12.1412 7.38452 12.1692 7.43106 12.1883 7.48227C12.2073 7.53349 12.2171 7.58838 12.2171 7.64382V11.9852C8.38549 13.7115 3.42573 9.68786 0.742188 15.3534V7.64382C0.742187 7.58838 0.752 7.53349 0.771065 7.48227C0.79013 7.43106 0.818075 7.38452 0.853302 7.34532C0.88853 7.30612 0.930352 7.27503 0.976379 7.25381C1.02241 7.2326 1.07174 7.22168 1.12156 7.22168Z" fill="#2873FF"/>
<path fill-rule="evenodd" clip-rule="evenodd" d="M28.9517 15.6531C29.2132 15.6286 29.4728 16.2307 29.5307 16.9995C29.5886 17.7682 29.4249 18.4103 29.1633 18.4347C28.9017 18.4592 28.6422 17.8571 28.5823 17.0883C28.5224 16.3196 28.6941 15.6775 28.9517 15.6531Z" fill="#F1CF00"/>
<path fill-rule="evenodd" clip-rule="evenodd" d="M28.8517 15.4688C28.8748 15.4651 28.8984 15.4665 28.921 15.473C28.9436 15.4795 28.9648 15.4909 28.9834 15.5067C29.002 15.5224 29.0176 15.5421 29.0293 15.5646C29.0409 15.5871 29.0485 15.6119 29.0514 15.6377L29.3349 18.3972C29.3374 18.4221 29.3355 18.4474 29.3292 18.4715C29.3229 18.4956 29.3125 18.5181 29.2984 18.5377C29.2843 18.5573 29.2669 18.5736 29.2471 18.5857C29.2273 18.5978 29.2056 18.6055 29.1832 18.6082C28.3007 18.7193 27.514 18.1083 27.4261 17.2396C27.3383 16.3709 27.9712 15.5822 28.8517 15.4688Z" fill="#2873FF"/>
<path fill-rule="evenodd" clip-rule="evenodd" d="M28.5703 15.5286L28.9317 18.6235C29.0102 18.6235 29.0901 18.6191 29.1713 18.6102C29.1937 18.6074 29.2154 18.5998 29.2352 18.5877C29.255 18.5756 29.2724 18.5592 29.2865 18.5396C29.3006 18.52 29.3111 18.4975 29.3173 18.4734C29.3236 18.4493 29.3256 18.4241 29.3231 18.3991L29.0395 15.6397C29.0366 15.6139 29.0291 15.589 29.0174 15.5665C29.0057 15.544 28.9901 15.5243 28.9715 15.5086C28.953 15.4929 28.9317 15.4814 28.9091 15.475C28.8865 15.4685 28.863 15.467 28.8399 15.4708C28.7489 15.4832 28.6589 15.5025 28.5703 15.5286Z" fill="#9DC6C6"/>
<path d="M24.2561 13.9958L24.2064 14.211C24.1808 14.3215 24.2407 14.4342 24.34 14.4626L26.2468 15.0077C26.3461 15.0361 26.4473 14.9695 26.4729 14.859L26.5225 14.6438C26.5481 14.5333 26.4882 14.4207 26.3889 14.3923L24.4821 13.8471C24.3828 13.8187 24.2816 13.8853 24.2561 13.9958Z" fill="#2873FF"/>
<path d="M18.5595 29.3032C18.4727 29.4964 18.4057 29.6998 18.3598 29.9097C18.335 30.0149 18.3295 30.1246 18.3435 30.2322C18.3576 30.3399 18.391 30.4433 18.4417 30.5363C18.6413 30.8784 19.0886 30.8873 19.46 30.8606L20.0051 30.8206C20.2367 30.8051 20.5082 30.7629 20.624 30.5385C20.7399 30.3141 20.656 30.0941 20.5981 29.8719C20.4602 29.368 20.3929 28.8434 20.3984 28.3167C20.4112 28.1617 20.3963 28.0054 20.3545 27.8568C20.3129 27.7584 20.2518 27.6719 20.1757 27.6037C20.0995 27.5356 20.0105 27.4876 19.9152 27.4635C19.4899 27.3347 19.1685 27.3458 19.0527 27.8012C18.9234 28.3153 18.7585 28.8175 18.5595 29.3032Z" fill="#191213"/>
<path d="M20.0013 22.274C20.1042 22.3809 20.1818 22.5145 20.227 22.6628C20.2513 22.8056 20.2402 22.9531 20.195 23.0894C20.0333 23.6982 19.6739 24.2514 19.6419 24.8868C19.6473 25.0782 19.6406 25.2697 19.622 25.4601C19.5739 25.669 19.4942 25.8674 19.3864 26.0466L18.987 26.7731C18.8933 26.9155 18.8398 27.0856 18.8333 27.2619C18.8513 27.5908 19.1747 27.7796 19.4563 27.884C19.618 27.944 19.8236 27.9885 19.9434 27.8529C19.9878 27.7913 20.0204 27.7202 20.0393 27.6441C20.5265 26.0311 21.015 24.4173 21.5049 22.8028C21.6266 22.3984 21.7484 21.9563 21.6147 21.5586C21.4649 21.1142 21.0556 20.8743 20.6762 20.6699L19.622 20.0944C19.3145 19.9278 18.8972 19.7789 18.6716 20.0678C18.3561 20.4677 18.6716 20.7943 18.9171 21.0076C19.3245 21.3386 19.6659 21.8652 20.0013 22.274Z" fill="#2E4C5E"/>
<path d="M19.2825 29.4506C19.1357 29.7819 19.0631 30.1478 19.0709 30.5171C19.0729 30.599 19.1004 30.6775 19.1488 30.7393C19.1954 30.7835 19.252 30.8127 19.3125 30.8237C20.3434 31.1279 21.4221 31.1749 22.4712 30.9614C22.6248 30.9414 22.7719 30.8813 22.9005 30.7859C22.9615 30.7365 23.0072 30.6671 23.0312 30.5875C23.0551 30.5079 23.0562 30.4219 23.0343 30.3416C22.9584 30.1483 22.7368 30.1038 22.5471 30.0794C22.2084 30.057 21.8771 29.9596 21.5727 29.7928C21.4228 29.7073 21.2947 29.581 21.2004 29.4256C21.1062 29.2702 21.0488 29.0908 21.0336 28.9041C21.0336 28.6175 21.1434 28.2731 20.9498 28.0842C20.8484 28.0068 20.7272 27.9678 20.6043 27.9731C20.205 27.942 19.9854 27.8443 19.7398 28.1775C19.5221 28.4464 19.4063 29.0929 19.2825 29.4506Z" fill="#281B1C"/>
<path d="M14.1082 10.5763C13.2356 12.4026 12.7944 14.44 12.3611 16.4507C12.31 16.6248 12.299 16.8105 12.3291 16.9906C12.3468 17.0797 12.393 17.1587 12.4591 17.2126C12.5253 17.2666 12.6068 17.2919 12.6885 17.2838C12.6885 17.4571 12.6885 17.6304 12.6885 17.8037C12.8064 17.9724 12.9559 18.1104 13.1266 18.2083C13.2973 18.3061 13.4851 18.3614 13.6769 18.3703C14.0605 18.385 14.4439 18.3371 14.815 18.2281L17.249 17.6571C17.4149 17.6403 17.571 17.5621 17.6922 17.4349C17.7961 17.2883 17.7581 17.0172 17.5944 16.9906C18.1694 16.8773 18.411 16.1241 18.5448 15.4909C18.6786 14.8577 18.8144 14.2178 18.9442 13.5823C19.1955 12.5803 19.3475 11.5507 19.3974 10.5118C19.3974 9.74532 19.3395 8.86771 19.8287 8.32782C19.9804 8.15896 20.1841 8.02787 20.26 7.80347C20.3758 7.4591 20.1362 7.10361 19.9125 6.83477C19.6197 6.48373 19.3275 6.13195 19.036 5.77942C18.9955 5.71607 18.9348 5.67235 18.8663 5.65723C18.8265 5.66259 18.7881 5.67723 18.7537 5.7002C18.7193 5.72317 18.6896 5.75395 18.6666 5.79053C18.3228 6.22699 17.8967 6.57368 17.4187 6.80589C16.9303 7.07517 16.4747 7.41264 16.0629 7.81014C15.3082 8.51222 14.4816 9.53869 14.1082 10.5763Z" fill="white"/>
<path d="M15.6683 11.9428C15.5504 13.087 15.802 14.3401 16.5648 15.12C17.0993 15.6256 17.764 15.9297 18.4636 15.9887C19.1582 16.0464 19.8563 16.0218 20.5462 15.9154L20.6759 15.6532L21.1651 15.8443L21.3448 15.6043C21.3774 15.7015 21.441 15.782 21.5235 15.8304C21.606 15.8787 21.7016 15.8916 21.7921 15.8665C21.8473 15.334 21.9866 14.8165 22.2034 14.3379C20.9455 14.0624 19.6716 13.7802 18.5215 13.147C18.3518 13.0192 18.1454 12.9662 17.9425 12.9982C18.0947 12.0654 18.1357 11.1145 18.0643 10.1698C18.0303 9.72546 17.9624 9.24777 17.7029 8.9034C16.4909 7.27927 15.7441 11.1963 15.6683 11.9428Z" fill="white"/>
<path d="M18.1345 9.58256C18.109 9.36667 18.0566 9.15578 17.9787 8.95602C17.8889 8.74939 17.6912 8.55165 17.4955 8.62497C17.2559 8.71162 17.2499 9.08044 17.2959 9.35816C17.4143 10.1639 17.5328 10.9704 17.6513 11.7777C17.7351 12.3509 17.819 12.9508 17.6513 13.5018L17.9827 13.464L18.0067 13.8728C18.8634 14.1508 19.743 14.3324 20.6323 14.415C20.6144 14.0484 20.209 13.9039 19.8896 13.8217C19.4983 13.73 19.1183 13.5868 18.7574 13.3952C18.3202 13.1485 18.3761 13.0597 18.3701 12.5064C18.3592 11.5265 18.2804 10.549 18.1345 9.58256Z" fill="white"/>
<path d="M19.4448 8.24099C19.6374 8.08842 19.813 7.91091 19.968 7.7122L19.5067 7.06788C19.485 7.03369 19.4572 7.00494 19.4249 6.98346C19.3907 6.96953 19.3537 6.96695 19.3182 6.97602C19.2828 6.98509 19.2505 7.00543 19.2252 7.03456C19.1601 7.10892 19.1167 7.20343 19.1006 7.30571C19.0846 7.40799 19.0967 7.51328 19.1354 7.60778C19.2156 7.79538 19.3298 7.96253 19.4708 8.09879" fill="#2873FF"/>
<path d="M17.6496 16.8548C17.4735 16.9856 17.2592 17.0365 17.0506 16.997C16.9474 17.0005 16.8452 16.9753 16.753 16.9237C16.7076 16.8958 16.673 16.8502 16.656 16.7956C16.6391 16.741 16.6409 16.6814 16.6612 16.6282C16.693 16.5871 16.7331 16.555 16.7782 16.5345C16.8234 16.514 16.8722 16.5058 16.9208 16.5105C17.0613 16.5126 17.2014 16.4909 17.3361 16.446C17.4035 16.4232 17.4648 16.382 17.5143 16.3261C17.5639 16.2702 17.6 16.2015 17.6196 16.1261C17.6482 16.1131 17.6789 16.1067 17.7098 16.1075C17.7407 16.1082 17.7712 16.116 17.7993 16.1304C17.8273 16.1448 17.8525 16.1654 17.8731 16.191C17.8937 16.2167 17.9094 16.2467 17.9191 16.2794C17.9348 16.3474 17.9344 16.4187 17.9179 16.4864C17.9015 16.5542 17.8696 16.616 17.8253 16.666C17.7359 16.7654 17.631 16.8459 17.5158 16.9037" fill="white"/>
<path d="M13.7335 19.5565C14.2766 19.9031 14.9176 19.9897 15.5306 20.0697L17.6091 20.3386C18.5675 20.463 19.6357 20.6518 20.2208 21.505C20.2691 21.6047 20.3466 21.6831 20.4404 21.7272C20.5496 21.7321 20.6582 21.7061 20.7559 21.6516C20.8597 21.6183 21.0095 21.6516 21.0194 21.7738C20.9628 21.8315 20.9185 21.9025 20.8899 21.9817C20.8612 22.0609 20.8488 22.1463 20.8537 22.2315L21.0893 22.1871C21.0966 22.2955 21.0843 22.4045 21.0531 22.5075C21.0219 22.6105 20.9724 22.7056 20.9076 22.787C20.5776 23.3626 20.3763 24.0178 20.3206 24.6977C20.2827 25.1776 20.3206 25.6931 20.085 26.1063C19.9832 26.2929 19.8354 26.444 19.7296 26.6284C19.6337 26.7986 19.5768 26.9924 19.5639 27.1928C19.5573 27.3573 19.5811 27.5216 19.6338 27.6756C19.6864 27.8295 19.7669 27.9698 19.8701 28.0878C19.9734 28.2059 20.0973 28.2991 20.2342 28.3618C20.3711 28.4246 20.518 28.4554 20.666 28.4525C21.277 28.397 21.6883 27.7482 21.9838 27.1506C22.9135 25.3285 23.5163 23.3228 23.7589 21.245C23.812 20.9031 23.7998 20.5526 23.723 20.2164C23.5113 19.4698 22.7925 19.081 22.1376 18.7944C21.0367 18.3086 19.9133 17.8701 18.7672 17.4791C18.4601 17.3635 18.1417 17.2889 17.8188 17.2569C17.5294 17.2455 17.2398 17.2664 16.9542 17.3191L13.6517 17.8013C13.1405 17.8746 12.7292 17.7835 12.9109 18.4811C13.055 18.9412 13.3484 19.3248 13.7335 19.5565Z" fill="#3D5E77"/>
<path d="M21.1656 19.4411C21.5024 19.5584 21.8156 19.747 22.0881 19.9965C22.7011 20.6409 22.6492 21.7495 22.3856 22.6427C22.122 23.5359 21.6928 24.4001 21.6987 25.3399C21.8245 25.4621 22.0022 25.2777 22.0801 25.1178C22.6513 23.9046 23.0181 22.5853 23.1623 21.2252C23.2309 20.8711 23.1901 20.5016 23.0465 20.1765C22.8772 19.9282 22.649 19.7374 22.3876 19.6255C21.1117 18.9323 19.4944 17.9592 18.0708 17.7881C18.0308 18.4946 20.6245 19.2123 21.1656 19.4411Z" fill="#4A6D82"/>
<path d="M22.9111 15.6704C23.038 15.6813 23.1656 15.673 23.2905 15.646C23.7617 15.5238 24.0273 14.9217 24.4885 14.7706C24.5174 14.7633 24.5475 14.7633 24.5764 14.7706C24.6179 14.7841 24.6543 14.8121 24.6802 14.8506C24.7485 14.9506 24.8261 15.0422 24.9118 15.1239C24.9549 15.1642 25.007 15.1906 25.0626 15.2004C25.1182 15.2102 25.1751 15.203 25.2273 15.1794C25.2519 15.1655 25.2732 15.1453 25.2895 15.1206C25.3058 15.0958 25.3166 15.0671 25.321 15.0368C25.3255 15.0065 25.3235 14.9755 25.3152 14.9462C25.3069 14.917 25.2925 14.8903 25.2732 14.8684C25.2965 14.9214 25.3378 14.962 25.388 14.9811C25.4382 15.0003 25.4931 14.9965 25.5408 14.9706C25.5884 14.9446 25.6249 14.8987 25.6421 14.8429C25.6593 14.787 25.6559 14.7259 25.6326 14.6728C25.6561 14.7161 25.6913 14.75 25.7331 14.7697C25.7749 14.7895 25.8213 14.794 25.8656 14.7826C25.9098 14.7713 25.9497 14.7447 25.9796 14.7067C26.0095 14.6686 26.0278 14.621 26.032 14.5706C26.0439 14.424 25.9381 14.304 25.8503 14.1952C25.7225 14.0352 25.6147 13.853 25.4809 13.6997C25.3523 13.537 25.1776 13.428 24.9857 13.3909C24.8327 13.3831 24.6801 13.4126 24.5384 13.4775C24.213 13.6022 23.8983 13.7591 23.598 13.9463C23.3642 14.1044 23.1229 14.2482 22.8752 14.3774C22.6262 14.5071 22.3475 14.5489 22.0765 14.4973C21.9108 14.4573 21.6772 15.4483 21.7471 15.5882C21.817 15.7282 22.1145 15.6549 22.2383 15.6593L22.9111 15.6704Z" fill="#EDB38C"/>
<path d="M23.8835 4.16251C24.0033 4.38469 24.2828 4.45578 24.3727 4.68907C24.2067 4.76157 24.0566 4.87288 23.9326 5.01547C23.8086 5.15805 23.7135 5.3286 23.6538 5.51558C23.5141 5.95993 23.57 6.50205 23.2825 6.84865C23.0229 7.1597 22.5836 7.17747 22.2142 7.07083C21.8449 6.96418 21.4974 6.77311 21.1181 6.72867C20.8818 6.70397 20.6436 6.73866 20.421 6.83019C20.1985 6.92172 19.9972 7.06774 19.8322 7.25746C19.7563 7.34633 19.6665 7.4552 19.5586 7.43298C19.4856 7.40658 19.4238 7.35123 19.3849 7.27745L18.8398 6.45984C19.1019 6.14021 19.2447 5.72154 19.2392 5.28895C19.2392 4.95568 19.1413 4.62242 19.1214 4.30026C19.0475 3.0916 19.9879 2.01626 21.0462 1.72965C21.8728 1.50747 23.2625 1.59856 23.9773 2.17401C24.6921 2.74945 23.5081 3.4893 23.8835 4.16251Z" fill="#EDB38C"/>
<path d="M23.188 2.86718C23.2379 3.0116 23.0562 3.12046 22.9164 3.12046C22.6449 3.12046 22.3833 3.00049 22.1177 2.97605C21.8522 2.95161 21.5187 3.06048 21.4389 3.34487C21.4051 3.54408 21.4126 3.74925 21.4608 3.94475C21.4848 4.14693 21.4409 4.38911 21.2612 4.46687C21.1114 4.24469 21.1633 3.91142 20.9816 3.73146C20.894 3.67129 20.7931 3.63942 20.6901 3.63942C20.5871 3.63942 20.4862 3.67129 20.3986 3.73146C20.2325 3.79601 20.0914 3.92235 19.9993 4.08916C19.8196 4.48909 20.149 4.97788 20.0152 5.40891C19.9634 5.54758 19.8858 5.6725 19.7876 5.7755C19.6809 5.91669 19.549 6.03168 19.4002 6.11321C19.3252 6.15198 19.2419 6.1667 19.1597 6.15571C19.0775 6.14472 18.9997 6.10846 18.935 6.051C18.7354 5.82882 18.8452 5.46445 18.7933 5.16229C18.7413 4.86012 18.4918 4.58907 18.4378 4.27357C18.4191 4.09317 18.4327 3.91043 18.4778 3.7359C18.5537 3.27758 18.6967 2.83624 18.9011 2.42949C19.2803 1.78376 19.8641 1.32054 20.5364 1.13196C21.2044 0.949898 21.9 0.931704 22.575 1.07864C22.8723 1.12074 23.1601 1.22396 23.4236 1.38303C23.7251 1.58299 24.0006 1.91625 24.35 1.88293C24.2551 1.9766 24.1435 2.047 24.0226 2.08955C24.185 2.17413 24.3308 2.2934 24.4519 2.4406C24.4273 2.4821 24.3942 2.51647 24.3553 2.54082C24.3164 2.56517 24.2728 2.5788 24.2282 2.58057C24.2539 2.62386 24.2698 2.67347 24.2745 2.72511C24.2791 2.77674 24.2724 2.82886 24.2549 2.87697C24.2374 2.92508 24.2097 2.96773 24.1741 3.00125C24.1385 3.03477 24.0961 3.05814 24.0505 3.06936C23.9028 3.08714 23.737 2.90717 23.5853 2.88273C23.6258 2.91483 23.6645 2.94971 23.7011 2.98716C23.6192 3.00493 23.2399 3.01604 23.188 2.86718Z" fill="#9E5E32"/>
<path d="M20.7889 4.73592C20.7889 4.75591 20.7629 4.76702 20.747 4.75591C20.7342 4.74191 20.7252 4.72421 20.721 4.70481C20.6981 4.63347 20.6946 4.55617 20.711 4.48263C20.7163 4.4645 20.7249 4.44779 20.7363 4.43355C20.7477 4.41932 20.7617 4.40787 20.7772 4.39994C20.7928 4.392 20.8097 4.38775 20.8268 4.38745C20.844 4.38715 20.861 4.39082 20.8768 4.3982C20.8996 4.3344 20.9038 4.2642 20.8888 4.19759C20.8737 4.13098 20.8402 4.07134 20.7929 4.02717C20.7443 3.98475 20.6849 3.9606 20.6231 3.95821C20.5614 3.95581 20.5006 3.97529 20.4495 4.01383C20.3732 4.08354 20.3175 4.17723 20.2897 4.28267C20.2554 4.36443 20.243 4.45542 20.2538 4.54484C20.2733 4.61686 20.3052 4.68401 20.3476 4.74258L20.4854 4.95143C20.5293 5.02031 20.5852 5.09585 20.6591 5.09807C20.697 5.09445 20.7326 5.07666 20.7601 5.04761C20.7877 5.01855 20.8056 4.97994 20.8109 4.9381C20.8194 4.854 20.8077 4.76889 20.7769 4.69148" fill="#C19272"/>
<path d="M20.4174 5.1263C20.5102 5.12603 20.6015 5.10007 20.683 5.05076C20.7569 4.99427 20.8167 4.91781 20.8567 4.82858C21.0704 4.38422 21.1223 3.811 21.4278 3.45329C21.8011 3.00893 22.3882 3.07336 22.9053 3.07336C23.3191 3.07121 23.7312 3.01529 24.1333 2.90673C24.2092 2.89107 24.2813 2.85776 24.3449 2.80897C24.3977 2.75143 24.4389 2.68205 24.4657 2.60543C24.4926 2.52882 24.5045 2.44673 24.5007 2.36461C24.5186 1.74251 24.1273 1.21817 23.702 0.869349C22.9796 0.262041 22.0885 -0.0438311 21.1842 0.0050736C20.2778 0.0731896 19.4205 0.488499 18.7582 1.1804C18.3738 1.54718 18.1028 2.03918 17.9835 2.58679C17.9326 2.94002 17.9326 3.30002 17.9835 3.65325C18.0056 3.964 18.073 4.26867 18.1832 4.5553C18.6164 5.50622 19.6926 5.17962 20.4174 5.1263Z" fill="#2873FF"/>
<path d="M19.7924 0.465086C19.2283 0.659509 18.7309 1.04087 18.3668 1.55821C18.1891 1.81743 18.0734 2.12254 18.0304 2.44503C17.9875 2.76753 18.0187 3.09687 18.1212 3.40229C18.181 3.58673 18.3037 3.73757 18.4626 3.82221C18.5745 3.85918 18.6934 3.86023 18.8057 3.82524C18.9181 3.79026 19.0192 3.72066 19.0976 3.62447C19.427 3.25787 19.6027 2.75131 19.9362 2.37805C20.2097 2.07144 20.5532 1.93369 20.8407 1.66263C20.9669 1.55172 21.0534 1.39445 21.0849 1.21899C21.1163 1.04353 21.0907 0.861339 21.0124 0.70504C20.7628 0.218468 20.1858 0.314004 19.7924 0.465086Z" fill="#2873FF"/>
<path d="M22.8217 3.65723C23.0175 3.54759 23.2359 3.49776 23.4547 3.51281C23.5605 3.51281 23.6723 3.47949 23.6763 3.33951V3.32618C23.6055 3.3259 23.5348 3.3311 23.4646 3.34174C23.376 3.33434 23.2869 3.33806 23.1991 3.35284C23.0371 3.37484 22.8891 3.46558 22.7858 3.60613C22.7618 3.64168 22.7938 3.67278 22.8217 3.65723Z" fill="#4C3729"/>
<path d="M22.877 4.01566C23.0163 3.94429 23.167 3.90427 23.3203 3.8979C23.3981 3.88457 23.49 3.87124 23.5319 3.78903C23.5339 3.78492 23.5348 3.78025 23.5345 3.77559C23.5342 3.77092 23.5327 3.76645 23.5302 3.7627C23.5277 3.75896 23.5242 3.7561 23.5203 3.75447C23.5163 3.75283 23.5121 3.75249 23.5079 3.75349C23.456 3.76904 23.4121 3.80459 23.3602 3.82236C23.3083 3.84014 23.2464 3.84902 23.1885 3.86458C23.0768 3.89272 22.9706 3.94316 22.875 4.01344L22.877 4.01566Z" fill="#4C3729"/>
<path d="M23.2433 3.87786C23.2313 3.93118 23.1994 4.06449 23.2772 4.08004C23.3551 4.09559 23.3631 3.9534 23.3531 3.89563L23.3232 3.8623L23.2892 3.87786V3.92451V3.95562V4.00006L23.2992 3.97784V3.95118C23.2992 3.92674 23.2992 3.90452 23.2872 3.88008L23.2433 3.87786Z" fill="#4C3729"/>
<path d="M23.067 4.07906C23.1231 4.11551 23.1879 4.13181 23.2526 4.12571C23.3006 4.12571 23.3744 4.11016 23.3984 4.05684L23.3884 4.03906C23.3465 4.03906 23.3086 4.06795 23.2666 4.07683C23.2038 4.09042 23.1386 4.08106 23.0809 4.05017C23.063 4.04128 23.049 4.06795 23.067 4.07906Z" fill="#4C3729"/>
<path d="M23.197 4.21093C23.226 4.21527 23.2554 4.20893 23.2809 4.19287V4.16351C23.2549 4.16351 23.231 4.16351 23.205 4.16351C23.1995 4.16231 23.1937 4.16366 23.189 4.16726C23.1843 4.17086 23.1811 4.17642 23.1801 4.18271C23.179 4.189 23.1802 4.1955 23.1834 4.2008C23.1866 4.20609 23.1915 4.20974 23.197 4.21093Z" fill="#4C3729"/>
</svg>
