<svg width="121" height="92" viewBox="0 0 121 92" fill="none" xmlns="http://www.w3.org/2000/svg">
<circle cx="65.5252" cy="51.8231" r="39.3143" fill="#161A22"/>
<circle cx="7.20762" cy="28.8893" r="7.20762" fill="#2873FF"/>
<circle cx="113.208" cy="84.2076" r="7.20762" fill="#2873FF"/>
<circle cx="116.931" cy="3.93143" r="3.93143" fill="#2873FF"/>
<path fill-rule="evenodd" clip-rule="evenodd" d="M77 49.1912C77 52.3554 77.4292 54.1776 79.169 56.7438C80.982 59.4177 84.791 61.7387 88.1912 61.7387C90.4557 61.7387 91.9186 61.6389 93.9567 60.6089C95.4101 59.8744 96.1309 59.3945 97.2628 58.2628C99.115 56.4107 100.739 53.437 100.739 50.5478C100.739 48.2833 100.639 46.8204 99.6089 44.7821C98.8744 43.3286 98.3948 42.6079 97.2628 41.4759C95.4107 39.6238 92.437 38 89.5478 38C86.3836 38 84.5611 38.4292 81.9953 40.169C79.3213 41.982 77.0003 45.791 77.0003 49.1912H77Z" fill="#2873FF"/>
<path fill-rule="evenodd" clip-rule="evenodd" d="M80.5029 37.108C81.1789 37.108 81.4514 38.179 80.8919 38.5584C77.738 40.6968 75.0004 45.1894 75.0004 49.1999C75.0004 49.2 75.0003 49.2001 75.0002 49.2001C75.0001 49.2001 75 49.2002 75 49.2003C75 49.5937 75.0056 49.9695 75.0181 50.3306C75.0411 50.9959 74.5197 51.5684 73.854 51.5684H71.3809C71.1928 51.5684 71.0009 51.5684 70.8115 51.5608C70.4924 51.5481 70.3424 51.3841 70.303 51.0612C70.1263 49.5956 70.092 49.5715 68.5946 49.5715H63.6029C62.7779 49.574 62.4703 49.8689 62.4106 50.7053C62.3508 51.5417 62.3267 51.5671 61.475 51.5671C56.3862 51.5756 51.2996 51.5756 46.2151 51.5671C44.4164 51.5608 43.1084 50.732 42.2644 49.1456C42.1523 48.9346 42.1238 48.7104 42.0954 48.487C42.0541 48.1615 42 47.8342 42 47.506V40.582C42.1996 38.8813 43.2292 37.8732 44.7673 37.2923C45.1572 37.1569 45.5687 37.0945 45.9812 37.108H55.2515C56.0295 37.108 56.0295 37.1068 56.0295 36.3098C56.0058 35.6601 56.0484 35.0097 56.1566 34.3687C56.3375 33.4255 56.8419 32.575 57.5829 31.964C58.3239 31.353 59.2549 31.0198 60.2153 31.0218C61.5068 31.0202 62.7985 31.0249 64.0902 31.0296C66.8081 31.0395 69.526 31.0494 72.2428 31.0002C74.5931 30.9583 76.6002 32.7328 76.6688 35.3005C76.679 35.7288 76.6854 36.1572 76.6688 36.5843C76.6523 36.9809 76.8252 37.1157 77.2065 37.108C77.7022 37.1021 78.1984 37.1041 78.6949 37.106H78.6949C78.9432 37.107 79.1916 37.108 79.4399 37.108H80.5029ZM72.9337 53.2815C74.3451 53.2796 75.5299 54.2843 76.1084 55.5717C76.4728 56.3828 76.947 57.2066 77.5583 58.1084C79.6968 61.2623 84.1894 64 88.1999 64C89.5646 64 90.7403 65.0915 90.7403 66.4562V67.7451C90.7403 70.1119 89.0064 71.8407 86.6282 71.8407H46.0651C44.4126 71.8407 43.2025 71.0704 42.3521 69.6798C42.1859 69.3934 42.134 69.0856 42.0824 68.7788L42.0824 68.7788C42.0792 68.7598 42.076 68.7408 42.0728 68.7219C42.0315 68.4787 42 68.233 42 67.9864V53.635C42 53.3063 42.0304 52.9643 42.215 52.6923C42.5412 52.2115 43.0458 52.1187 43.6525 52.503C44.6211 53.1207 45.6507 53.2911 46.7756 53.2847C50.3439 53.2651 53.9129 53.2681 57.4816 53.2711H57.4817C58.7794 53.2722 60.077 53.2733 61.3746 53.2733C62.3788 53.2733 62.4067 53.3038 62.4093 54.3169C62.4093 54.5022 62.4078 54.6876 62.4063 54.873C62.4026 55.3232 62.3989 55.7734 62.4169 56.2236C62.45 57.0155 62.7843 57.3549 63.5698 57.3676C65.424 57.3828 67.2786 57.3828 69.1336 57.3676C69.914 57.3612 70.2534 57.0167 70.2776 56.2236C70.2934 55.8025 70.2905 55.3806 70.2876 54.9585C70.2856 54.667 70.2836 54.3755 70.2878 54.0842C70.2967 53.3915 70.3958 53.286 71.0937 53.2847C71.707 53.2834 72.3203 53.2823 72.9337 53.2815ZM72.4449 35.6246C72.422 36.0514 72.422 36.4791 72.4449 36.9059C72.4538 37.1411 72.3978 37.2351 72.1347 37.2351C68.273 37.2258 64.4113 37.2258 60.5496 37.2351C60.3119 37.2351 60.2534 37.1538 60.2611 36.9339C60.2859 36.5228 60.2859 36.1107 60.2611 35.6996C60.2268 35.2992 60.3246 35.1657 60.7695 35.1734C62.1241 35.1946 63.4788 35.191 64.8339 35.1875C65.3467 35.1861 65.8597 35.1848 66.3727 35.1848C66.866 35.1848 67.3614 35.1856 67.858 35.1864H67.8581C69.2425 35.1886 70.6364 35.1909 72.0229 35.1759C72.38 35.1696 72.4703 35.2763 72.4449 35.6246Z" fill="#2873FF"/>
<path d="M85.743 50.8252C85.3327 50.8252 85 50.4925 85 50.0821C85 49.6718 85.3327 49.3391 85.743 49.3391H92.0359C92.4463 49.3391 92.779 49.6718 92.779 50.0821C92.779 50.4925 92.4463 50.8252 92.0359 50.8252H85.743ZM88.1373 46.7614C88.1373 46.3409 88.4782 46 88.8987 46C89.3192 46 89.6601 46.3409 89.6601 46.7614V53.4029C89.6601 53.8234 89.3192 54.1643 88.8987 54.1643C88.4782 54.1643 88.1373 53.8234 88.1373 53.4029V46.7614Z" fill="#0C1017"/>
</svg>
