<svg width="34" height="26" viewBox="0 0 34 26" fill="none" xmlns="http://www.w3.org/2000/svg">
<path d="M8.66536 16.9997H13.6654C14.1074 16.9997 14.5313 16.8241 14.8439 16.5115C15.1564 16.199 15.332 15.775 15.332 15.333C15.332 14.891 15.1564 14.4671 14.8439 14.1545C14.5313 13.8419 14.1074 13.6663 13.6654 13.6663H8.66536C8.22334 13.6663 7.79941 13.8419 7.48685 14.1545C7.17429 14.4671 6.9987 14.891 6.9987 15.333C6.9987 15.775 7.17429 16.199 7.48685 16.5115C7.79941 16.8241 8.22334 16.9997 8.66536 16.9997ZM28.6654 0.333008H5.33203C4.00595 0.333008 2.73418 0.859792 1.7965 1.79747C0.858816 2.73516 0.332031 4.00693 0.332031 5.33301V20.333C0.332031 21.6591 0.858816 22.9309 1.7965 23.8685C2.73418 24.8062 4.00595 25.333 5.33203 25.333H28.6654C29.9914 25.333 31.2632 24.8062 32.2009 23.8685C33.1386 22.9309 33.6654 21.6591 33.6654 20.333V5.33301C33.6654 4.00693 33.1386 2.73516 32.2009 1.79747C31.2632 0.859792 29.9914 0.333008 28.6654 0.333008ZM30.332 20.333C30.332 20.775 30.1564 21.199 29.8439 21.5115C29.5313 21.8241 29.1074 21.9997 28.6654 21.9997H5.33203C4.89 21.9997 4.46608 21.8241 4.15352 21.5115C3.84096 21.199 3.66536 20.775 3.66536 20.333V10.333H30.332V20.333ZM30.332 6.99967H3.66536V5.33301C3.66536 4.89098 3.84096 4.46706 4.15352 4.1545C4.46608 3.84194 4.89 3.66634 5.33203 3.66634H28.6654C29.1074 3.66634 29.5313 3.84194 29.8439 4.1545C30.1564 4.46706 30.332 4.89098 30.332 5.33301V6.99967Z" fill="#2873FF"/>
</svg>
