<svg width="173" height="180" viewBox="0 0 173 180" fill="none" xmlns="http://www.w3.org/2000/svg">
<path d="M153.1 114.216L158.634 114.105L161.361 114.055C162.269 114.055 163.168 114.055 164.076 114.055L163.89 114.237L163.869 109.603L164.076 109.806L158.588 109.781C156.756 109.781 154.928 109.736 153.1 109.715L153.212 109.603C153.212 110.362 153.175 111.124 153.158 111.895L153.1 114.216ZM153.1 114.216L153.038 111.924C153.038 111.149 152.993 110.366 152.984 109.582V109.471H153.1C154.928 109.471 156.756 109.404 158.588 109.404L164.076 109.379H164.283V109.591L164.258 114.225V114.411H164.076C163.148 114.411 162.223 114.411 161.299 114.391L158.526 114.333L153.1 114.216Z" fill="#EBEBEB"/>
<path d="M159.222 120.052L164.755 119.941L167.482 119.891C168.39 119.891 169.294 119.891 170.197 119.87L170.011 120.052V115.418L170.218 115.622L164.73 115.597C162.898 115.597 161.07 115.551 159.242 115.53L159.354 115.418C159.354 116.177 159.317 116.94 159.3 117.711L159.222 120.052ZM159.222 120.052L159.164 117.76C159.143 116.985 159.114 116.202 159.105 115.418V115.307H159.222C161.049 115.286 162.877 115.24 164.709 115.24L170.197 115.215H170.404V115.427L170.38 120.052V120.239H170.197C169.273 120.239 168.344 120.239 167.42 120.218L164.66 120.168L159.222 120.052Z" fill="#EBEBEB"/>
<path d="M146.954 120.069H157.93V115.431H146.954V120.069Z" fill="#EBEBEB"/>
<path d="M2.61191 143.152L8.1329 143.04L10.8519 142.99C11.7555 142.99 12.655 142.99 13.5544 142.99L13.372 143.173L13.3472 138.551L13.5544 138.758L8.06658 138.705C6.24283 138.705 4.41908 138.655 2.59533 138.634L2.70724 138.522C2.70724 139.277 2.67408 140.039 2.65336 140.81L2.61191 143.152ZM2.61191 143.152L2.55388 140.868C2.53316 140.093 2.50829 139.314 2.5 138.53V138.419H2.61191C4.43566 138.394 6.25941 138.352 8.08316 138.348L13.5544 138.323H13.7617V138.53V143.152V143.339H13.5793C12.6591 143.339 11.7348 143.339 10.8146 143.318L8.03757 143.264L2.61191 143.152Z" fill="#EBEBEB"/>
<path d="M8.71765 148.984H19.6602V144.358H8.71765V148.984Z" fill="#EBEBEB"/>
<path d="M31.0494 49.946L36.587 49.8299L39.3143 49.7843C40.2179 49.7636 41.1215 49.7843 42.0251 49.7636L41.8427 49.946L41.8178 45.3078L42.0251 45.5151L36.5372 45.4902C34.7093 45.4902 32.8773 45.4446 31.0494 45.4197L31.1613 45.3078C31.1613 46.0663 31.1282 46.8332 31.1074 47.6041L31.0494 49.946ZM31.0494 49.946L30.9914 47.6538C30.9914 46.8787 30.9458 46.0954 30.9375 45.3078V45.1959H31.0494C32.8773 45.1752 34.7093 45.1296 36.5372 45.1296L42.0251 45.1006H42.2323V45.3078L42.2116 49.946V50.1325H42.0292C41.1049 50.1325 40.1765 50.1325 39.2563 50.1076L36.4958 50.062L31.0494 49.946Z" fill="#EBEBEB"/>
<path d="M8.68059 9.85645L19.6562 9.85645V5.21832L8.68059 5.21832V9.85645Z" fill="#EBEBEB"/>
<path d="M2.56137 15.7052L8.09479 15.6016L10.8221 15.556C11.7299 15.556 12.6293 15.556 13.537 15.556L13.3505 15.7384V11.1003L13.5578 11.3075L8.06578 11.2495C6.23374 11.2495 4.40584 11.2039 2.57795 11.179L2.68986 11.0671C2.68986 11.8256 2.65256 12.5883 2.63598 13.3634L2.56137 15.7052ZM2.56137 15.7052L2.4992 13.4131C2.4992 12.638 2.4536 11.8546 2.44531 11.0671V10.9552H2.56137C4.38927 10.9552 6.21716 10.8889 8.0492 10.8847L13.537 10.8599H13.7443V11.0671L13.7194 15.7052V15.8918H13.537C12.6086 15.8918 11.6843 15.8918 10.76 15.8669L7.99946 15.8213L2.56137 15.7052Z" fill="#EBEBEB"/>
<path d="M153.1 9.8566L158.634 9.74055L161.361 9.69495C162.269 9.69495 163.168 9.69495 164.076 9.69495L163.89 9.87733L163.869 5.2392L164.076 5.44644L158.588 5.42157C156.756 5.42157 154.928 5.37598 153.1 5.35111L153.212 5.2392C153.212 5.99771 153.175 6.76037 153.158 7.53547L153.1 9.8566ZM153.1 9.8566L153.038 7.56448C153.038 6.78939 152.993 6.006 152.984 5.21847V5.10656H153.1C154.928 5.10656 156.756 5.04024 158.588 5.0361L164.076 5.01123H164.283V5.2392L164.258 9.87733V10.0638H164.076C163.148 10.0638 162.223 10.0638 161.299 10.039L158.526 9.97266L153.1 9.8566Z" fill="#EBEBEB"/>
<path d="M135.751 67.856H146.727V63.2178H135.751V67.856Z" fill="#EBEBEB"/>
<path d="M111.136 84.1162L170.852 84.1162V5.21829L111.136 5.21829V84.1162Z" fill="#EBEBEB"/>
<path d="M142.187 43.4717H168.047V8.37692H142.187V43.4717Z" fill="white"/>
<path d="M113.933 43.4717H139.793V8.37692H113.933V43.4717Z" fill="white"/>
<path d="M142.187 80.9541H168.047V45.8593H142.187V80.9541Z" fill="white"/>
<path d="M113.933 80.9541H139.793V45.8593H113.933V80.9541Z" fill="white"/>
<path d="M131.086 5.21875H111.133V118.092H122.68L114.623 60.6566L131.086 5.21875Z" fill="#DBDBDB"/>
<path d="M127.628 8.26904L124.474 21.3918L121.258 34.4979L114.82 60.706L114.825 60.6355L117.801 88.025L119.285 101.72L120.702 115.423L119.081 101.745L117.523 88.0581L114.414 60.6811L114.41 60.6438L114.418 60.6065L120.992 34.4316L124.279 21.342L127.628 8.26904Z" fill="#EBEBEB"/>
<path d="M112.321 10.5864L112.42 21.9061L112.478 33.2258L112.528 55.8652L112.478 78.5045L112.42 89.8242L112.321 101.144L112.217 89.8242L112.159 78.5045L112.113 55.8652L112.159 33.2258L112.217 21.9061L112.321 10.5864Z" fill="#EBEBEB"/>
<path d="M116.049 12.7085L115.44 24.7411L114.789 36.7696L113.426 60.8265V60.8099L114.089 87.619L114.379 101.019L114.624 114.428L114.168 101.028L113.757 87.6273L113.02 60.8223V60.8099V60.8058L114.483 36.753L115.249 24.7287L116.049 12.7085Z" fill="#EBEBEB"/>
<path d="M118.648 112.691L117.334 99.7053L116.062 86.7152C115.254 78.0524 114.404 69.3896 113.629 60.7226V60.6687L117.334 40.4458L119.216 30.3364L121.127 20.2354L119.386 30.3655L117.616 40.4956L114.019 60.7392V60.6894C114.848 69.3481 115.61 78.0192 116.41 86.682L117.55 99.6845L118.648 112.691Z" fill="#EBEBEB"/>
<path d="M111.135 62.3433H115.641V59.7113H111.135V62.3433Z" fill="#DBDBDB"/>
<path d="M150.848 5.21875H170.801V118.092H159.253L167.315 60.6566L150.848 5.21875Z" fill="#DBDBDB"/>
<path d="M154.305 8.26904L157.654 21.342L160.941 34.4316L167.514 60.6065L167.523 60.6438L167.519 60.6811L164.41 88.0581L162.851 101.745L161.231 115.423L162.648 101.72L164.136 88.025L167.108 60.6355L167.112 60.706L160.675 34.4979L157.459 21.3918L154.305 8.26904Z" fill="#EBEBEB"/>
<path d="M169.613 10.5864L169.717 21.9061L169.775 33.2258L169.82 55.8652L169.775 78.5045L169.717 89.8242L169.613 101.144L169.514 89.8242L169.456 78.5045L169.41 55.8652L169.456 33.2258L169.514 21.9061L169.613 10.5864Z" fill="#EBEBEB"/>
<path d="M165.887 12.7085L166.691 24.7287L167.453 36.753L168.917 60.8058V60.8099V60.8223L168.179 87.6273L167.768 101.028L167.317 114.428L167.561 101.019L167.847 87.619L168.51 60.8099V60.8265L167.147 36.7696L166.5 24.7411L165.887 12.7085Z" fill="#EBEBEB"/>
<path d="M163.287 112.691L164.385 99.6845L165.529 86.682C166.325 78.0192 167.088 69.3481 167.917 60.6894V60.7392L164.327 40.4956L162.557 30.3655L160.816 20.2354L162.731 30.3364L164.613 40.4458L168.315 60.6687V60.7226C167.535 69.3896 166.69 78.0524 165.877 86.7152L164.609 99.7053L163.287 112.691Z" fill="#EBEBEB"/>
<path d="M170.802 59.7114H166.297V62.3434H170.802V59.7114Z" fill="#DBDBDB"/>
<path d="M29.57 15.8213H6.16797V44.2096H29.57V15.8213Z" fill="#EBEBEB"/>
<path d="M26.895 18.4116H8.83984V41.6188H26.895V18.4116Z" fill="white"/>
<path d="M9.54447 18.4116H8.83984V41.6188H9.54447V18.4116Z" fill="#DBDBDB"/>
<path d="M30.2749 15.8213H29.5703V44.2096H30.2749V15.8213Z" fill="#DBDBDB"/>
<path d="M19.1474 21.6118H14.8906V34.2952H19.1474V21.6118Z" fill="#DBDBDB"/>
<path d="M24.5913 36.666H12.8281V30.0342H24.5913V36.666ZM13.2426 36.2515H24.1768V30.4487H13.2426V36.2515Z" fill="#EBEBEB"/>
<path d="M51.113 51.0942H27.7109V79.4826H51.113V51.0942Z" fill="#EBEBEB"/>
<path d="M48.4418 53.6846H30.3867V76.8918H48.4418V53.6846Z" fill="white"/>
<path d="M31.0914 53.6846H30.3867V76.8918H31.0914V53.6846Z" fill="#DBDBDB"/>
<path d="M51.8179 51.0942H51.1133V79.4826H51.8179V51.0942Z" fill="#DBDBDB"/>
<path d="M41.3116 59.6865H37.6641V68.9089H41.3116V59.6865Z" fill="#EBEBEB"/>
<path d="M45.3697 71.8516H35.1484V65.083H45.3697V71.8516ZM35.5712 71.4371H44.9552V65.4975H35.5629L35.5712 71.4371Z" fill="#DBDBDB"/>
<path d="M40.1142 180C62.2687 180 80.2284 178.28 80.2284 176.158C80.2284 174.036 62.2687 172.315 40.1142 172.315C17.9597 172.315 0 174.036 0 176.158C0 178.28 17.9597 180 40.1142 180Z" fill="#EBEBEB"/>
<path d="M1.20703 167.466L22.5076 167.367L43.8082 167.329L86.4052 167.259L129.002 167.329L150.303 167.367L171.603 167.466L150.303 167.57L129.002 167.607L86.4052 167.673L43.8082 167.607L22.5076 167.57L1.20703 167.466Z" fill="#161A22"/>
<path d="M151.733 130.465C151.733 130.465 147.949 124.662 139.473 125.785C131.419 126.858 126.408 140.968 134.213 143.455C142.018 145.942 141.877 132.429 144.99 130.431C147.282 128.968 150.312 129.615 151.733 130.465Z" fill="#2873FF"/>
<path d="M132.318 133.072C132.903 132.65 133.515 132.266 134.15 131.924C134.751 131.593 135.394 131.346 136.061 131.19C137.101 129.875 138.442 128.829 139.97 128.139L139.725 128.102C139.286 128.042 138.845 128.005 138.403 127.99C137.512 127.97 136.624 128.11 135.783 128.405C135.773 128.408 135.763 128.407 135.753 128.402C135.744 128.398 135.737 128.39 135.733 128.38C135.73 128.37 135.731 128.359 135.736 128.35C135.74 128.34 135.748 128.333 135.758 128.33C136.611 128.054 137.493 127.877 138.386 127.804C138.821 127.766 139.257 127.766 139.692 127.804C139.924 127.828 140.156 127.866 140.384 127.911L140.517 127.936C141.318 127.624 142.152 127.404 143.004 127.281L142.78 127.198C142.383 127.07 141.978 126.963 141.569 126.879C140.752 126.707 139.916 126.641 139.083 126.684C139.033 126.684 139.024 126.606 139.083 126.602C139.925 126.581 140.767 126.626 141.603 126.738C142.307 126.824 143.002 126.981 143.675 127.207C144.184 127.164 144.695 127.154 145.205 127.178C148.106 127.331 151.157 128.711 152.711 131.256C154.265 133.801 154.315 137.009 154.369 139.911C154.475 143.957 154.197 148.004 153.54 151.997C153.498 152.234 153.171 152.159 153.188 151.931C153.399 148.511 153.602 145.092 153.602 141.664C153.602 140.077 153.581 138.481 153.469 136.897C153.405 135.538 153.144 134.195 152.694 132.91C152.195 131.596 151.32 130.457 150.178 129.636C149.029 128.825 147.714 128.28 146.328 128.04C145.094 127.823 143.831 127.823 142.597 128.04C142.616 128.287 142.599 128.535 142.548 128.778C142.493 129.083 142.403 129.381 142.278 129.665C142.164 129.934 142.025 130.192 141.864 130.436C141.686 130.709 141.449 130.945 141.271 131.198C141.238 131.24 141.176 131.198 141.209 131.149C141.596 130.694 141.87 130.154 142.009 129.573C142.085 129.301 142.144 129.024 142.187 128.744C142.22 128.533 142.22 128.33 142.249 128.106C140.895 128.386 139.606 128.918 138.448 129.673C138.229 129.818 138.034 129.967 137.814 130.125C138.062 130.406 138.271 130.72 138.436 131.057C138.68 131.5 138.885 131.963 139.049 132.442C139.315 133.402 139.453 134.393 139.46 135.389C139.46 135.4 139.455 135.41 139.448 135.418C139.44 135.426 139.429 135.43 139.418 135.43C139.407 135.43 139.397 135.426 139.389 135.418C139.381 135.41 139.377 135.4 139.377 135.389C139.316 134.415 139.084 133.46 138.693 132.566C138.515 132.125 138.309 131.696 138.075 131.281C137.955 131.066 137.827 130.867 137.694 130.651C137.624 130.539 137.545 130.427 137.478 130.311C136.412 131.174 135.508 132.22 134.809 133.399C135.158 133.851 135.438 134.353 135.638 134.887C135.884 135.451 136.09 136.031 136.256 136.624C136.553 137.766 136.775 138.926 136.923 140.097C136.923 140.147 136.853 140.155 136.844 140.097C136.704 138.918 136.416 137.76 135.986 136.653C135.787 136.11 135.572 135.575 135.344 135.045C135.103 134.549 134.89 134.039 134.706 133.519C134.038 134.677 133.593 135.949 133.392 137.271C133.392 137.32 133.305 137.308 133.313 137.271C133.666 135.201 134.496 133.243 135.738 131.551C135.207 131.716 134.681 131.878 134.167 132.094C133.512 132.364 132.893 132.717 132.326 133.142C132.322 133.171 132.277 133.101 132.318 133.072Z" fill="#161A22"/>
<path d="M138.374 133.955C138.544 134.784 138.789 135.613 138.93 136.471C139.082 137.29 139.127 138.126 139.062 138.958C139.062 138.978 139.025 138.978 139.025 138.958C138.959 137.278 138.714 135.611 138.296 133.984C138.294 133.979 138.293 133.973 138.293 133.968C138.293 133.962 138.295 133.957 138.297 133.952C138.299 133.947 138.302 133.942 138.306 133.938C138.311 133.935 138.315 133.932 138.32 133.93C138.326 133.928 138.331 133.927 138.337 133.927C138.342 133.927 138.348 133.929 138.353 133.931C138.358 133.933 138.362 133.937 138.366 133.941C138.369 133.945 138.372 133.95 138.374 133.955Z" fill="#161A22"/>
<path d="M133.312 131.426C133.667 131.143 134.062 130.914 134.485 130.747C134.914 130.599 135.355 130.488 135.803 130.415C135.848 130.415 135.861 130.49 135.803 130.494C135.363 130.568 134.936 130.699 134.53 130.883C134.121 131.051 133.723 131.246 133.341 131.468C133.338 131.47 133.335 131.471 133.332 131.472C133.328 131.473 133.325 131.473 133.322 131.472C133.318 131.471 133.315 131.47 133.312 131.468C133.31 131.467 133.307 131.464 133.305 131.462C133.303 131.459 133.302 131.456 133.301 131.453C133.301 131.449 133.301 131.446 133.301 131.443C133.302 131.439 133.303 131.436 133.305 131.434C133.307 131.431 133.309 131.428 133.312 131.426Z" fill="#161A22"/>
<path d="M147.632 123.717C147.632 123.717 146.837 113.972 139.591 110.814C133.54 108.174 130.058 114.959 134.352 119.137C137.801 122.502 143.363 120.985 147.632 123.717Z" fill="#2873FF"/>
<path d="M135.698 112.7C136.8 113.146 137.875 113.655 138.918 114.225C139.781 114.725 140.611 115.279 141.405 115.883C141.285 115.638 141.181 115.377 141.057 115.137C140.871 114.76 140.667 114.395 140.444 114.034C139.997 113.298 139.461 112.62 138.848 112.016C138.811 111.978 138.869 111.925 138.906 111.962C139.517 112.568 140.078 113.222 140.585 113.918C140.835 114.272 141.065 114.64 141.273 115.021C141.487 115.369 141.65 115.745 141.758 116.14L141.84 116.202C143.106 117.209 144.266 118.342 145.301 119.584C145.281 119.489 145.26 119.394 145.235 119.307C145.098 118.83 144.953 118.362 144.796 117.889C144.486 116.889 144.045 115.935 143.486 115.05C143.482 115.041 143.482 115.03 143.486 115.021C143.489 115.012 143.495 115.004 143.504 114.999C143.512 114.994 143.522 114.992 143.532 114.994C143.541 114.996 143.55 115.001 143.556 115.008C144.126 115.896 144.633 116.823 145.073 117.781C145.274 118.25 145.441 118.732 145.575 119.224C145.68 119.543 145.759 119.87 145.811 120.202C146.126 120.616 146.437 121.006 146.727 121.42C149.84 125.851 151.399 131.207 151.776 136.566C151.885 138.163 151.911 139.765 151.855 141.366C151.845 142.981 151.707 144.593 151.44 146.186C151.419 146.286 151.262 146.257 151.266 146.157C151.299 144.748 151.448 143.347 151.473 141.938C151.5 140.526 151.454 139.113 151.336 137.706C151.107 134.894 150.578 132.115 149.757 129.416C148.921 126.653 147.687 124.027 146.093 121.619C145.786 121.561 145.484 121.478 145.185 121.4C144.887 121.321 144.46 121.213 144.099 121.114C143.404 120.933 142.728 120.684 142.081 120.372C142.072 120.366 142.066 120.358 142.063 120.347C142.061 120.337 142.063 120.327 142.068 120.318C142.074 120.309 142.083 120.303 142.093 120.301C142.103 120.298 142.114 120.3 142.122 120.305C142.761 120.653 143.453 120.891 144.17 121.01C144.738 121.122 145.326 121.197 145.894 121.329C145.373 120.561 144.811 119.821 144.211 119.112C142.829 119.24 141.435 119.137 140.087 118.805C139.371 118.632 138.666 118.413 137.977 118.15C137.252 117.868 136.564 117.512 135.851 117.209C135.797 117.189 135.851 117.11 135.88 117.139C137.179 117.845 138.597 118.309 140.062 118.507C141.355 118.714 142.662 118.822 143.971 118.83C143.457 118.237 142.922 117.665 142.354 117.122C140.452 115.311 138.21 113.645 135.685 112.778C135.623 112.762 135.648 112.679 135.698 112.7Z" fill="#161A22"/>
<path d="M141.589 112.729C141.916 113.142 142.214 113.577 142.481 114.03C142.749 114.509 142.963 115.017 143.119 115.543C143.119 115.543 143.098 115.568 143.09 115.543C142.845 115.067 142.642 114.569 142.398 114.097C142.16 113.626 141.869 113.184 141.531 112.779C141.502 112.746 141.56 112.692 141.589 112.729Z" fill="#161A22"/>
<path d="M134.857 115.974C135.327 116.235 135.825 116.443 136.341 116.596C136.837 116.762 137.342 116.901 137.854 117.01C137.878 117.01 137.874 117.056 137.854 117.052C137.32 116.996 136.795 116.88 136.287 116.708C135.784 116.521 135.294 116.302 134.819 116.053C134.77 116.02 134.811 115.949 134.857 115.974Z" fill="#161A22"/>
<path d="M152.87 122.283C152.916 122.697 153.964 118.743 160.09 115.236C165.657 112.045 172.297 103.738 166.843 98.4951C162.436 94.2507 150.835 103.473 152.87 122.283Z" fill="#2873FF"/>
<path d="M148.648 144.984C148.739 140.861 149.064 136.747 149.622 132.661C150.107 128.908 150.974 125.214 152.209 121.636C152.665 120.347 153.187 119.083 153.751 117.831C153.719 117.346 153.728 116.86 153.776 116.376C153.809 115.75 153.863 115.133 153.921 114.507C153.979 113.881 154.041 113.263 154.115 112.642C154.19 112.02 154.323 111.398 154.348 110.785C154.348 110.727 154.439 110.739 154.426 110.785C154.303 111.436 154.23 112.095 154.207 112.758C154.157 113.359 154.124 113.96 154.103 114.561C154.082 115.162 154.103 115.767 154.103 116.372C154.103 116.588 154.103 116.82 154.103 117.052C154.679 115.833 155.297 114.635 155.968 113.466C155.554 110.926 156.093 108.273 156.611 105.79C156.611 105.74 156.698 105.761 156.685 105.811C156.427 107.108 156.288 108.426 156.271 109.748C156.246 110.793 156.296 111.821 156.3 112.878C156.445 112.629 156.594 112.376 156.743 112.132C157.539 110.834 158.401 109.562 159.288 108.327C159.214 107.725 159.234 107.115 159.346 106.52C159.448 105.85 159.596 105.188 159.79 104.538C159.989 103.892 160.204 103.253 160.47 102.628C160.735 102.002 161.087 101.384 161.344 100.725C161.365 100.671 161.448 100.725 161.415 100.758C161.09 101.37 160.833 102.014 160.648 102.681C160.447 103.308 160.28 103.944 160.146 104.588C160.018 105.231 159.914 105.877 159.823 106.532C159.761 106.946 159.723 107.407 159.649 107.842C160.962 106.087 162.395 104.425 163.939 102.868C163.976 102.831 164.03 102.889 163.993 102.926C161.661 105.55 159.579 108.387 157.775 111.398C157.705 111.51 157.643 111.626 157.576 111.742C157.916 111.527 158.302 111.361 158.621 111.183C159.214 110.855 159.806 110.528 160.407 110.204L162.14 109.255C162.438 109.089 162.733 108.915 163.035 108.762C163.396 108.599 163.743 108.407 164.071 108.186C164.117 108.153 164.167 108.223 164.117 108.252C163.528 108.575 163.006 109.056 162.438 109.421C161.87 109.786 161.286 110.138 160.689 110.47C159.599 111.075 158.418 111.514 157.344 112.128C156.602 113.429 155.918 114.768 155.272 116.127C155.923 115.713 156.586 115.298 157.261 114.938C157.697 114.693 158.132 114.453 158.571 114.221C159.012 114.02 159.43 113.769 159.815 113.475C159.852 113.442 159.906 113.5 159.868 113.533C159.155 114.175 158.364 114.725 157.514 115.17C156.727 115.63 155.931 116.074 155.114 116.476C154.459 117.91 153.871 119.377 153.34 120.861C150.762 128.164 149.813 135.915 149.361 143.612C149.229 145.908 149.158 148.201 149.129 150.501C149.1 152.801 149.22 155.089 149.216 157.381C149.216 157.452 149.104 157.469 149.096 157.381C148.818 155.346 148.773 153.274 148.681 151.226C148.59 149.179 148.603 147.069 148.648 144.984Z" fill="#161A22"/>
<path d="M159.769 111.925C160.888 111.432 161.974 110.87 163.023 110.242C164.088 109.643 165.12 108.989 166.115 108.281C166.115 108.281 166.152 108.281 166.136 108.306C165.198 109.067 164.206 109.76 163.168 110.379C162.083 110.987 160.96 111.526 159.807 111.991C159.769 112.016 159.732 111.945 159.769 111.925Z" fill="#161A22"/>
<path d="M158.009 103.672C158.096 103.316 158.212 102.963 158.328 102.619C158.323 102.613 158.321 102.606 158.321 102.599C158.321 102.591 158.323 102.584 158.328 102.578C158.402 102.379 158.485 102.184 158.564 101.989L158.593 101.919C158.611 101.881 158.626 101.842 158.639 101.803C158.639 101.803 158.664 101.803 158.659 101.803C158.655 101.803 158.622 101.94 158.601 102.006C158.592 102.044 158.581 102.081 158.568 102.118C158.163 103.475 157.86 104.86 157.661 106.263C157.661 106.304 157.586 106.308 157.586 106.263C157.645 105.388 157.787 104.52 158.009 103.672Z" fill="#161A22"/>
<path d="M151.766 132.835C153.9 126.204 158.725 122.266 164.93 123.178C171.135 124.09 173.24 132.255 169.095 134.974C164.951 137.693 159.633 132.214 157.108 131.293C154.584 130.373 151.766 132.835 151.766 132.835Z" fill="#2873FF"/>
<path d="M151.2 149.767C151.109 149.017 151.034 148.267 150.951 147.513C150.794 146.012 150.628 144.512 150.471 143.011C150.185 140.267 150.098 137.544 150.885 134.867C151.556 132.436 152.951 130.267 154.885 128.649C155.603 128.062 156.398 127.575 157.248 127.203C157.935 126.278 158.875 125.573 159.954 125.172C161.294 124.695 162.706 124.458 164.128 124.471C164.178 124.471 164.186 124.546 164.128 124.55C162.779 124.563 161.446 124.845 160.207 125.379C159.675 125.608 159.17 125.893 158.698 126.229C158.404 126.447 158.127 126.686 157.869 126.946C159.035 126.525 160.277 126.359 161.513 126.461C161.958 126.502 162.399 126.581 162.831 126.697C163.147 126.578 163.477 126.503 163.813 126.473C164.25 126.423 164.69 126.423 165.127 126.473C166.023 126.591 166.899 126.833 167.73 127.19C167.738 127.196 167.744 127.204 167.747 127.213C167.749 127.223 167.749 127.233 167.745 127.241C167.741 127.25 167.734 127.258 167.725 127.262C167.716 127.266 167.706 127.267 167.697 127.265C166.887 126.961 166.039 126.772 165.177 126.705C164.763 126.673 164.347 126.673 163.933 126.705C163.703 126.725 163.475 126.76 163.249 126.809C165.057 127.349 166.615 128.512 167.647 130.092C167.672 130.137 167.61 130.183 167.581 130.141C166.972 129.226 166.165 128.46 165.219 127.9C164.273 127.34 163.213 127.001 162.118 126.908C161.981 126.908 161.844 126.908 161.703 126.888C161.763 127.093 161.81 127.302 161.844 127.514C161.927 127.808 162.022 128.102 162.126 128.392C162.336 128.989 162.584 129.572 162.868 130.137C163.153 130.711 163.477 131.265 163.838 131.795C164.191 132.361 164.608 132.884 165.081 133.354C165.123 133.391 165.061 133.449 165.023 133.408C164.588 132.898 164.095 132.442 163.689 131.907C163.296 131.396 162.943 130.855 162.632 130.291C162.319 129.717 162.053 129.12 161.836 128.504C161.724 128.181 161.625 127.849 161.537 127.518C161.469 127.321 161.427 127.116 161.413 126.908C160.698 126.901 159.984 126.987 159.291 127.165C159.768 128.608 160.269 130.108 161.285 131.277C161.318 131.314 161.251 131.368 161.218 131.323C160.732 130.698 160.29 130.04 159.896 129.354C159.52 128.687 159.24 127.969 159.067 127.223C157.866 127.559 156.74 128.122 155.751 128.881C153.885 130.352 152.515 132.36 151.826 134.634C151.103 137.078 150.87 139.64 151.142 142.174C151.395 145.374 151.809 148.57 151.942 151.778C151.942 151.985 151.635 152.101 151.561 151.873C151.374 151.184 151.254 150.479 151.2 149.767Z" fill="#161A22"/>
<path d="M155.211 128.106C155.376 127.837 155.576 127.592 155.808 127.377C156.023 127.134 156.251 126.903 156.492 126.685C156.962 126.25 157.503 125.898 158.092 125.644C158.137 125.624 158.17 125.698 158.121 125.719C157.527 125.96 156.992 126.325 156.55 126.788C156.323 127.012 156.108 127.244 155.903 127.485C155.724 127.732 155.519 127.962 155.294 128.168C155.269 128.202 155.211 128.156 155.211 128.106Z" fill="#161A22"/>
<path d="M165.179 128.981C165.766 129.489 166.32 130.034 166.837 130.614C167.341 131.198 167.784 131.833 168.159 132.508C168.159 132.529 168.159 132.545 168.126 132.529C167.242 131.278 166.244 130.111 165.146 129.043C165.092 129.01 165.158 128.947 165.179 128.981Z" fill="#161A22"/>
<path d="M158.6 129.292C158.719 129.67 158.887 130.032 159.102 130.365C159.316 130.688 159.556 130.993 159.819 131.277C159.819 131.298 159.819 131.323 159.785 131.31C159.186 130.783 158.754 130.091 158.542 129.321C158.525 129.275 158.583 129.242 158.6 129.292Z" fill="#161A22"/>
<path d="M142.18 146.464L142.615 151.645L143.954 167.449H158.291L159.626 151.645L160.065 146.464H142.18Z" fill="#455A64"/>
<path d="M142.18 146.464L142.615 151.645H159.626L160.065 146.464H142.18Z" fill="#161A22"/>
<path d="M140.769 149.357H161.469V144.387H140.769V149.357Z" fill="#455A64"/>
<path d="M121.434 8.60059H51.3854C50.4455 8.60871 49.5165 8.80196 48.6513 9.16927C47.7862 9.53659 47.0019 10.0708 46.3433 10.7413C45.6847 11.4119 45.1647 12.2056 44.813 13.0772C44.4612 13.9488 44.2847 14.8811 44.2935 15.821V160.063C44.2825 161.003 44.4568 161.936 44.8065 162.809C45.1561 163.681 45.6743 164.477 46.3313 165.149C46.9883 165.821 47.7713 166.358 48.6357 166.728C49.5 167.097 50.4287 167.293 51.3688 167.304H121.417C123.316 167.288 125.131 166.518 126.462 165.164C127.794 163.81 128.533 161.983 128.518 160.084V15.8417C128.528 14.901 128.354 13.9673 128.004 13.0941C127.654 12.2209 127.135 11.4253 126.477 10.7528C125.819 10.0802 125.035 9.54399 124.17 9.17471C123.304 8.80542 122.375 8.61033 121.434 8.60059ZM124.099 155.607C124.099 159.404 121.256 162.475 117.749 162.475H55.066C51.547 162.475 48.7078 159.404 48.7078 155.607V21.2881C48.7078 13.5537 51.547 13.1765 55.066 13.1765H67.6209C68.3504 13.1765 68.9472 14.0055 68.9472 15.0334V15.477C68.9472 17.8851 70.2653 17.8934 71.886 17.8934H100.9C102.558 17.8934 103.839 17.8934 103.839 15.477V15.0334C103.839 14.0055 104.427 13.1765 105.174 13.1765H117.728C121.235 13.1765 124.078 14.2045 124.078 21.2881L124.099 155.607Z" fill="#161A22"/>
<path d="M90.3631 14.884H82.4422C82.3125 14.884 82.1881 14.8324 82.0964 14.7407C82.0047 14.649 81.9531 14.5246 81.9531 14.3949C81.9531 14.2651 82.0047 14.1407 82.0964 14.049C82.1881 13.9573 82.3125 13.9058 82.4422 13.9058H90.3631C90.4928 13.9058 90.6172 13.9573 90.709 14.049C90.8007 14.1407 90.8522 14.2651 90.8522 14.3949C90.8522 14.5246 90.8007 14.649 90.709 14.7407C90.6172 14.8324 90.4928 14.884 90.3631 14.884Z" fill="white"/>
<path d="M124.098 21.2878V155.607C124.098 159.404 121.255 162.475 117.748 162.475H55.0653C51.5463 162.475 48.707 159.404 48.707 155.607V21.2878C48.707 13.5535 51.5463 13.1763 55.0653 13.1763H67.6201C68.3496 13.1763 68.9465 14.0052 68.9465 15.0332V15.4767C68.9465 17.8849 70.2646 17.8931 71.8852 17.8931H100.899C102.557 17.8931 103.838 17.8931 103.838 15.4767V15.0332C103.838 14.0052 104.427 13.1763 105.173 13.1763H117.728C121.255 13.1763 124.098 14.2042 124.098 21.2878Z" fill="white"/>
<path d="M121.983 14.3577H103.953C104.148 13.6738 104.625 13.1888 105.197 13.1888H117.76C119.376 13.1722 120.86 13.3961 121.983 14.3577Z" fill="#DBDBDB"/>
<path d="M48.707 148.988V150.774H54.9492V148.988H48.707ZM124.098 38.3983L103.813 59.8937H94.479V42.1287H98.1887V40.3298H92.6801V59.8895H82.5625V17.8936H78.973V30.4774H48.7153V34.0669H78.973V59.8937H49.6521V66.94H48.707V68.7389H49.6521V95.4278L55.0404 107.771H48.707V111.361H56.6196L60.8433 121.014C58.2283 122.147 56.0674 124.123 54.7042 126.625C53.3411 129.128 52.8541 132.015 53.3206 134.827C53.7871 137.638 55.1804 140.213 57.2788 142.141C59.3772 144.07 62.0603 145.241 64.9011 145.469L73.6841 159.843L71.0355 162.492H79.516L68.9299 145.2C70.6952 144.775 72.3498 143.98 73.7837 142.866C75.2175 141.752 76.3976 140.346 77.2454 138.74C78.0932 137.135 78.5893 135.367 78.7007 133.555C78.812 131.743 78.5361 129.928 77.8912 128.23L102.943 116.314H124.082V112.729H114.064L93.0366 89.8654H124.09V88.0706H91.3786L68.7641 63.4832H105.339L117.699 50.377L124.082 56.7602V51.6868L120.169 47.7699L124.082 43.625L124.098 38.3983ZM65.9373 141.954C64.1172 141.955 62.3378 141.416 60.824 140.405C59.3103 139.395 58.1302 137.958 57.4332 136.277C56.7361 134.595 56.5533 132.745 56.9078 130.96C57.2624 129.175 58.1385 127.535 59.4252 126.247C60.7119 124.96 62.3514 124.083 64.1365 123.728C65.9216 123.373 67.7719 123.555 69.4535 124.251C71.1352 124.947 72.5725 126.127 73.5838 127.64C74.5951 129.153 75.1348 130.932 75.1348 132.753C75.1326 135.192 74.163 137.53 72.4388 139.255C70.7145 140.98 68.3764 141.951 65.9373 141.954ZM109.202 112.712H102.155L76.1545 125.068C74.962 123.485 73.4186 122.201 71.6457 121.317C69.8728 120.432 67.9187 119.971 65.9373 119.97C65.4039 119.971 64.8711 120.005 64.3415 120.069L53.2457 94.6817V63.4832H63.898L109.202 112.712ZM111.871 162.475H114.412L124.111 152.772V150.231L111.871 162.475Z" fill="#EBEBEB"/>
<path d="M61.5348 66.2021H56.3164V71.4206H61.5348V66.2021Z" fill="#DBDBDB"/>
<path d="M110.524 86.2052V76.1331H106.86V71.9219H100.406V86.2052H110.524Z" fill="#DBDBDB"/>
<path d="M92.6292 17.8936V28.0237H87.1662V21.8561H84.2109V17.8936H92.6292Z" fill="#DBDBDB"/>
<path d="M124.098 21.284V24.7781H119.539V15.9868H123.211C123.775 17.1888 124.098 18.8924 124.098 21.284Z" fill="#DBDBDB"/>
<path d="M95.8945 58.3721V50.8823H109.929L102.348 58.4633L95.8945 58.3721Z" fill="#DBDBDB"/>
<path d="M91.2692 51.4131H84.2188V58.4635H91.2692V51.4131Z" fill="#DBDBDB"/>
<path d="M77.2858 35.4717H68.793V43.2848H77.2858V35.4717Z" fill="#DBDBDB"/>
<path d="M77.2921 44.8184V58.4633H66.9009L60.2773 51.8398V44.8184H77.2921Z" fill="#DBDBDB"/>
<path d="M58.4037 53.3447L63.6221 58.5631H49.6953V53.3447H58.4037Z" fill="#DBDBDB"/>
<path d="M57.6558 119.277H48.707V112.994H55.1233L57.6558 119.277Z" fill="#DBDBDB"/>
<path d="M55.2186 143.496V146.513H48.707V133.092H50.4852C50.9816 136.957 52.6311 140.583 55.2186 143.496Z" fill="#DBDBDB"/>
<path d="M86.4047 117.425L80.9458 105.632H74.314L62.957 110.9L65.9248 117.379H65.9496C69.982 117.375 73.8536 118.959 76.7263 121.789L86.4047 117.425Z" fill="#DBDBDB"/>
<path d="M124.098 102.739V110.569H115.559L108.355 102.739H124.098Z" fill="#DBDBDB"/>
<path d="M70.469 159.167L67.3437 162.483H55.0624C54.6061 162.482 54.1515 162.429 53.707 162.326V158.595H59.0208V150.372L63.0206 147.006L70.469 159.167Z" fill="#DBDBDB"/>
<path d="M95.7559 145.336L84.9792 134.104L80.8343 137.332C80.2284 139.293 79.2418 141.115 77.931 142.694C76.6202 144.273 75.011 145.578 73.1953 146.534L82.2021 161.257L95.7559 145.336Z" fill="#DBDBDB"/>
<path d="M84.0234 129.167L102.945 119.812H112.383V136.267L97.6684 143.533L84.0234 129.167Z" fill="#DBDBDB"/>
<path d="M124.092 155.91C123.964 159.226 121.655 161.928 118.683 162.401H117.602L124.092 155.91Z" fill="#DBDBDB"/>
<path d="M56.3164 73.5967V94.2755L62.0861 108.393L72.6141 103.175H97.1726L69.6339 73.5967H56.3164Z" fill="#2873FF"/>
<path d="M116.209 44.0186H95.8945V49.1085H111.409L116.209 44.0186Z" fill="#DBDBDB"/>
<path d="M52.3338 106.088H48.707V97.6865L52.3338 106.088Z" fill="#DBDBDB"/>
<path d="M124.098 119.812H114.996V130.572H124.098V119.812Z" fill="#DBDBDB"/>
<path d="M124.098 132.251H114.996V136.027H124.098V132.251Z" fill="#DBDBDB"/>
<path d="M112.735 158.832L109.092 162.475H85.1719L97.8345 147.011L112.735 158.832Z" fill="#DBDBDB"/>
<path d="M114.039 157.054L120.186 151.156L112.729 144.665V138.829L99.5898 145.523L114.039 157.054Z" fill="#2873FF"/>
<path d="M124.098 137.693V146.845L121.661 149.137L114.996 143.533V137.693H124.098Z" fill="#DBDBDB"/>
<path d="M51.0451 152.826V160.929C50.3007 160.258 49.7074 159.437 49.3044 158.52C48.9014 157.602 48.6979 156.609 48.7073 155.607V152.826H51.0451Z" fill="#DBDBDB"/>
<path d="M56.8737 153.676H53.707V156.842H56.8737V153.676Z" fill="#DBDBDB"/>
<path d="M76.7424 17.8934V28.3261H56.6562V16.3847L60.1504 13.1724H67.6112C68.3365 13.1724 68.9334 14.0013 68.9334 15.0334V15.4769C68.9334 17.8851 70.2556 17.8934 71.8721 17.8934H76.7424Z" fill="#DBDBDB"/>
<path d="M54.9575 21.918H48.707V28.3177H54.9575V21.918Z" fill="#DBDBDB"/>
<path d="M54.9595 16.687V20.264H48.7422C48.7632 19.0557 48.9316 17.8545 49.2437 16.687H54.9595Z" fill="#DBDBDB"/>
<path d="M58.2664 13.1724L56.0572 15.2448H49.8398C50.9838 13.3174 52.8988 13.1724 55.0665 13.1724H58.2664Z" fill="#DBDBDB"/>
<path d="M98.332 92.0371L106.862 100.994H114.999V92.0371H98.332Z" fill="#DBDBDB"/>
<path d="M124.099 96.8784H116.688V100.998H124.099V96.8784Z" fill="#DBDBDB"/>
<path d="M121.044 92.0371H116.688V95.7799H121.044V92.0371Z" fill="#DBDBDB"/>
<path d="M124.098 92.0371H122.129V95.7799H124.098V92.0371Z" fill="#DBDBDB"/>
<path d="M83.5039 105.632H97.1737V112.169L88.4322 116.135L83.5039 105.632Z" fill="#DBDBDB"/>
<path d="M65.943 138.941C69.331 138.941 72.0775 136.194 72.0775 132.806C72.0775 129.418 69.331 126.672 65.943 126.672C62.5551 126.672 59.8086 129.418 59.8086 132.806C59.8086 136.194 62.5551 138.941 65.943 138.941Z" fill="#2873FF"/>
<path d="M51.9898 35.4717H48.707V40.1844H51.9898V35.4717Z" fill="#DBDBDB"/>
<path d="M58.2504 51.6453V35.4761H53.2433V48.4744H49.6953V51.6453H58.2504Z" fill="#DBDBDB"/>
<path d="M67.3692 35.4717H60.2773V42.8496H67.3692V35.4717Z" fill="#DBDBDB"/>
<path d="M51.9898 41.0923H48.707V47.0485H51.9898V41.0923Z" fill="#DBDBDB"/>
<path d="M122.587 76.1333H112.051V86.2095H122.587V76.1333Z" fill="#DBDBDB"/>
<path d="M73.5781 65.2817L84.5704 77.2439H98.3687V65.2817H73.5781Z" fill="#DBDBDB"/>
<path d="M86.1367 78.624L93.1126 86.2092H98.331V78.624H86.1367Z" fill="#DBDBDB"/>
<path d="M106.856 65.2817H100.406V70.2763H106.856V65.2817Z" fill="#DBDBDB"/>
<path d="M122.59 70.0691V58.8365L117.492 53.3486L108.605 62.8777V73.7746H119.142V70.0691H122.59Z" fill="#2873FF"/>
<path d="M124.099 46.4268V49.4401L122.645 48.0143L124.099 46.4268Z" fill="#DBDBDB"/>
<path d="M124.097 26.415V35.6789L117.979 42.3977H109.926V26.415H124.097Z" fill="#DBDBDB"/>
<path d="M108.057 32.2676H100.219V42.3977H108.057V32.2676Z" fill="#2873FF"/>
<path d="M117.98 15.9868V24.7781H108.053V30.9955H100.219V17.8935H100.911C102.416 17.8935 103.647 17.8935 103.812 15.9868H117.98Z" fill="#DBDBDB"/>
<path d="M99.2106 17.8936H93.5859V24.5668H99.2106V17.8936Z" fill="#DBDBDB"/>
<path d="M99.2149 29.1177H84.2188V36.4914H99.2149V29.1177Z" fill="#DBDBDB"/>
<path d="M99.2147 25.6318H93.5859V28.0234H99.2147V25.6318Z" fill="#DBDBDB"/>
<path d="M91.2692 50.004H87.1699L84.2188 47.2021V39.0532H91.2692V50.004Z" fill="#DBDBDB"/>
<path d="M65.4532 16.1941C65.4111 16.2321 65.371 16.2722 65.333 16.3143L65.2625 16.3806C64.9519 16.0718 64.5317 15.8985 64.0937 15.8985C63.6557 15.8985 63.2354 16.0718 62.9248 16.3806L62.8585 16.3101L62.7383 16.1899L62.8916 16.0532C63.0016 15.9652 63.1212 15.8901 63.2481 15.8293C63.3959 15.7547 63.5536 15.7017 63.7165 15.6718C63.7946 15.6567 63.8735 15.6457 63.9527 15.6387H64.16H64.3175C64.4592 15.6573 64.5982 15.692 64.732 15.7423C64.8338 15.7794 64.9322 15.8252 65.0263 15.8791C65.1246 15.9354 65.2175 16.0006 65.304 16.0739L65.4325 16.1899L65.4532 16.1941Z" fill="#A6A6A6"/>
<path d="M63.3079 16.7619L63.1172 16.5712C63.3277 16.3601 63.6012 16.2234 63.8964 16.1816C64.1088 16.1485 64.3261 16.1667 64.5301 16.2344C64.7341 16.3022 64.919 16.4176 65.0694 16.5712C65.0073 16.6334 64.9451 16.6997 64.8788 16.7619C64.7767 16.658 64.6547 16.5759 64.5201 16.5203C64.3854 16.4648 64.241 16.437 64.0954 16.4386C63.9492 16.4373 63.8043 16.4653 63.669 16.5208C63.5338 16.5763 63.411 16.6583 63.3079 16.7619Z" fill="#A6A6A6"/>
<path d="M64.6869 16.9527L64.4962 17.1434C64.4415 17.0898 64.3767 17.0475 64.3055 17.019C64.2344 16.9906 64.1583 16.9765 64.0817 16.9776C64.0047 16.9761 63.9282 16.9904 63.8569 17.0196C63.7856 17.0489 63.721 17.0924 63.6672 17.1475L63.4766 16.9569C63.5538 16.8738 63.6473 16.8074 63.7513 16.7619C63.8552 16.7165 63.9674 16.6928 64.0808 16.6924C64.1943 16.692 64.3066 16.7149 64.4109 16.7597C64.5151 16.8045 64.609 16.8702 64.6869 16.9527Z" fill="#A6A6A6"/>
<path d="M64.262 17.3175C64.2625 17.3401 64.2586 17.3627 64.2503 17.3838C64.242 17.4049 64.2295 17.4241 64.2137 17.4403C64.1979 17.4565 64.1789 17.4694 64.1581 17.4782C64.1372 17.487 64.1147 17.4915 64.0921 17.4915C64.0692 17.4915 64.0466 17.487 64.0254 17.4783C64.0043 17.4695 63.9851 17.4567 63.969 17.4405C63.9528 17.4244 63.94 17.4052 63.9312 17.3841C63.9225 17.3629 63.918 17.3403 63.918 17.3175C63.918 17.2948 63.9225 17.2723 63.9313 17.2514C63.9401 17.2306 63.953 17.2116 63.9692 17.1958C63.9854 17.18 64.0046 17.1675 64.0257 17.1592C64.0468 17.1509 64.0694 17.147 64.0921 17.1475C64.1371 17.1475 64.1804 17.1654 64.2122 17.1973C64.2441 17.2292 64.262 17.2724 64.262 17.3175Z" fill="#A6A6A6"/>
<path d="M53.6211 16.5587C53.6211 16.4595 53.6505 16.3625 53.7056 16.28C53.7607 16.1975 53.8391 16.1333 53.9307 16.0953C54.0224 16.0573 54.1232 16.0474 54.2205 16.0668C54.3178 16.0861 54.4071 16.1339 54.4773 16.204C54.5474 16.2742 54.5952 16.3635 54.6145 16.4608C54.6339 16.5581 54.624 16.6589 54.586 16.7506C54.548 16.8422 54.4838 16.9206 54.4013 16.9757C54.3188 17.0308 54.2218 17.0602 54.1226 17.0602C54.0566 17.0607 53.9912 17.0481 53.9301 17.0231C53.869 16.9981 53.8135 16.9612 53.7668 16.9145C53.7201 16.8678 53.6832 16.8123 53.6582 16.7512C53.6332 16.6901 53.6206 16.6247 53.6211 16.5587Z" fill="#A6A6A6"/>
<path d="M55.1953 16.5587C55.1953 16.4595 55.2247 16.3625 55.2799 16.28C55.335 16.1975 55.4133 16.1333 55.5049 16.0953C55.5966 16.0573 55.6974 16.0474 55.7947 16.0668C55.892 16.0861 55.9814 16.1339 56.0515 16.204C56.1216 16.2742 56.1694 16.3635 56.1888 16.4608C56.2081 16.5581 56.1982 16.6589 56.1602 16.7506C56.1223 16.8422 56.058 16.9206 55.9755 16.9757C55.893 17.0308 55.7961 17.0602 55.6969 17.0602C55.6308 17.0607 55.5654 17.0481 55.5043 17.0231C55.4432 16.9981 55.3877 16.9612 55.341 16.9145C55.2943 16.8678 55.2574 16.8123 55.2324 16.7512C55.2074 16.6901 55.1948 16.6247 55.1953 16.5587Z" fill="#A6A6A6"/>
<path d="M56.7695 16.5586C56.7696 16.4593 56.7991 16.3621 56.8544 16.2796C56.9097 16.197 56.9882 16.1327 57.0801 16.0949C57.172 16.0571 57.2731 16.0474 57.3705 16.0671C57.4679 16.0868 57.5572 16.1349 57.6272 16.2055C57.6972 16.2761 57.7446 16.3658 57.7635 16.4634C57.7824 16.5609 57.7718 16.6619 57.7332 16.7535C57.6946 16.845 57.6297 16.9231 57.5467 16.9777C57.4637 17.0323 57.3663 17.061 57.2669 17.0602C57.2013 17.0602 57.1363 17.0472 57.0756 17.0219C57.015 16.9967 56.96 16.9597 56.9138 16.913C56.8675 16.8664 56.831 16.8111 56.8062 16.7503C56.7815 16.6894 56.769 16.6243 56.7695 16.5586Z" fill="#A6A6A6"/>
<path d="M58.3438 16.5586C58.3438 16.4593 58.3733 16.3621 58.4286 16.2796C58.4839 16.197 58.5625 16.1327 58.6543 16.0949C58.7462 16.0571 58.8473 16.0474 58.9447 16.0671C59.0421 16.0868 59.1314 16.1349 59.2014 16.2055C59.2714 16.2761 59.3188 16.3658 59.3377 16.4634C59.3566 16.5609 59.346 16.6619 59.3075 16.7535C59.2689 16.845 59.2039 16.9231 59.1209 16.9777C59.0379 17.0323 58.9405 17.061 58.8412 17.0602C58.7755 17.0602 58.7105 17.0472 58.6498 17.0219C58.5892 16.9967 58.5342 16.9597 58.488 16.913C58.4417 16.8664 58.4052 16.8111 58.3804 16.7503C58.3557 16.6894 58.3432 16.6243 58.3438 16.5586Z" fill="#A6A6A6"/>
<path d="M59.9141 16.5587C59.9141 16.4595 59.9435 16.3625 59.9986 16.28C60.0537 16.1975 60.132 16.1333 60.2237 16.0953C60.3153 16.0573 60.4162 16.0474 60.5135 16.0668C60.6107 16.0861 60.7001 16.1339 60.7702 16.204C60.8404 16.2742 60.8882 16.3635 60.9075 16.4608C60.9269 16.5581 60.9169 16.6589 60.879 16.7506C60.841 16.8422 60.7767 16.9206 60.6943 16.9757C60.6118 17.0308 60.5148 17.0602 60.4156 17.0602C60.3496 17.0607 60.2841 17.0481 60.223 17.0231C60.1619 16.9981 60.1064 16.9612 60.0597 16.9145C60.0131 16.8678 59.9761 16.8123 59.9511 16.7512C59.9261 16.6901 59.9135 16.6247 59.9141 16.5587Z" fill="#A6A6A6"/>
<path d="M118.335 15.8706H114.477V17.5493H118.335V15.8706Z" fill="#A6A6A6"/>
<path d="M118.445 17.6489H114.375V15.7671H118.445V17.6489ZM114.582 17.4416H118.238V15.9743H114.591L114.582 17.4416Z" fill="white"/>
<path d="M117.339 16.0864H114.715V17.3299H117.339V16.0864Z" fill="#A6A6A6"/>
<path d="M118.806 16.2021H118.445V17.2094H118.806V16.2021Z" fill="#A6A6A6"/>
<path d="M89.9456 121.014L89.6099 120.259L103.545 114.067H112.175L63.8867 61.344H80.4082V30.3071H81.2372V62.173H65.7685L114.056 114.896H103.723L89.9456 121.014Z" fill="#2873FF"/>
<path d="M83.6242 25.4204C83.504 24.0194 82.5175 22.6475 80.8222 22.6475C79.127 22.6475 78.1654 24.0401 78.0244 25.4411C77.813 27.6006 79.2679 29.5611 80.8222 31.3476C82.3807 29.5404 83.8397 27.5799 83.6242 25.4204ZM80.8222 26.9747C80.5191 26.9739 80.223 26.8833 79.9713 26.7143C79.7197 26.5452 79.5238 26.3054 79.4083 26.0251C79.2929 25.7448 79.2631 25.4366 79.3228 25.1394C79.3824 24.8422 79.5288 24.5693 79.7434 24.3552C79.9581 24.1412 80.2313 23.9955 80.5287 23.9367C80.8261 23.8778 81.1342 23.9085 81.4142 24.0246C81.6942 24.1408 81.9335 24.3374 82.1018 24.5895C82.2701 24.8416 82.36 25.138 82.36 25.4411C82.3605 25.643 82.3211 25.843 82.244 26.0296C82.1668 26.2162 82.0535 26.3857 81.9106 26.5282C81.7676 26.6708 81.5978 26.7837 81.411 26.8603C81.2243 26.9369 81.0241 26.9758 80.8222 26.9747Z" fill="#2873FF"/>
<path d="M87.8694 126.025L87.8321 121.727L84.3711 119.178L92.835 119.285L87.8694 126.025Z" fill="#37474F"/>
<path d="M74.7984 158.533L65.6797 143.197L66.3346 143.135C69.6945 142.61 72.7244 140.815 74.7984 138.12C78.1517 133.697 75.1798 127.405 75.1508 127.343L74.9642 126.966L88.4227 120.815L88.7667 121.569L76.0709 127.372C76.7009 128.881 78.6615 134.418 75.4575 138.626C73.3748 141.344 70.3681 143.205 67.0061 143.856L75.4823 158.111L74.7984 158.533Z" fill="#37474F"/>
<path d="M77.9367 153.7C77.7958 152.299 76.83 150.907 75.1347 150.907C73.4395 150.907 72.4779 152.299 72.3369 153.7C72.1255 155.86 73.5804 157.82 75.1347 159.607C76.6932 157.82 78.1522 155.86 77.9367 153.7ZM75.1347 155.255C74.8316 155.254 74.5355 155.163 74.2838 154.994C74.0322 154.825 73.8363 154.585 73.7208 154.305C73.6054 154.025 73.5756 153.717 73.6353 153.419C73.6949 153.122 73.8413 152.849 74.0559 152.635C74.2706 152.421 74.5438 152.276 74.8412 152.217C75.1386 152.158 75.4467 152.188 75.7267 152.305C76.0067 152.421 76.246 152.617 76.4143 152.87C76.5826 153.122 76.6725 153.418 76.6725 153.721C76.673 153.923 76.6336 154.123 76.5565 154.31C76.4793 154.496 76.366 154.666 76.2231 154.808C76.0801 154.951 75.9103 155.064 75.7235 155.14C75.5368 155.217 75.3366 155.256 75.1347 155.255Z" fill="#2873FF"/>
<path d="M138.163 104.091C138.164 106.593 137.402 109.037 135.979 111.095C134.555 113.153 132.538 114.729 130.196 115.611C127.854 116.492 125.298 116.639 122.871 116.031C120.443 115.423 118.259 114.088 116.609 112.206H92.7017L89.3567 118.395L86.0118 112.206H82.957V95.975H116.614C118.264 94.095 120.449 92.7628 122.876 92.156C125.303 91.5492 127.858 91.6967 130.199 92.5787C132.541 93.4607 134.557 95.0354 135.981 97.0929C137.404 99.1504 138.167 101.593 138.167 104.095L138.163 104.091Z" fill="white"/>
<path d="M138.163 104.091C138.147 105.334 137.963 106.569 137.615 107.763C137.232 108.939 136.685 110.056 135.991 111.079C134.561 113.144 132.537 114.725 130.188 115.614C129.899 115.731 129.604 115.833 129.305 115.92L128.401 116.152C128.099 116.215 127.788 116.252 127.481 116.306C127.174 116.355 126.864 116.385 126.553 116.393C125.307 116.481 124.054 116.371 122.843 116.065C120.4 115.46 118.2 114.126 116.535 112.24L116.597 112.269L92.6848 112.335L92.8133 112.256L89.4974 118.453L89.3523 118.726L89.2073 118.453L85.8458 112.273L86.0074 112.372H82.9526H82.7578V112.177C82.7578 109.471 82.7578 106.768 82.7578 104.062L82.7827 95.9461V95.772H82.9568L116.613 95.8632L116.53 95.9461V95.9171L116.551 95.8922C118.226 94.0139 120.434 92.6909 122.88 92.0996C124.092 91.7943 125.344 91.6838 126.59 91.7722C126.901 91.7804 127.211 91.8095 127.518 91.8592C127.825 91.9131 128.136 91.9504 128.439 92.0126L129.342 92.2447C129.641 92.332 129.936 92.4344 130.225 92.5514C132.574 93.4378 134.598 95.0178 136.028 97.0818C136.722 98.1131 137.269 99.2361 137.653 100.418C137.987 101.614 138.159 102.849 138.163 104.091ZM138.163 104.091C138.14 102.849 137.949 101.617 137.595 100.427C137.202 99.2485 136.644 98.132 135.937 97.1108C134.51 95.0655 132.495 93.5027 130.159 92.6302C129.873 92.5154 129.581 92.4171 129.284 92.3359L128.385 92.1079C128.082 92.0457 127.771 92.0126 127.469 91.9628C127.163 91.9122 126.854 91.8845 126.544 91.8799C125.31 91.7978 124.07 91.9126 122.872 92.2198C120.467 92.8274 118.302 94.1497 116.663 96.0124L116.684 95.9585V96.0414H116.601L82.9443 96.1326L83.1184 95.9585L83.1433 104.074C83.1433 106.781 83.1433 109.483 83.1433 112.19L82.9485 111.995H86.0033H86.1152L86.1649 112.095L89.4808 118.291H89.1907L92.5522 112.111L92.5936 112.032H92.6807L116.593 112.099H116.663L116.688 112.128C118.323 114.003 120.493 115.333 122.905 115.941C124.103 116.252 125.343 116.368 126.578 116.285C126.887 116.28 127.196 116.253 127.502 116.202C127.804 116.157 128.115 116.119 128.418 116.061L129.313 115.829C129.612 115.748 129.905 115.65 130.192 115.535C132.529 114.662 134.546 113.1 135.974 111.054C136.673 110.031 137.224 108.915 137.611 107.738C137.959 106.553 138.144 105.326 138.163 104.091Z" fill="#161A22"/>
<path d="M130.955 113.535C136.174 110.721 138.123 104.21 135.31 98.9911C132.496 93.7723 125.985 91.8225 120.766 94.6361C115.547 97.4496 113.597 103.961 116.411 109.18C119.224 114.399 125.736 116.349 130.955 113.535Z" fill="#2873FF"/>
<path d="M92.0343 102.536C91.8934 101.135 90.9277 99.7427 89.2324 99.7427C87.5371 99.7427 86.5755 101.135 86.4346 102.536C86.2232 104.696 87.6781 106.656 89.2324 108.443C90.7909 106.656 92.2499 104.717 92.0343 102.536ZM89.2324 104.091C88.9293 104.09 88.6331 103.999 88.3815 103.83C88.1298 103.661 87.9339 103.421 87.8185 103.141C87.703 102.861 87.6733 102.553 87.7329 102.255C87.7925 101.958 87.9389 101.685 88.1536 101.471C88.3682 101.257 88.6415 101.111 88.9389 101.053C89.2362 100.994 89.5444 101.024 89.8244 101.141C90.1044 101.257 90.3436 101.453 90.512 101.705C90.6803 101.958 90.7701 102.254 90.7701 102.557C90.7707 102.759 90.7313 102.959 90.6541 103.146C90.577 103.332 90.4637 103.502 90.3207 103.644C90.1778 103.787 90.008 103.9 89.8212 103.976C89.6344 104.053 89.4343 104.092 89.2324 104.091Z" fill="#2873FF"/>
<path d="M112.051 101.027H95.0898V101.537H112.051V101.027Z" fill="#A6A6A6"/>
<path d="M109.386 102.445H95.0898V102.955H109.386V102.445Z" fill="#A6A6A6"/>
<path d="M111.213 103.863H95.0898V104.373H111.213V103.863Z" fill="#A6A6A6"/>
<path d="M104.718 105.28H95.0898V105.79H104.718V105.28Z" fill="#A6A6A6"/>
<path d="M133.131 111.97C131.151 113.802 128.554 114.821 125.857 114.826C125.371 114.826 124.886 114.79 124.406 114.718C124.087 114.682 123.77 114.626 123.457 114.552C123.847 113.296 124.332 112.071 124.908 110.888C124.953 110.789 125.011 110.694 125.057 110.611C125.132 110.486 125.214 110.366 125.301 110.25C125.716 109.736 126.752 109.483 127.884 109.463C128.376 109.451 128.867 109.478 129.355 109.541C129.747 109.588 130.134 109.669 130.512 109.782L130.582 109.802H130.624L130.893 109.902L131.129 110.01C131.139 110.007 131.149 110.007 131.158 110.01C131.29 110.07 131.414 110.147 131.527 110.238C131.602 110.3 131.685 110.37 131.763 110.445C132.269 110.907 132.727 111.418 133.131 111.97Z" fill="#EBEBEB"/>
<path d="M133.308 111.804C133.251 111.862 133.192 111.918 133.129 111.97C132.305 112.737 131.364 113.367 130.34 113.835C130.647 111.763 130.883 110.159 130.916 109.897C130.918 109.884 130.918 109.87 130.916 109.856C130.995 109.902 131.071 109.951 131.144 110.005C131.153 110.003 131.163 110.003 131.173 110.005C131.318 110.101 131.525 110.246 131.778 110.44C132.319 110.859 132.83 111.314 133.308 111.804Z" fill="#37474F"/>
<path d="M125.143 110.104L125.064 110.606C125.064 110.73 125.018 110.875 124.998 111.021C124.977 111.166 124.956 111.277 124.927 111.435C124.794 112.264 124.608 113.445 124.405 114.714C124.085 114.677 123.769 114.622 123.456 114.548L123.344 114.523C123.744 113.143 124.257 111.798 124.877 110.502C124.957 110.364 125.046 110.231 125.143 110.104Z" fill="#37474F"/>
<path d="M126.406 113.798C127.649 113.939 129.987 112.219 130.638 110.395C130.683 110.27 130.314 109.085 129.937 107.622C129.709 106.735 129.477 105.74 129.332 104.82C129.303 104.629 123.77 107.137 123.77 107.137C124.282 108.238 124.657 109.397 124.889 110.59C124.901 110.718 124.901 110.847 124.889 110.975V111.037C124.909 111.763 125.083 113.644 126.406 113.798Z" fill="#D3766A"/>
<path d="M124.91 110.975C124.908 110.996 124.908 111.017 124.91 111.037C125.11 111.031 125.309 111.01 125.506 110.975C128.897 110.362 129.121 105.96 129.121 104.853C128.118 105.164 123.766 107.137 123.766 107.137C124.278 108.239 124.654 109.4 124.885 110.594C124.903 110.72 124.911 110.847 124.91 110.975Z" fill="#161A22"/>
<path d="M129.273 97.4711C130.16 99.4523 129.821 105.537 128.523 107.05C126.641 109.238 123.189 109.86 121.232 107.514C119.338 105.239 119.918 97.3136 121.402 95.9085C123.591 93.8236 127.959 94.5448 129.273 97.4711Z" fill="#D3766A"/>
<path d="M125.056 101.765C125.056 101.765 125.085 101.786 125.085 101.802C125.052 102.217 125.085 102.685 125.445 102.839C125.445 102.839 125.445 102.868 125.445 102.864C124.989 102.776 124.952 102.146 125.056 101.765Z" fill="#161A22"/>
<path d="M125.441 101.355C126.104 101.355 126.088 102.665 125.474 102.677C124.861 102.69 124.886 101.367 125.441 101.355Z" fill="#161A22"/>
<path d="M122.545 101.815C122.545 101.815 122.512 101.815 122.512 101.852C122.512 102.267 122.462 102.735 122.098 102.868C122.098 102.868 122.098 102.893 122.098 102.888C122.545 102.818 122.62 102.192 122.545 101.815Z" fill="#161A22"/>
<path d="M122.184 101.371C121.521 101.313 121.454 102.636 122.068 102.69C122.681 102.743 122.735 101.4 122.184 101.371Z" fill="#161A22"/>
<path d="M125.973 100.754C125.8 100.702 125.629 100.639 125.463 100.568C125.274 100.527 125.103 100.425 124.978 100.277C124.947 100.223 124.935 100.16 124.944 100.099C124.953 100.037 124.983 99.9803 125.028 99.9375C125.129 99.8655 125.247 99.8218 125.37 99.8108C125.493 99.7999 125.617 99.8222 125.729 99.8753C125.971 99.9493 126.178 100.108 126.313 100.323C126.339 100.374 126.35 100.432 126.344 100.49C126.338 100.547 126.316 100.602 126.281 100.647C126.245 100.692 126.197 100.726 126.142 100.745C126.088 100.764 126.029 100.767 125.973 100.754Z" fill="#161A22"/>
<path d="M121.677 100.696C121.859 100.667 122.025 100.613 122.203 100.567C122.395 100.546 122.576 100.463 122.717 100.331C122.755 100.282 122.776 100.221 122.776 100.159C122.776 100.097 122.755 100.036 122.717 99.9869C122.625 99.9045 122.513 99.8483 122.392 99.8242C122.271 99.8002 122.145 99.8091 122.029 99.8501C121.779 99.8947 121.554 100.031 121.399 100.231C121.367 100.278 121.349 100.334 121.348 100.39C121.346 100.447 121.361 100.503 121.39 100.552C121.419 100.601 121.462 100.64 121.512 100.666C121.563 100.691 121.62 100.702 121.677 100.696Z" fill="#161A22"/>
<path d="M124.68 104.343C124.575 104.505 124.437 104.643 124.276 104.749C124.115 104.855 123.933 104.926 123.743 104.957C123.575 104.98 123.405 104.98 123.237 104.957C123.206 104.961 123.174 104.961 123.142 104.957H123.051C123.005 104.957 122.98 104.911 122.972 104.866C122.97 104.852 122.97 104.838 122.972 104.824V104.791C122.972 104.472 123.005 103.991 123.005 103.991C122.889 104.049 122.296 104.306 122.309 104.144C122.36 102.719 122.557 101.302 122.897 99.9167C122.897 99.9068 122.901 99.8973 122.908 99.8903C122.915 99.8833 122.925 99.8794 122.935 99.8794C122.945 99.8794 122.954 99.8833 122.961 99.8903C122.968 99.8973 122.972 99.9068 122.972 99.9167C122.931 101.235 122.657 102.536 122.595 103.854C122.806 103.762 123.029 103.698 123.258 103.664C123.304 103.664 123.171 104.592 123.183 104.733C123.442 104.761 123.704 104.737 123.953 104.663C124.202 104.588 124.434 104.464 124.634 104.298C124.676 104.302 124.705 104.302 124.68 104.343Z" fill="#161A22"/>
<path d="M123.426 104.816C123.596 105.043 123.821 105.223 124.081 105.338C124.226 105.395 124.385 105.406 124.537 105.371C124.864 105.288 124.876 104.986 124.818 104.729C124.787 104.592 124.74 104.46 124.678 104.335C124.321 104.623 123.883 104.791 123.426 104.816Z" fill="#161A22"/>
<path d="M124.082 105.338C124.227 105.395 124.386 105.407 124.538 105.371C124.865 105.289 124.878 104.986 124.82 104.729C124.646 104.733 124.479 104.796 124.346 104.906C124.212 105.017 124.119 105.169 124.082 105.338Z" fill="#FF9ABB"/>
<path d="M120.5 97.9064C120.732 97.3883 120.997 96.866 121.329 96.7666C121.661 96.6671 122.286 97.5955 122.987 97.6494C123.949 97.724 124.595 96.6505 125.942 96.5676C127.289 96.4847 128.098 98.1136 128.118 100.858C128.118 103.311 129.615 103.556 129.615 103.556C129.615 103.556 130.568 98.1675 129.059 96.3521C127.55 94.5366 124.085 93.7201 121.702 95.4029C120.836 96.0122 120.5 97.9064 120.5 97.9064Z" fill="#161A22"/>
<path d="M128.385 102.578C128.385 102.578 129.529 100.505 130.457 100.895C131.385 101.285 130.664 104.186 129.678 104.679C129.555 104.751 129.42 104.796 129.279 104.814C129.139 104.832 128.996 104.821 128.86 104.782C128.724 104.744 128.597 104.678 128.487 104.589C128.376 104.5 128.285 104.39 128.219 104.265L128.385 102.578Z" fill="#D3766A"/>
<path d="M130.229 101.724C130.229 101.724 130.229 101.724 130.229 101.749C129.536 102.117 129.23 102.826 129.035 103.543C129.07 103.467 129.121 103.4 129.185 103.345C129.248 103.29 129.323 103.25 129.403 103.226C129.484 103.203 129.568 103.197 129.651 103.208C129.734 103.22 129.814 103.25 129.885 103.295C129.885 103.295 129.885 103.34 129.885 103.336C129.754 103.308 129.617 103.322 129.495 103.376C129.372 103.429 129.269 103.52 129.201 103.634C129.086 103.827 128.992 104.031 128.923 104.244C128.894 104.31 128.774 104.289 128.79 104.211C128.683 103.278 129.25 101.918 130.229 101.724Z" fill="#161A22"/>
<path d="M17.984 55.2142C19.2938 55.8981 19.5466 58.2607 23.7081 58.1156C24.3008 58.1156 24.7816 57.8628 25.3287 58.0617C26.1204 58.356 26.7504 58.9902 27.4592 59.4544C28.029 59.8344 28.6759 60.0836 29.3534 60.1839C30.6588 60.3393 31.9775 60.036 33.0838 59.3259C33.7636 58.9114 34.3273 58.327 34.9946 57.871C35.662 57.4151 39.6328 56.4576 40.3001 54.2235C40.7146 52.8018 40.6607 51.1853 38.9737 49.1088C38.5836 48.7397 38.3172 48.259 38.2111 47.7327C38.214 47.2702 38.3202 46.8142 38.5219 46.398C38.7553 45.9244 38.8392 45.3909 38.7623 44.8685C38.5744 44.3714 38.2719 43.9255 37.8795 43.567C37.2577 42.8168 37.3738 41.7267 37.8795 40.3879C38.077 39.8208 38.1424 39.216 38.0705 38.6198C37.9987 38.0236 37.7916 37.4516 37.465 36.9477C37.0554 36.3678 36.5719 35.8439 36.0267 35.3892C35.2682 34.668 35.1273 33.9965 34.7832 32.981C34.1408 31.0205 33.1253 30.1417 31.9357 29.5407C30.8663 28.9978 30.9036 29.205 29.7513 29.3791C28.5878 28.6713 27.2187 28.3791 25.8676 28.5501C24.6241 28.7076 23.5755 29.5532 22.6263 30.3573C21.7973 31.0785 21.0056 31.8536 20.9683 33.068C20.9435 33.7685 21.1134 34.4607 21.0802 35.1405C21.0388 36.0316 20.5414 36.5953 19.9487 37.1549C19.0688 37.9053 18.4612 38.9253 18.2203 40.0563C18.0669 41.0055 18.9954 42.4728 17.9053 43.8779C16.9395 45.1214 15.2442 46.5389 14.8007 48.1015C13.4288 52.9718 16.724 54.5634 17.984 55.2142Z" fill="#161A22"/>
<path d="M34.0824 57.8213C35.9932 57.5353 38.9277 57.8917 39.9432 55.7488C40.3447 55.4209 40.6623 55.0022 40.8699 54.5272C41.0775 54.0522 41.169 53.5347 41.137 53.0173C41.0789 51.8899 40.4199 50.9117 39.6945 50.1159C39.2256 49.6774 38.8172 49.1784 38.4801 48.6321C38.3723 48.2068 38.2933 47.7748 38.2438 47.3388C38.325 46.7812 38.4783 46.2364 38.6998 45.7182C38.6998 45.7182 38.6998 45.6975 38.6998 45.7182C38.2853 46.5969 37.8957 47.5751 38.2853 48.5533C38.3401 48.6967 38.4066 48.8353 38.4842 48.9678C38.6218 49.4833 38.8121 49.9834 39.0521 50.4599C39.6821 51.7034 40.2541 52.835 40.1712 54.2898C40.1541 54.7755 40.037 55.2524 39.8272 55.6908C39.0011 56.415 37.9692 56.8628 36.876 56.9716C36.8511 56.9716 36.847 57.0213 36.876 57.0172C37.8651 56.9168 38.8137 56.5721 39.6365 56.0141C38.5257 57.6016 35.9517 57.3902 34.0865 57.7549C34.0243 57.7674 34.0451 57.8296 34.0824 57.8213ZM40.0883 55.3924V55.3509C40.4143 54.1767 40.3295 52.9264 39.8479 51.807C39.5453 51.0651 39.0935 50.3978 38.7951 49.6517C38.7454 49.5232 38.6956 49.3906 38.6542 49.2621C39.0687 49.8424 39.6572 50.3273 40.0717 50.8952C40.9836 52.1386 41.2489 53.6101 40.4033 54.9489C40.3083 55.1035 40.203 55.2517 40.0883 55.3924Z" fill="#161A22"/>
<path d="M13.8706 52.9057C13.8955 52.9471 13.9535 52.9057 13.9328 52.8684C13.1038 51.4674 13.3525 50.0291 13.9991 48.7442C13.6883 50.6633 14.0655 52.8145 15.8229 53.8466C15.8519 53.8466 15.8768 53.8176 15.8478 53.801C14.0323 52.7109 13.7753 50.2281 14.2478 48.2883C14.6502 47.6258 15.1211 47.0076 15.653 46.4438C16.4819 45.5485 17.5264 44.6615 18.1399 43.5424C18.0136 44.1917 17.6464 44.7692 17.112 45.1589C17.0788 45.1838 17.112 45.2376 17.141 45.2169C17.7197 44.827 18.1333 44.2362 18.3015 43.559C18.3281 43.4223 18.3434 43.2836 18.3471 43.1445C18.5044 42.7847 18.6064 42.4032 18.6497 42.0129C18.6 42.3613 18.5038 42.7014 18.3637 43.0243C18.2913 42.4208 18.1523 41.8272 17.9492 41.2544C17.5016 39.5964 18.3388 38.6058 19.3709 37.7147C19.4538 37.6608 19.5367 37.6069 19.6238 37.5572C20.1874 37.2628 20.6624 36.8236 20.9999 36.2847C21.0703 36.2101 21.1408 36.1355 21.2071 36.0567C21.2071 36.0567 21.0952 36.1686 21.0413 36.2225C21.1146 36.0686 21.1716 35.9075 21.2112 35.7417C21.2112 35.7417 21.2112 35.7417 21.2112 35.7417C21.102 36.0219 20.9433 36.2802 20.7429 36.5044C20.3284 36.8484 19.8766 37.1634 19.4414 37.495C18.6124 37.9924 17.8124 38.4649 17.4974 39.4555C17.1824 40.4461 17.4311 41.4119 17.4974 42.3569C17.6135 43.8408 17.0829 45.0801 15.7317 45.6729C15.7317 45.6729 15.7068 45.706 15.7317 45.6977C15.8346 45.6694 15.9356 45.6348 16.0343 45.5941C15.2035 46.1964 14.5679 47.0295 14.2064 47.9898C13.2613 49.4447 12.8634 51.3265 13.8706 52.9057ZM17.3316 44.5579L16.8757 44.9102C17.0911 44.6575 17.2595 44.3683 17.3731 44.0563C17.7461 43.0035 17.4353 41.8596 17.4104 40.7777C17.3735 40.3239 17.4469 39.8678 17.6245 39.4484C17.802 39.0291 18.0784 38.6589 18.43 38.3696C18.1207 38.7158 17.8889 39.1243 17.7503 39.5674C17.514 40.3674 17.7503 41.1093 17.9907 41.8761C18.1509 42.3591 18.2115 42.8695 18.1689 43.3766C17.9321 43.7961 17.6515 44.1893 17.3316 44.5496V44.5579ZM14.538 47.4593C15.0095 46.6098 15.6601 45.8729 16.4446 45.2998L16.6021 45.1672C16.8177 44.9931 17.0166 44.819 17.2404 44.6408C16.3576 45.6314 15.2841 46.4977 14.538 47.4676V47.4593Z" fill="#161A22"/>
<path d="M35.7781 35.1157C36.4903 35.7347 37.1683 36.3919 37.8091 37.0845C38.2571 37.5366 38.5252 38.1362 38.5634 38.7715C38.5811 39.4121 38.3793 40.0395 37.9914 40.5497C37.8464 40.7652 37.7054 40.9849 37.5769 41.2087C37.5469 41.6228 37.6122 42.0382 37.7676 42.4232C38.0785 43.1568 38.7707 43.6086 39.094 44.3505C39.6121 45.5525 39.0359 46.539 38.5303 47.6167C38.895 46.738 39.409 45.8676 39.1271 44.8728C38.895 44.0438 38.2982 43.6293 37.8505 42.9537C37.5761 42.5338 37.424 42.0459 37.4111 41.5444C36.9967 42.3734 36.8723 43.2024 37.5769 44.0562C37.6101 44.0977 37.5769 44.1516 37.5272 44.1143C36.6319 43.2065 36.8682 42.1081 37.4153 41.1507C37.4493 40.5819 37.5738 40.0222 37.7842 39.4927C37.8091 39.4388 37.8878 39.4927 37.8754 39.5342C37.7966 39.9487 37.693 40.3632 37.635 40.7776L37.7262 40.6409C38.4432 39.6212 38.7168 38.4358 37.9002 37.3249C37.2868 36.496 36.4495 35.8701 35.7656 35.1199C35.7692 35.1172 35.7736 35.1157 35.7781 35.1157Z" fill="#161A22"/>
<path d="M59.399 177.252C58.4498 177.551 30.6873 176.95 29.676 176.274C29.2864 176.021 31.6614 149.726 31.6614 149.726L49.2689 150.062L47.2669 167.653C47.2669 167.653 57.5089 172.506 58.5493 173.369C59.5896 174.231 60.3523 176.954 59.399 177.252Z" fill="#AD6359"/>
<path d="M59.3992 177.252C58.45 177.546 30.6875 176.949 29.6762 176.27C29.5519 176.195 29.5145 173.526 29.958 170.052C34.9899 170.881 52.9622 173.654 54.359 172.829C55.333 172.257 54.4709 171.362 53.6709 170.757C55.9672 171.901 58.106 173.003 58.5495 173.372C59.5774 174.222 60.3484 176.953 59.3992 177.252Z" fill="#161A22"/>
<path d="M47.7645 163.433L30.4803 163.189C30.4803 163.189 33.904 121.789 33.7589 120.994C33.5806 119.974 21.3242 71.8892 21.3242 71.8892H37.8209C37.8209 71.8892 50.8275 116.708 51.2959 121.027C52.042 127.998 47.7645 163.433 47.7645 163.433Z" fill="#37474F"/>
<path d="M32.0369 159.284C33.0566 159.214 34.1094 159.226 35.1124 159.21C36.1155 159.193 37.1642 159.21 38.1879 159.21C40.2604 159.23 42.2872 159.259 44.3348 159.317C44.8985 159.317 45.4581 159.35 46.0176 159.375C46.5772 159.4 47.2155 159.508 47.8124 159.529C47.858 159.529 47.858 159.603 47.8124 159.603C47.3067 159.603 46.8052 159.682 46.2995 159.694C45.7938 159.707 45.255 159.715 44.7327 159.715C43.7089 159.715 42.6603 159.715 41.6572 159.715C39.6096 159.715 37.5579 159.67 35.5103 159.587C34.3539 159.537 33.1851 159.525 32.0328 159.408C32.0163 159.408 32.0007 159.401 31.9894 159.389C31.9782 159.377 31.9721 159.361 31.9727 159.344C31.9732 159.328 31.9803 159.312 31.9924 159.301C32.0044 159.29 32.0204 159.284 32.0369 159.284Z" fill="#161A22"/>
<path d="M24.9454 75.773C26.421 80.9997 27.7722 86.272 29.0903 91.5235C30.4084 96.7751 31.7306 102.068 33.0445 107.34L35.0092 115.27C35.6475 117.835 36.3894 120.418 36.5511 123.07C36.7127 125.723 36.3687 128.483 36.1366 131.169C35.9045 133.855 35.6807 136.558 35.4444 139.264C34.9719 144.653 34.5201 150.066 33.9315 155.454C33.8569 156.13 33.7864 156.806 33.716 157.477C33.716 157.535 33.6207 157.535 33.6248 157.477C33.9854 152.089 34.3584 146.675 34.7895 141.279C35.005 138.582 35.2247 135.882 35.4485 133.18C35.6682 130.485 35.9832 127.791 36.0661 125.081C36.149 122.37 35.6516 119.742 34.9968 117.11C34.3419 114.478 33.7036 111.95 33.0569 109.367C31.7389 104.098 30.4222 98.8254 29.1069 93.5504C27.6437 87.6481 26.1806 81.7292 24.8874 75.7854C24.8857 75.7777 24.8872 75.7697 24.8915 75.7631C24.8958 75.7565 24.9025 75.7518 24.9102 75.7502C24.9179 75.7485 24.9259 75.75 24.9325 75.7543C24.9391 75.7585 24.9438 75.7653 24.9454 75.773Z" fill="#161A22"/>
<path d="M21.3281 71.8892C21.3281 71.8892 26.588 92.5183 30.2686 107.042L37.2901 71.8892H21.3281Z" fill="#161A22"/>
<path d="M38.6725 177.31C37.7192 177.609 9.96086 177.008 8.94537 176.332C8.55575 176.083 10.0065 149.771 10.0065 149.771L27.3777 150.107L26.5487 167.715C26.5487 167.715 36.7949 172.564 37.8311 173.426C38.8673 174.288 39.6217 177.02 38.6725 177.31Z" fill="#AD6359"/>
<path d="M38.6731 177.31C37.724 177.609 9.95737 177.008 8.94602 176.332C8.82167 176.253 8.85068 173.654 8.94602 170.115C13.9779 170.944 32.2278 173.721 33.6247 172.896C34.6029 172.324 33.7366 171.425 32.9408 170.824C35.2329 171.968 37.3717 173.066 37.8152 173.435C38.8472 174.285 39.6223 177.02 38.6731 177.31Z" fill="#161A22"/>
<path d="M37.2798 71.8848C37.2798 71.8848 36.799 79.76 34.9172 85.9981C34.7639 86.5121 34.6022 87.0219 34.424 87.5068C32.7604 88.1541 31.1594 88.9518 29.6408 89.8901C29.6408 89.8901 28.4512 120.061 28.4719 121.934C28.5507 128.943 26.7601 163.085 26.7601 163.085L9.35156 162.919C9.35156 162.919 11.1587 124.309 11.167 121.744C11.167 119.257 12.3525 103.593 13.4011 90.0103C13.4011 90.0103 11.8509 85.6706 12.025 83.4821C12.4395 78.1684 14.8228 71.8765 14.8228 71.8765L37.2798 71.8848Z" fill="#37474F"/>
<path d="M33.4732 82.4791C33.5354 82.0397 33.6017 81.6045 33.668 81.1693C33.7924 80.3693 33.954 79.5735 34.0825 78.7777C34.4017 76.9705 34.7333 75.1551 35.1353 73.3645C35.1353 73.323 35.2182 73.3313 35.2141 73.3645C35.1395 74.0898 35.0566 74.8111 34.9571 75.5281C34.8576 76.2452 34.783 76.9747 34.6794 77.6959C34.4804 79.1217 34.2649 80.5517 34.0369 81.9734C33.9416 82.5205 33.6224 83.5029 34.3892 83.6728C35.0151 83.8096 35.4711 83.1962 35.6576 82.6822C35.8496 82.037 35.9882 81.3771 36.0721 80.7092C36.2006 79.988 36.3125 79.2627 36.4161 78.5415C36.6399 76.9609 36.8817 75.3844 37.1414 73.8121C37.1414 73.7707 37.2202 73.7831 37.2161 73.8121C37.183 75.428 37.0668 77.0411 36.8679 78.6451C36.7684 79.416 36.6523 80.1828 36.5197 80.9455C36.4432 81.6805 36.2661 82.4016 35.9933 83.0884C35.8808 83.3581 35.7023 83.5951 35.4741 83.7777C35.2459 83.9602 34.9755 84.0824 34.6877 84.1329H34.6504C34.6587 84.1371 34.6655 84.1437 34.6699 84.1518C34.6744 84.16 34.6762 84.1693 34.6752 84.1785C34.6752 84.4313 34.6752 84.6925 34.6462 84.9453C34.6172 85.1981 34.5675 85.451 34.5177 85.6997C34.4738 85.9547 34.4087 86.2057 34.3229 86.4499C34.2842 86.5685 34.2385 86.6848 34.1861 86.7981C34.1281 86.9141 34.0494 87.0053 33.983 87.1131C33.9787 87.1233 33.9708 87.1317 33.9607 87.1365C33.9507 87.1413 33.9392 87.1423 33.9285 87.1392C33.9178 87.1361 33.9086 87.1293 33.9026 87.1199C33.8966 87.1105 33.8942 87.0992 33.896 87.0882C33.896 87.0468 33.896 87.0053 33.896 86.9639V86.939C33.8919 86.8644 33.8919 86.7897 33.896 86.7152C33.896 86.5908 33.9457 86.4706 33.9706 86.3504C34.0245 86.1059 34.0908 85.8655 34.1571 85.6251C34.2234 85.3847 34.2732 85.1401 34.3354 84.8997C34.3975 84.6593 34.4804 84.4065 34.5385 84.1578C34.5365 84.1496 34.5365 84.1411 34.5385 84.1329C34.3069 84.1445 34.0774 84.0848 33.881 83.9617C33.6845 83.8387 33.5306 83.6582 33.4401 83.4448C33.3697 83.1253 33.3811 82.7931 33.4732 82.4791Z" fill="#161A22"/>
<path d="M28.2301 90.4913C28.7488 90.0914 29.296 89.7298 29.8673 89.4095C30.4698 89.0479 31.0941 88.724 31.7367 88.4396C32.9801 87.8925 34.2982 87.5194 35.5997 87.0884C35.637 87.0884 35.666 87.1423 35.6246 87.1547C34.3811 87.6562 33.1584 88.3236 31.9398 88.9204C31.3429 89.2106 30.7336 89.4924 30.1243 89.7494C29.515 90.0064 28.9057 90.3338 28.2757 90.5784C28.2301 90.595 28.1928 90.5203 28.2301 90.4913Z" fill="#161A22"/>
<path d="M18.392 79.5031C19.2794 79.4945 20.1622 79.3748 21.0199 79.1466C21.4343 79.0471 21.8074 78.9187 22.1929 78.7943C22.5778 78.6865 22.9382 78.5049 23.2539 78.2596C23.8508 77.7457 24.1285 76.9333 24.3896 76.2162C24.6726 75.403 24.9024 74.5723 25.0777 73.7293C25.0777 73.6878 25.1482 73.7002 25.1482 73.7293C25.1687 74.6812 25.0486 75.6309 24.7917 76.5478C24.5762 77.327 24.2902 78.2057 23.6601 78.7446C22.9609 79.2673 22.1235 79.5729 21.252 79.6233C20.2995 79.7339 19.3367 79.72 18.3878 79.5818C18.3812 79.5775 18.3757 79.5714 18.3721 79.5643C18.3685 79.5572 18.3668 79.5492 18.3673 79.5413C18.3677 79.5333 18.3702 79.5256 18.3745 79.5189C18.3789 79.5122 18.3849 79.5067 18.392 79.5031Z" fill="#161A22"/>
<path d="M10.1032 159.541C11.1228 159.466 12.1756 159.479 13.1787 159.466C14.1818 159.454 15.2511 159.466 16.2542 159.466C18.3073 159.483 20.3576 159.519 22.4052 159.574C22.9648 159.574 23.5243 159.607 24.0632 159.632C24.602 159.657 25.261 159.761 25.8579 159.786C25.8635 159.784 25.8695 159.783 25.8754 159.784C25.8813 159.785 25.8869 159.787 25.8918 159.79C25.8966 159.794 25.9006 159.798 25.9033 159.804C25.906 159.809 25.9075 159.815 25.9075 159.821C25.9075 159.827 25.906 159.833 25.9033 159.838C25.9006 159.843 25.8966 159.848 25.8918 159.851C25.8869 159.855 25.8813 159.857 25.8754 159.858C25.8695 159.859 25.8635 159.858 25.8579 159.856C25.3564 159.856 24.8507 159.939 24.345 159.951C23.8393 159.964 23.3005 159.972 22.7782 159.972H19.7027C17.6552 159.972 15.6034 159.927 13.5559 159.84C12.3994 159.794 11.2306 159.777 10.0783 159.665C10.0618 159.662 10.0473 159.652 10.038 159.638C10.0287 159.624 10.0253 159.607 10.0286 159.591C10.0319 159.574 10.0416 159.56 10.0556 159.55C10.0696 159.541 10.0867 159.538 10.1032 159.541Z" fill="#161A22"/>
<path d="M12.2111 157.274C12.1835 157.273 12.1564 157.266 12.1313 157.254C12.1063 157.243 12.0839 157.226 12.0654 157.206C12.0468 157.185 12.0326 157.161 12.0234 157.135C12.0143 157.109 12.0104 157.082 12.0121 157.054L15.9456 89.4923C15.8959 89.198 14.785 85.422 14.7021 83.4947C14.5985 81.4595 16.7083 73.5179 16.7746 73.1781C16.7901 73.1241 16.826 73.0782 16.8748 73.0504C16.9236 73.0225 16.9813 73.0148 17.0357 73.0288C17.0627 73.036 17.0881 73.0485 17.1102 73.0656C17.1324 73.0827 17.151 73.1039 17.1649 73.1282C17.1787 73.1525 17.1877 73.1793 17.1911 73.2071C17.1945 73.2348 17.1924 73.263 17.1849 73.29C17.1849 73.3687 15.0047 81.501 15.1125 83.4739C15.2202 85.4469 16.3559 89.4136 16.3559 89.4467C16.3559 89.4799 12.4224 157.075 12.4224 157.075C12.4183 157.128 12.3944 157.178 12.3553 157.215C12.3162 157.252 12.2647 157.273 12.2111 157.274Z" fill="#161A22"/>
<path d="M31.8926 48.3459C40.3979 55.8274 48.2732 64.0509 48.9488 68.287C49.8606 74.1478 46.267 75.8182 44.6505 75.8514C40.2445 75.9426 32.0376 58.1776 29.1777 51.3966C26.4006 44.802 30.0357 46.688 31.8926 48.3459Z" fill="#2873FF"/>
<path d="M37.7137 71.8849L36.5283 64.4241C36.5283 64.4241 39.4753 61.3693 37.9541 58.1736C37.1832 56.553 31.9399 48.6404 29.1421 46.6674C26.5184 44.8064 23.4056 46.3524 22.2367 48.3668C19.298 53.4526 16.5002 59.2969 14.8008 71.8808L37.7137 71.8849Z" fill="#2873FF"/>
<path d="M33.031 63.4708C31.8408 63.6003 30.6618 63.8178 29.5037 64.1215C28.9276 64.2832 28.368 64.4656 27.8043 64.6645C27.5266 64.764 27.2447 64.851 26.9753 64.9381C26.6818 65.0388 26.3769 65.1028 26.0676 65.1287C26.0621 65.1287 26.0568 65.1309 26.0529 65.1348C26.0491 65.1387 26.0469 65.144 26.0469 65.1495C26.0469 65.155 26.0491 65.1602 26.0529 65.1641C26.0568 65.168 26.0621 65.1702 26.0676 65.1702C26.3595 65.1799 26.6518 65.1688 26.9422 65.137C27.2224 65.0994 27.4995 65.0412 27.7711 64.9629C28.3556 64.8096 28.9276 64.6231 29.512 64.4614C30.685 64.1381 31.858 63.8107 33.0517 63.5703C33.0649 63.5675 33.0765 63.5596 33.0839 63.5484C33.0913 63.5371 33.0939 63.5234 33.0911 63.5102C33.0884 63.497 33.0805 63.4854 33.0692 63.478C33.0579 63.4707 33.0442 63.468 33.031 63.4708Z" fill="#161A22"/>
<path d="M36.0032 64.4698C35.0178 64.3842 34.0283 64.3566 33.0396 64.3869C32.5464 64.3869 32.0573 64.4449 31.5641 64.503L30.8636 64.5942C30.6066 64.6356 30.3538 64.7061 30.0968 64.7392C30.0719 64.7392 30.0719 64.7848 30.0968 64.7848C30.3413 64.76 30.59 64.7848 30.8346 64.7848L31.5724 64.7475L33.0521 64.6853C34.0344 64.6315 35.0168 64.59 36.0032 64.5693C36.0164 64.5693 36.0291 64.5641 36.0384 64.5547C36.0477 64.5454 36.053 64.5327 36.053 64.5196C36.053 64.5064 36.0477 64.4937 36.0384 64.4844C36.0291 64.4751 36.0164 64.4698 36.0032 64.4698Z" fill="#161A22"/>
<path d="M21.9391 47.604C14.0265 53.8213 6.24656 64.569 6.18854 70.575C6.13465 76.5063 8.19881 75.9343 8.78738 75.8929C12.3686 75.6608 20.8076 59.1517 23.3774 52.4204C25.9472 45.6891 23.8955 46.0663 21.9391 47.604Z" fill="#2873FF"/>
<path d="M13.5508 71.2589C13.9653 70.5128 14.3798 69.775 14.7942 69.0207L16.0377 66.7741C16.8667 65.2778 17.6957 63.7815 18.4708 62.2686C19.2459 60.7558 20.0748 59.2595 20.8582 57.7424C21.2534 56.9853 21.6361 56.2226 22.0063 55.4544C22.3918 54.6918 22.7441 53.9167 23.1047 53.1416C22.5357 54.7556 21.8784 56.3372 21.1359 57.8792C20.4106 59.4294 19.6189 60.9464 18.8272 62.4593C18.0355 63.9722 17.1693 65.4602 16.3071 66.9275C15.445 68.3948 14.5331 69.8579 13.5508 71.2589Z" fill="#161A22"/>
<path d="M22.2578 55.1313C22.4034 54.8623 22.5667 54.6034 22.7469 54.3562C22.8381 54.2319 22.921 54.1075 23.0163 53.9915C23.1069 53.8665 23.2038 53.7461 23.3065 53.6309C23.2318 53.9299 23.0995 54.2115 22.9169 54.4598C22.7407 54.7226 22.5172 54.9502 22.2578 55.1313Z" fill="#161A22"/>
<path d="M46.4694 59.5996C46.0549 56.8184 45.2259 52.9346 44.2146 52.1388C43.2032 51.343 39.3277 48.4789 38.2293 48.11C37.131 47.7411 32.2151 45.9339 31.3198 46.452C30.6069 46.8665 31.4815 48.7566 33.8068 49.6394C35.0745 50.1494 36.3105 50.7348 37.5081 51.3927C38.1091 51.6414 39.5806 53.5605 39.1661 54.4185C38.9423 54.9242 37.4791 55.5335 36.5631 55.1314C35.6471 54.7294 35.4025 52.9263 34.3539 52.0849C33.3052 51.2435 31.4525 51.3679 31.3654 51.8653C31.2784 52.3626 31.8752 52.5906 32.8327 54.2651C33.4503 55.3428 33.5166 57.9458 34.9051 59.7944C35.6171 60.8908 36.2607 62.0301 36.8325 63.2057L46.4694 59.5996Z" fill="#AD6359"/>
<path d="M33.398 51.3306C33.0598 51.2814 32.7423 51.1378 32.482 50.9161C32.3791 50.8149 32.3059 50.6872 32.2706 50.5472C32.2603 50.4702 32.2603 50.3921 32.2706 50.3151C32.2729 50.2327 32.3036 50.1536 32.3577 50.0913C32.3577 50.0913 32.3577 50.054 32.3577 50.0913C32.3324 50.1303 32.3047 50.1677 32.2748 50.2032C32.2528 50.2355 32.2347 50.2703 32.2209 50.3068C32.1961 50.3803 32.1835 50.4573 32.1836 50.5348C32.1939 50.7064 32.261 50.8697 32.3743 50.999C32.5088 51.1369 32.6736 51.2416 32.8556 51.3049C33.0376 51.3682 33.2318 51.3884 33.4229 51.3638C33.4229 51.3638 33.4146 51.3347 33.398 51.3306Z" fill="#161A22"/>
<path d="M44.215 52.1305C43.3155 50.7461 41.0193 48.2633 38.7644 47.4219C37.2391 46.8582 32.0373 49.457 32.2031 50.456C32.3689 51.4549 33.2559 51.4466 34.5781 51.2849C35.0589 51.2228 37.5956 50.2777 38.0349 50.8083C38.6691 51.5709 39.4898 54.1863 39.4898 54.1863L44.215 52.1305Z" fill="#AD6359"/>
<path d="M32.3266 50.0619C32.9607 48.9884 34.3741 48.4039 35.7834 47.9355C35.7834 47.9355 35.8166 47.9604 35.7834 47.9687C35.4228 48.0889 33.1348 49.1707 32.3307 50.0785C32.3349 50.0909 32.3183 50.0743 32.3266 50.0619Z" fill="#161A22"/>
<path d="M44.215 52.1303C43.3156 50.7459 41.0193 48.2632 38.7645 47.4217C37.2392 46.858 33.1399 50.1574 33.3015 51.1521C33.4632 52.1469 34.7481 52.2132 36.1615 51.7076C36.6174 51.5418 38.1427 50.4434 38.5821 50.9739C39.2121 51.7366 40.754 53.6266 40.754 53.6266L44.215 52.1303Z" fill="#AD6359"/>
<path d="M39.8602 52.4577C39.7192 52.2422 39.6695 52.1634 39.5203 51.9479C39.3711 51.7323 39.2177 51.5334 39.056 51.3179C38.9282 51.1286 38.7683 50.9631 38.5835 50.8288C38.3925 50.7205 38.1706 50.6796 37.9535 50.7127C37.4666 50.8187 37.0076 51.0263 36.6064 51.322C35.9576 51.7307 35.2094 51.9543 34.4428 51.9686C34.2396 51.9574 34.0408 51.9052 33.8584 51.8152C33.7205 51.7539 33.5996 51.66 33.506 51.5417C33.1786 50.9987 33.5724 50.3728 33.9786 49.9293C34.7767 49.1229 35.7149 48.4684 36.7473 47.9978L37.481 47.6413C37.7575 47.4911 38.0625 47.4007 38.3763 47.3761C38.8903 47.3761 39.7358 47.8817 40.0011 48.0351C40.0011 48.0351 40.0342 48.0144 40.0011 48.0019C39.6861 47.8113 38.8944 47.173 38.0654 47.2268C37.7638 47.2763 37.4733 47.3787 37.2074 47.5294C36.9173 47.6538 36.6354 47.7947 36.3536 47.9439C35.8062 48.2208 35.281 48.5395 34.7827 48.8972C34.2836 49.2289 33.8507 49.6505 33.506 50.1407C33.3605 50.3574 33.2767 50.6096 33.2635 50.8702C33.2504 51.1309 33.3084 51.3902 33.4314 51.6204C33.5425 51.765 33.684 51.8833 33.8458 51.9672C34.0077 52.051 34.186 52.0982 34.3682 52.1054C34.5855 52.1343 34.8057 52.1343 35.0231 52.1054C35.5035 52.0013 35.9759 51.8628 36.4365 51.6909C36.8841 51.5085 37.2862 51.2018 37.7504 51.0567C37.8591 51.0174 37.9746 51.0004 38.0899 51.0068C38.2053 51.0133 38.3182 51.0429 38.4219 51.094C38.6113 51.2196 38.7816 51.3717 38.9276 51.5458C39.2332 51.8473 39.5107 52.1761 39.7565 52.5282C39.856 52.582 39.9223 52.5489 39.8602 52.4577Z" fill="#161A22"/>
<path d="M44.8859 53.3201C44.5543 52.661 43.974 49.9379 43.4393 49.1089C42.9046 48.2799 40.4674 45.4075 39.3483 45.5443C37.939 45.7142 39.4353 48.2426 40.1773 49.2747C40.9192 50.3067 40.8197 52.0973 40.8197 52.0973L44.8859 53.3201Z" fill="#AD6359"/>
<path d="M39.1532 47.575C39.4156 47.9118 39.6604 48.2618 39.8869 48.6236C40.1252 48.952 40.3399 49.2969 40.5293 49.6557C40.6893 50.0293 40.7846 50.4274 40.8112 50.8329C40.8319 51.0318 40.8402 51.2474 40.8444 51.4256C40.8485 51.6038 40.8444 51.8401 40.8444 52.0722C40.8444 52.0929 40.807 52.0971 40.807 52.0722C40.7762 51.6795 40.7208 51.2891 40.6412 50.9033C40.567 50.5032 40.4446 50.1134 40.2765 49.7428C39.9366 49.0091 39.4475 48.3542 39.1035 47.6206C39.0745 47.5708 39.1159 47.5501 39.1532 47.575Z" fill="#161A22"/>
<path d="M40.8093 52.4204C40.8647 53.1016 40.7478 53.7858 40.4694 54.41C40.3418 54.726 40.1937 55.0334 40.0259 55.3301C39.85 55.6173 39.6576 55.8941 39.4498 56.1591C38.6145 57.1764 38.0842 58.4094 37.9203 59.7154C37.8637 59.0382 37.9412 58.3565 38.1483 57.7093C38.3678 57.0605 38.6958 56.4537 39.1182 55.9145C39.5216 55.3995 39.8702 54.8438 40.1586 54.2566C40.475 53.6845 40.6949 53.0641 40.8093 52.4204Z" fill="#161A22"/>
<path d="M44.2387 75.6484C41.4865 75.2754 39.6793 70.6745 36.5458 62.5837C35.9945 61.162 43.1776 52.4329 44.1641 53.7344C45.4075 55.3923 48.7234 64.5111 49.0592 66.998C49.7472 71.9139 47.4427 76.0795 44.2387 75.6484Z" fill="#AD6359"/>
<path d="M38.207 67.0977L47.0729 58.4805C47.0729 58.4805 49.593 65.8957 49.3568 69.0043C49.1205 72.113 48.0387 75.6362 44.2959 75.8517C41.4939 75.9968 38.207 67.0977 38.207 67.0977Z" fill="#2873FF"/>
<path d="M41.0711 73.0621C40.752 72.6104 40.466 72.1337 40.1883 71.657C39.9106 71.1804 39.6536 70.6871 39.4008 70.1939C39.1479 69.7006 38.9241 69.1991 38.7169 68.681C38.5011 68.1691 38.3305 67.6393 38.207 67.0977C38.4391 67.5992 38.6878 68.0924 38.9365 68.5815L39.6826 70.0571C39.923 70.5503 40.1676 71.0436 40.3997 71.5451C40.6318 72.0466 40.8639 72.5482 41.0711 73.0621Z" fill="#161A22"/>
<path d="M40.116 68.6025C40.5305 68.1299 41.0196 67.6906 41.4755 67.2429C41.9315 66.7953 42.3957 66.3559 42.8641 65.9207C43.8008 65.0448 44.7431 64.1799 45.6909 63.326C45.952 63.0939 46.2131 62.8576 46.4784 62.6297C46.7437 62.4017 47.0753 62.1737 47.353 61.9292C47.3576 61.927 47.3628 61.9262 47.3679 61.9271C47.373 61.928 47.3776 61.9304 47.3813 61.934C47.3849 61.9377 47.3873 61.9424 47.3882 61.9474C47.3891 61.9525 47.3883 61.9577 47.3861 61.9623C47.1582 62.1779 46.9716 62.4307 46.7395 62.6545C46.5074 62.8784 46.2753 63.1105 46.039 63.3343L44.6464 64.6524C43.7096 65.5228 42.7729 66.3932 41.8113 67.2346C41.2683 67.7113 40.7336 68.2045 40.1533 68.648C40.1474 68.6493 40.1412 68.6489 40.1354 68.6469C40.1297 68.6449 40.1246 68.6413 40.1208 68.6366C40.1169 68.6319 40.1144 68.6262 40.1136 68.6202C40.1128 68.6142 40.1136 68.608 40.116 68.6025Z" fill="#161A22"/>
<path d="M23.918 46.6508C23.918 46.6508 25.5262 50.7418 26.0567 51.2102C26.5873 51.6786 31.1011 51.4174 31.2005 51.0444C31.3 50.6714 29.298 46.9493 29.298 46.9493C28.3119 46.4803 27.2515 46.1871 26.1645 46.083C25.3728 46.0102 24.58 46.2106 23.918 46.6508Z" fill="#AD6359"/>
<path d="M24.2933 46.9203C24.3596 47.3762 26.229 50.4849 28.7035 50.3315C30.1459 50.2445 29.1635 47.372 29.1635 47.372L30.407 43.4468L25.657 39.8159C25.657 39.8159 24.2684 46.7296 24.2933 46.9203Z" fill="#AD6359"/>
<path d="M25.1523 42.3982C25.4708 43.4286 25.9975 44.3826 26.6998 45.2012C27.402 46.0197 28.265 46.6852 29.2351 47.1565L30.4122 43.4468L25.6622 39.8159C25.6622 39.8159 25.4301 40.9848 25.1523 42.3982Z" fill="#161A22"/>
<path d="M36.0074 37.9302C36.1483 44.6781 32.1236 45.5236 30.6688 45.5526C29.3465 45.5816 24.8659 45.4987 24.0079 38.8006C23.1499 32.1025 26.2628 29.9057 29.2802 29.6819C32.2977 29.458 35.8665 31.1782 36.0074 37.9302Z" fill="#AD6359"/>
<path d="M34.4234 37.387C34.2721 37.3518 34.1227 37.309 33.9758 37.2585C33.8176 37.2318 33.6723 37.1547 33.5613 37.0388C33.5328 36.9938 33.5198 36.9407 33.5243 36.8875C33.5288 36.8344 33.5505 36.7842 33.5862 36.7446C33.6678 36.6777 33.7656 36.6337 33.8697 36.6169C33.9738 36.6002 34.0805 36.6113 34.1789 36.6492C34.3921 36.6971 34.5797 36.8227 34.7053 37.0015C34.7326 37.0451 34.7463 37.0959 34.7445 37.1473C34.7427 37.1987 34.7255 37.2483 34.6951 37.2899C34.6647 37.3314 34.6226 37.3628 34.5742 37.3802C34.5258 37.3975 34.4733 37.3999 34.4234 37.387Z" fill="#161A22"/>
<path d="M29.8013 37.18C29.9558 37.1695 30.1095 37.1487 30.2614 37.1178C30.4275 37.1191 30.5893 37.0651 30.7214 36.9645C30.7537 36.923 30.7712 36.8719 30.7712 36.8194C30.7712 36.7668 30.7537 36.7158 30.7214 36.6743C30.6506 36.595 30.5597 36.5363 30.4584 36.5042C30.357 36.4721 30.2489 36.4679 30.1453 36.492C29.9465 36.512 29.7606 36.5998 29.6189 36.7406C29.5827 36.7766 29.558 36.8225 29.548 36.8725C29.538 36.9225 29.543 36.9744 29.5626 37.0215C29.5822 37.0687 29.6153 37.1089 29.6578 37.1371C29.7003 37.1653 29.7503 37.1803 29.8013 37.18Z" fill="#161A22"/>
<path d="M30.6377 38.9541C30.6377 38.9541 30.6004 38.9541 30.6004 38.9914C30.6004 39.4515 30.5009 39.9779 30.0781 40.1105V40.1354C30.5921 40.0898 30.6999 39.3935 30.6377 38.9541Z" fill="#161A22"/>
<path d="M30.2549 38.4523C29.5171 38.3611 29.3845 39.8367 30.0642 39.9237C30.744 40.0108 30.8642 38.5311 30.2549 38.4523Z" fill="#161A22"/>
<path d="M29.9572 38.5062C29.8204 38.5767 29.6795 38.7134 29.5427 38.7134C29.4059 38.7134 29.2401 38.5476 29.1282 38.3901C29.1282 38.3901 29.1033 38.3901 29.0992 38.3901C29.0702 38.672 29.1531 38.9704 29.4515 39.0409C29.7499 39.1114 29.9489 38.8709 30.0442 38.5932C30.0359 38.5601 30.0111 38.4772 29.9572 38.5062Z" fill="#161A22"/>
<path d="M33.4105 38.9995C33.4105 38.9995 33.4436 39.0244 33.4436 39.0451C33.3814 39.501 33.3897 40.0316 33.7918 40.2264C33.7918 40.2264 33.7918 40.2554 33.7918 40.2513C33.2861 40.1311 33.282 39.4223 33.4105 38.9995Z" fill="#161A22"/>
<path d="M33.8684 38.5641C34.6103 38.5641 34.5233 40.0604 33.8352 40.0438C33.1472 40.0273 33.2466 38.5475 33.8684 38.5641Z" fill="#161A22"/>
<path d="M34.179 38.6804C34.2909 38.7633 34.3986 38.9125 34.5396 38.9291C34.6805 38.9457 34.8297 38.7964 34.954 38.6514C34.954 38.6514 34.9789 38.6514 34.9748 38.6514C34.9748 38.9332 34.8587 39.2234 34.5603 39.2607C34.2618 39.298 34.1458 39.0451 34.0919 38.7591C34.0795 38.7218 34.1251 38.6431 34.179 38.6804Z" fill="#161A22"/>
<path d="M32.6776 40.9768C32.6776 40.9768 32.7149 41.669 32.6776 41.9923C32.6776 42.0213 32.5989 42.0296 32.487 42.0296C32.2056 42.0571 31.9222 42.0071 31.6672 41.8851C31.4122 41.7631 31.1955 41.5737 31.0404 41.3374C31.0197 41.3042 31.0653 41.2752 31.0943 41.296C31.4824 41.6111 31.9625 41.7915 32.4621 41.8099C32.4911 41.7229 32.3543 40.6245 32.4041 40.6245C32.653 40.6682 32.8953 40.7434 33.1253 40.8483C33.0797 39.4059 32.8061 37.98 32.7854 36.5418C32.7883 36.5325 32.7941 36.5244 32.8019 36.5186C32.8097 36.5129 32.8192 36.5098 32.8289 36.5098C32.8386 36.5098 32.8481 36.5129 32.8559 36.5186C32.8637 36.5244 32.8695 36.5325 32.8724 36.5418C33.212 38.06 33.4008 39.608 33.4361 41.1633C33.4444 41.3374 32.802 41.0431 32.6776 40.9768Z" fill="#161A22"/>
<path d="M32.2973 41.8389C32.1163 42.0574 31.8823 42.2258 31.6176 42.328C31.4694 42.3758 31.3099 42.3758 31.1616 42.328C30.8383 42.2326 30.8383 41.9135 30.9088 41.6731C30.9481 41.539 31.0024 41.4097 31.0705 41.2876C31.4095 41.5985 31.8397 41.7918 32.2973 41.8389Z" fill="#161A22"/>
<path d="M31.6176 42.3277C31.4694 42.3756 31.3099 42.3756 31.1616 42.3277C30.8383 42.2324 30.8383 41.9133 30.9088 41.6729C31.0833 41.6865 31.2482 41.7586 31.3768 41.8774C31.5054 41.9962 31.5902 42.1548 31.6176 42.3277Z" fill="#FF9ABB"/>
<path d="M23.9552 38.9208C24.7013 38.9208 26.7571 36.9644 27.0058 33.3625C27.0058 33.3625 26.5582 36.5831 26.2887 37.0432C26.0193 37.5032 27.4369 35.9448 27.6814 33.0433C28.5619 33.7485 29.539 34.3236 30.5829 34.751C31.9341 35.207 32.7755 35.2401 32.8791 35.1655C32.9827 35.0909 30.9932 34.3365 30.4834 33.6692C30.4834 33.6692 34.0438 35.5634 35.7184 35.7831C35.9132 35.808 36.3608 31.8165 33.849 29.9803C31.3372 28.1441 27.1177 29.7564 25.9737 30.7678C25.9737 30.7678 24.6598 30.8839 23.1428 32.7325C21.6258 34.5811 23.1469 38.9249 23.9552 38.9208Z" fill="#161A22"/>
<path d="M27.7767 32.6745C27.7767 32.5916 27.644 32.5916 27.6482 32.6745C27.6722 33.993 27.4194 35.302 26.9062 36.5168C26.9062 36.5168 26.9311 36.5458 26.9394 36.5168C27.5487 35.2858 27.9632 34.0713 27.7767 32.6745Z" fill="#161A22"/>
<path d="M32.3416 35.3354C30.3977 34.9997 28.748 34.2951 27.5211 32.6993C27.4963 32.6661 27.4382 32.6993 27.4631 32.7324C28.4496 34.4567 30.4267 35.2484 32.3333 35.41C32.3706 35.4142 32.3831 35.3437 32.3416 35.3354Z" fill="#161A22"/>
<path d="M25.1526 38.8376C25.1526 38.8376 23.8221 36.6367 22.8315 37.1009C21.8409 37.5652 22.7486 40.6821 23.8428 41.1712C23.9785 41.2441 24.1275 41.2888 24.2808 41.3025C24.4342 41.3162 24.5888 41.2987 24.7352 41.2511C24.8816 41.2035 25.0168 41.1266 25.1328 41.0253C25.2487 40.9239 25.3429 40.8002 25.4096 40.6614L25.1526 38.8376Z" fill="#AD6359"/>
<path d="M23.1133 37.9839C23.1133 37.9839 23.1133 38.0046 23.1133 38.0129C23.8801 38.3818 24.2448 39.1362 24.4852 39.9113C24.4447 39.8293 24.3868 39.7571 24.3155 39.6998C24.2443 39.6425 24.1614 39.6013 24.0727 39.5792C23.9839 39.5571 23.8915 39.5546 23.8017 39.5719C23.7119 39.5891 23.6269 39.6257 23.5526 39.6791C23.5526 39.6791 23.5526 39.7247 23.5526 39.7206C23.6934 39.6861 23.8413 39.6959 23.9763 39.7486C24.1113 39.8012 24.2268 39.8942 24.307 40.0149C24.439 40.2195 24.5488 40.4377 24.6345 40.6656C24.6676 40.7361 24.7961 40.7071 24.7754 40.6242C24.8666 39.6128 24.1827 38.158 23.1133 37.9839Z" fill="#161A22"/>
<path d="M31.0029 50.091L27.2725 61.6677C27.1233 62.0034 27.2725 62.2977 27.6166 62.3185L33.6888 62.7329C33.8752 62.7316 34.0573 62.6771 34.2137 62.5757C34.3701 62.4744 34.4943 62.3305 34.5717 62.1609L38.3021 50.5884C38.3468 50.5257 38.3731 50.4518 38.3781 50.3749C38.3832 50.2981 38.3667 50.2213 38.3305 50.1533C38.2944 50.0853 38.24 50.0287 38.1734 49.9899C38.1069 49.9511 38.0309 49.9316 37.9539 49.9335L31.8816 49.519C31.6963 49.5226 31.5157 49.5781 31.3604 49.6793C31.2051 49.7804 31.0812 49.923 31.0029 50.091Z" fill="#37474F"/>
<path d="M31.7256 50.1325L27.9952 61.7092C27.846 62.045 27.9952 62.3392 28.3392 62.36L34.4115 62.7744C34.5976 62.7721 34.7793 62.7172 34.9355 62.616C35.0917 62.5147 35.2161 62.3714 35.2943 62.2025L39.0247 50.6258C39.068 50.5634 39.0934 50.4903 39.0979 50.4144C39.1025 50.3386 39.0861 50.263 39.0506 50.1958C39.0151 50.1286 38.9618 50.0725 38.8966 50.0336C38.8314 49.9947 38.7567 49.9744 38.6807 49.975L32.6043 49.5605C32.419 49.5641 32.2384 49.6196 32.0831 49.7208C31.9277 49.8219 31.8039 49.9645 31.7256 50.1325Z" fill="#455A64"/>
<path d="M33.35 50.7792C33.3406 50.8802 33.3015 50.9762 33.2377 51.0551C33.1738 51.134 33.0881 51.1922 32.9912 51.2224C32.8943 51.2526 32.7906 51.2535 32.6933 51.2249C32.5959 51.1962 32.5092 51.1395 32.4441 51.0616C32.3789 50.9838 32.3383 50.8885 32.3273 50.7876C32.3162 50.6867 32.3353 50.5848 32.3821 50.4948C32.4289 50.4047 32.5013 50.3305 32.5902 50.2816C32.6791 50.2326 32.7805 50.211 32.8816 50.2196C32.9492 50.2253 33.015 50.2444 33.0752 50.2757C33.1354 50.3069 33.1888 50.3498 33.2323 50.4018C33.2758 50.4539 33.3087 50.514 33.3289 50.5787C33.349 50.6435 33.3562 50.7116 33.35 50.7792Z" fill="#161A22"/>
<path d="M7.96137 75.8807C10.6141 76.2455 13.9176 74.1855 22.4892 67.9267C23.6788 67.0646 19.8199 57.0464 18.5018 57.9085C16.8439 58.9903 10.6597 63.5497 10.2493 63.9393C6.78836 67.2345 6.16249 75.6362 7.96137 75.8807Z" fill="#AD6359"/>
<path d="M15.4453 60.9384C15.4453 60.9384 17.8866 57.5106 19.727 56.1096C21.6714 54.7009 23.9286 53.7849 26.3049 53.4403C28.8706 53.0631 35.3449 53.9253 35.4237 55.8319C35.49 57.5603 28.9203 56.3459 28.9203 56.3459C28.9203 56.3459 35.8257 56.4785 35.5273 58.5717C35.2289 60.6649 27.681 58.8204 27.681 58.8204C27.681 58.8204 34.7729 59.1188 34.1222 61.2286C33.6331 62.8243 26.6987 61.5394 26.6987 61.5394C26.6987 61.5394 32.7958 61.8379 32.3606 63.5C31.8798 65.3361 25.4096 64.5528 25.4096 64.5528C23.5942 68.5899 20.9912 69.7297 19.1011 70.3556C18.6617 70.509 15.4453 60.9384 15.4453 60.9384Z" fill="#AD6359"/>
<path d="M26.5492 56.1471C27.3782 56.1471 28.1823 56.114 28.9947 56.172C29.8071 56.23 30.6153 56.3171 31.4153 56.4497C32.4659 56.6084 33.495 56.8866 34.4825 57.2787C32.6795 56.7191 29.7822 56.4497 28.9698 56.4041C28.1574 56.3585 27.3574 56.2466 26.5492 56.1886C26.5285 56.1761 26.5326 56.1471 26.5492 56.1471Z" fill="#161A22"/>
<path d="M26.3044 59.0649C27.3406 59.094 28.3768 59.0649 29.4089 59.1561C30.441 59.2473 31.4109 59.3882 32.4347 59.5333C32.5134 59.5333 32.4803 59.5831 32.4015 59.5748C31.3736 59.4711 30.4161 59.4546 29.384 59.3634C28.352 59.2722 27.3116 59.1437 26.3002 59.0898C26.2671 59.0898 26.2712 59.0649 26.3044 59.0649Z" fill="#161A22"/>
<path d="M25.6093 61.5312C27.2012 61.5339 28.7886 61.6991 30.3469 62.0245C30.4256 62.0245 30.3759 62.0867 30.2971 62.0742C28.7262 61.8794 27.4952 61.7136 25.6093 61.581C25.5803 61.5851 25.5761 61.5354 25.6093 61.5312Z" fill="#161A22"/>
<path d="M15.4433 59.5747L18.8421 71.885C18.8421 71.885 9.77722 77.2195 7.77524 75.8061C5.77326 74.3927 7.08305 67.2883 9.3503 64.5776C10.2746 63.4502 15.4433 59.5747 15.4433 59.5747Z" fill="#2873FF"/>
<path d="M15.5571 59.985L15.4244 59.5705H15.4576C14.5996 60.271 13.7416 60.9632 12.8961 61.6679C12.0505 62.3725 11.2008 63.0771 10.4091 63.8232C10.0005 64.1848 9.61556 64.5725 9.25684 64.9838C8.91535 65.4062 8.6103 65.8568 8.34497 66.3308C7.8134 67.3032 7.43985 68.354 7.23828 69.4437C7.32588 68.33 7.62703 67.2436 8.12529 66.2438C8.37565 65.7407 8.67853 65.2656 9.02887 64.8263C9.38783 64.397 9.77558 63.9926 10.1894 63.6159C11.0184 62.8699 11.8474 62.1735 12.7427 61.4938C13.638 60.814 14.5167 60.1715 15.4369 59.5581H15.4617V59.5871L15.5571 59.985Z" fill="#161A22"/>
<path d="M13.4531 62.6293C13.6603 63.2345 13.8137 63.8728 13.9878 64.4738C14.1619 65.0748 14.3235 65.7172 14.481 66.3265C14.7919 67.57 15.0986 68.8135 15.3929 70.0569C15.4717 70.3968 15.5504 70.7408 15.625 71.0807C15.6996 71.4206 15.7369 71.8227 15.8157 72.1874C15.8157 72.1901 15.8152 72.1928 15.8141 72.1953C15.8131 72.1979 15.8115 72.2001 15.8096 72.2021C15.8077 72.204 15.8054 72.2055 15.8029 72.2066C15.8004 72.2076 15.7977 72.2081 15.795 72.2081C15.7922 72.2081 15.7895 72.2076 15.787 72.2066C15.7845 72.2055 15.7822 72.204 15.7803 72.2021C15.7784 72.2001 15.7769 72.1979 15.7758 72.1953C15.7748 72.1928 15.7742 72.1901 15.7742 72.1874C15.6913 71.8848 15.5628 71.5905 15.4758 71.2921C15.3888 70.9937 15.2976 70.6621 15.2147 70.3471C15.053 69.7295 14.8914 69.1036 14.7339 68.4902C14.4189 67.2467 14.108 66.0032 13.8344 64.7598C13.6769 64.051 13.5028 63.3464 13.3868 62.6334C13.3862 62.6246 13.3892 62.616 13.395 62.6094C13.4009 62.6028 13.4091 62.5988 13.4179 62.5982C13.4267 62.5977 13.4353 62.6006 13.4419 62.6065C13.4485 62.6123 13.4526 62.6205 13.4531 62.6293Z" fill="#161A22"/>
<path d="M18.8447 71.8849C18.9028 72.001 18.8986 71.8849 18.8862 71.831C18.8738 71.7772 18.7328 71.1637 18.6043 70.7907C18.6043 70.7534 18.5339 70.6871 18.5546 70.8197C18.6316 71.1798 18.7285 71.5355 18.8447 71.8849Z" fill="#161A22"/>
</svg>
