<svg width="121" height="92" viewBox="0 0 121 92" fill="none" xmlns="http://www.w3.org/2000/svg">
<circle cx="65.5252" cy="51.8231" r="39.3143" fill="#161A22"/>
<circle cx="7.20762" cy="28.8893" r="7.20762" fill="#2873FF"/>
<circle cx="113.208" cy="84.2076" r="7.20762" fill="#2873FF"/>
<circle cx="116.931" cy="3.93143" r="3.93143" fill="#2873FF"/>
<path d="M80.6805 55.3374C80.2702 55.3374 79.9375 55.0047 79.9375 54.5943C79.9375 54.184 80.2702 53.8513 80.6805 53.8513H86.9734C87.3838 53.8513 87.7165 54.184 87.7165 54.5943C87.7165 55.0047 87.3838 55.3374 86.9734 55.3374H80.6805ZM83.0748 51.2736C83.0748 50.8531 83.4157 50.5122 83.8362 50.5122C84.2567 50.5122 84.5976 50.8531 84.5976 51.2736V57.9151C84.5976 58.3356 84.2567 58.6765 83.8362 58.6765C83.4157 58.6765 83.0748 58.3356 83.0748 57.9151V51.2736Z" fill="white"/>
</svg>
