<svg width="126" height="25" viewBox="0 0 126 25" fill="none" xmlns="http://www.w3.org/2000/svg">
<path d="M16.9137 22.5C22.3824 22.5 26.8156 18.0228 26.8156 12.5C26.8156 6.97715 22.3824 2.5 16.9137 2.5C11.445 2.5 7.01172 6.97715 7.01172 12.5C7.01172 18.0228 11.445 22.5 16.9137 22.5Z" fill="#2873FF"/>
<path d="M16.9163 20.7947C21.4146 20.7947 25.0612 17.092 25.0612 12.5245C25.0612 7.95707 21.4146 4.25439 16.9163 4.25439C12.4181 4.25439 8.77148 7.95707 8.77148 12.5245C8.77148 17.092 12.4181 20.7947 16.9163 20.7947Z" fill="#0C1017"/>
<path d="M16.8974 19.8576C20.8847 19.8576 24.117 16.5908 24.117 12.5611C24.117 8.53138 20.8847 5.26465 16.8974 5.26465C12.9101 5.26465 9.67773 8.53138 9.67773 12.5611C9.67773 16.5908 12.9101 19.8576 16.8974 19.8576Z" fill="#0C1017"/>
<path fill-rule="evenodd" clip-rule="evenodd" d="M16.8967 5.41855C12.9958 5.41855 9.83066 8.61497 9.83066 12.5614C9.83066 16.5078 12.9958 19.7042 16.8967 19.7042C20.7976 19.7042 23.9627 16.5078 23.9627 12.5614C23.9627 8.61497 20.7976 5.41855 16.8967 5.41855ZM9.52344 12.5614C9.52344 8.44837 12.823 5.11133 16.8967 5.11133C20.9704 5.11133 24.27 8.44837 24.27 12.5614C24.27 16.6744 20.9704 20.0115 16.8967 20.0115C12.823 20.0115 9.52344 16.6744 9.52344 12.5614Z" fill="#2873FF"/>
<path d="M13.4826 16.9408C12.6903 16.9408 12.0225 16.35 11.9259 15.5636L11.2991 10.4619C11.2215 9.83062 11.714 9.27393 12.35 9.27393C12.8858 9.27393 13.3371 9.67416 13.4012 10.2061L14.0338 15.458C14.0629 15.699 13.8747 15.9113 13.6319 15.9113C13.327 15.9113 13.1316 15.587 13.2739 15.3174L16.0886 9.98699C16.3203 9.54838 16.7755 9.27393 17.2716 9.27393C17.9535 9.27393 18.5262 9.78686 18.6012 10.4646L19.1563 15.4857C19.1814 15.7127 19.0036 15.9113 18.7752 15.9113C18.4868 15.9113 18.3017 15.605 18.4357 15.3496L21.3568 9.78289C21.521 9.46995 21.8453 9.27393 22.1987 9.27393C22.9135 9.27393 23.3726 10.0331 23.0407 10.6661L20.1882 16.107C19.9194 16.6196 19.3883 16.9408 18.8095 16.9408C18.0218 16.9408 17.3582 16.3523 17.264 15.5702L16.7817 11.5642C16.7648 11.4238 16.8745 11.3002 17.0159 11.3002C17.1935 11.3002 17.3073 11.4891 17.2244 11.6461L14.8695 16.1049C14.5979 16.6191 14.0641 16.9408 13.4826 16.9408Z" fill="#2873FF"/>
<path fill-rule="evenodd" clip-rule="evenodd" d="M3.37933 4.88493C3.37933 4.1214 3.99829 3.50244 4.76182 3.50244H9.19946C9.31625 3.50244 9.37307 3.64572 9.28919 3.72699C8.55074 4.44244 8.09859 4.9688 7.60845 5.67965C7.35919 6.04116 6.9539 6.26742 6.51479 6.26742H4.76181C3.99829 6.26742 3.37933 5.64845 3.37933 4.88493ZM3.37933 19.9346C3.37933 20.6981 3.99829 21.3171 4.76182 21.3171H9.19946C9.31625 21.3171 9.37307 21.1738 9.28919 21.0925C8.55074 20.3771 8.09859 19.8507 7.60845 19.1399C7.35919 18.7784 6.9539 18.5521 6.51479 18.5521H4.76181C3.99829 18.5521 3.37933 19.1711 3.37933 19.9346ZM1.5361 10.8717C0.687734 10.8717 0 11.5595 0 12.4078C0 13.2562 0.687736 13.9439 1.5361 13.9439H5.02036C5.29123 13.9439 5.50001 13.707 5.47238 13.4375C5.40026 12.7341 5.38505 12.1731 5.46719 11.3852C5.49553 11.1134 5.28627 10.8717 5.01293 10.8717H1.5361Z" fill="#2873FF"/>
<path d="M38.9964 20L36.2564 5.9H38.8364L40.8364 17.46H40.0364L46.0164 5.9H47.9364L49.9364 17.46H49.1964L55.0564 5.9H57.6764L50.4164 20H48.2764L46.2764 9.16H46.6964L41.1364 20H38.9964ZM57.2983 20L58.8983 9.9H61.3983L59.7983 20H57.2983ZM59.0583 8L59.4583 5.56H62.2383L61.8383 8H59.0583ZM66.2931 20.2C65.4665 20.2 64.6998 20.1067 63.9931 19.92C63.2998 19.72 62.7398 19.4533 62.3131 19.12L63.0531 17.44C63.5198 17.7333 64.0398 17.9733 64.6131 18.16C65.1998 18.3333 65.7998 18.42 66.4131 18.42C67.0665 18.42 67.5731 18.3133 67.9331 18.1C68.3065 17.8733 68.5198 17.5733 68.5731 17.2C68.6265 16.8667 68.5598 16.6 68.3731 16.4C68.1865 16.1867 67.8731 16.0467 67.4331 15.98L65.8131 15.72C64.8398 15.56 64.1531 15.2133 63.7531 14.68C63.3665 14.1467 63.2331 13.48 63.3531 12.68C63.4598 12.04 63.7131 11.5 64.1131 11.06C64.5265 10.62 65.0465 10.2867 65.6731 10.06C66.3131 9.82 67.0198 9.7 67.7931 9.7C68.5398 9.7 69.2265 9.79333 69.8531 9.98C70.4798 10.1533 70.9931 10.4 71.3931 10.72L70.5931 12.36C70.2331 12.0933 69.7998 11.88 69.2931 11.72C68.7998 11.5467 68.2998 11.46 67.7931 11.46C67.1265 11.46 66.6131 11.58 66.2531 11.82C65.8931 12.06 65.6798 12.3667 65.6131 12.74C65.5598 13.06 65.6131 13.3333 65.7731 13.56C65.9331 13.7733 66.2198 13.9133 66.6331 13.98L68.2931 14.26C69.2931 14.42 69.9931 14.7533 70.3931 15.26C70.8065 15.7533 70.9465 16.4 70.8131 17.2C70.7198 17.84 70.4665 18.3867 70.0531 18.84C69.6398 19.28 69.1131 19.62 68.4731 19.86C67.8331 20.0867 67.1065 20.2 66.2931 20.2ZM72.5327 20L74.8727 5.28H77.3727L76.3127 11.92H76.0127C76.4127 11.1867 76.946 10.6333 77.6127 10.26C78.2927 9.88667 79.0527 9.7 79.8927 9.7C81.1193 9.7 81.9793 10.06 82.4727 10.78C82.966 11.4867 83.0993 12.5533 82.8727 13.98L81.9327 20H79.4327L80.3727 13.98C80.506 13.1533 80.4393 12.56 80.1727 12.2C79.906 11.84 79.4527 11.66 78.8127 11.66C78.0393 11.66 77.3993 11.9 76.8927 12.38C76.386 12.8467 76.0727 13.4733 75.9527 14.26L75.0327 20H72.5327ZM87.2858 20L84.9458 9.9H87.4258L89.0258 17.76H88.5058L92.6458 9.9H94.4258L96.0258 17.76H95.5658L99.6458 9.9H102.166L96.6258 20H94.4258L92.6658 11.96H93.7458L89.5058 20H87.2858ZM106.067 20.2C105.147 20.2 104.367 19.9733 103.727 19.52C103.087 19.0667 102.633 18.4267 102.367 17.6C102.113 16.76 102.073 15.7733 102.247 14.64C102.513 13.0133 103.113 11.7867 104.047 10.96C104.993 10.12 106.12 9.7 107.427 9.7C108.267 9.7 108.98 9.90667 109.567 10.32C110.153 10.72 110.507 11.2667 110.627 11.96L110.427 12.02L110.987 9.9H113.387C113.28 10.3133 113.173 10.7333 113.067 11.16C112.973 11.5867 112.893 12.0067 112.827 12.42L111.627 20H109.147L109.487 17.86H109.807C109.473 18.58 108.987 19.1533 108.347 19.58C107.72 19.9933 106.96 20.2 106.067 20.2ZM106.887 18.28C107.66 18.28 108.32 18.0133 108.867 17.48C109.427 16.9333 109.793 16.12 109.967 15.04C110.153 13.8667 110.04 13.0067 109.627 12.46C109.227 11.9 108.62 11.62 107.807 11.62C107.033 11.62 106.373 11.8933 105.827 12.44C105.28 12.9733 104.92 13.7733 104.747 14.84C104.56 16.0133 104.667 16.88 105.067 17.44C105.467 18 106.073 18.28 106.887 18.28ZM113.351 24.54L112.951 22.56C113.605 22.4267 114.158 22.2733 114.611 22.1C115.065 21.9267 115.451 21.7 115.771 21.42C116.105 21.14 116.405 20.78 116.671 20.34L117.351 19.16L117.231 20.14L114.451 9.9H117.031L118.931 17.78H118.351L122.791 9.9H125.391L119.111 20.56C118.685 21.28 118.251 21.8733 117.811 22.34C117.385 22.82 116.938 23.2 116.471 23.48C116.018 23.7733 115.531 24 115.011 24.16C114.505 24.32 113.951 24.4467 113.351 24.54Z" fill="#2873FF"/>
</svg>
