<svg width="12" height="18" viewBox="0 0 12 18" fill="none" xmlns="http://www.w3.org/2000/svg">
<path d="M1.28165 9.94678L8.82832 17.4801C8.95227 17.6051 9.09974 17.7043 9.26222 17.772C9.4247 17.8397 9.59897 17.8745 9.77499 17.8745C9.951 17.8745 10.1253 17.8397 10.2878 17.772C10.4502 17.7043 10.5977 17.6051 10.7217 17.4801C10.97 17.2303 11.1094 16.8924 11.1094 16.5401C11.1094 16.1879 10.97 15.8499 10.7217 15.6001L4.12165 8.93345L10.7217 2.33345C10.97 2.08363 11.1094 1.7457 11.1094 1.39345C11.1094 1.0412 10.97 0.703266 10.7217 0.453449C10.5982 0.327465 10.4509 0.227238 10.2884 0.158575C10.1259 0.0899124 9.95139 0.0541821 9.77499 0.0534496C9.59858 0.0541821 9.42407 0.0899124 9.26156 0.158575C9.09906 0.227238 8.9518 0.327465 8.82832 0.453449L1.28165 7.98678C1.14631 8.11164 1.0383 8.26317 0.964425 8.43184C0.890549 8.6005 0.852408 8.78265 0.852408 8.96678C0.852408 9.15092 0.890549 9.33306 0.964425 9.50172C1.0383 9.67039 1.14631 9.82192 1.28165 9.94678Z" fill="#2873FF"/>
</svg>
