<svg width="15" height="20" viewBox="0 0 15 20" fill="none" xmlns="http://www.w3.org/2000/svg">
<path d="M9.84178 9.38189L9.84176 9.38191C9.18873 10.0348 8.33064 10.3611 7.47461 10.3611C6.61878 10.3611 5.76042 10.0349 5.10756 9.38189C5.10754 9.38187 5.10752 9.38186 5.1075 9.38184M9.84178 9.38189L5.46109 5.00117C4.35074 6.11152 4.35074 7.91809 5.46109 9.02832L5.1075 9.38184M9.84178 9.38189C11.1474 8.07638 11.1474 5.95322 9.8418 4.64762L9.84176 4.64758C9.21017 4.01613 8.36796 3.66703 7.47461 3.66703C6.58135 3.66703 5.73893 4.01595 5.10746 4.6477M9.84178 9.38189L5.10746 4.6477M5.1075 9.38184C3.80194 8.07635 3.80196 5.95329 5.10746 4.6477M5.1075 9.38184L5.10746 4.6477M7.47578 18.8049C7.30583 18.5937 7.08699 18.3176 6.83346 17.9885C6.21254 17.1825 5.3855 16.0611 4.55942 14.7981C3.73233 13.5336 2.91225 12.1363 2.30052 10.7775C1.68451 9.40915 1.30078 8.12508 1.30078 7.07422C1.30078 3.67044 4.07083 0.900391 7.47461 0.900391C10.8785 0.900391 13.6484 3.67043 13.6484 7.07422C13.6484 8.06557 13.2674 9.31951 12.6512 10.6805C12.0401 12.0301 11.2209 13.4356 10.3947 14.7153C9.56962 15.9934 8.74358 17.1367 8.12339 17.961C7.86718 18.3015 7.64641 18.5872 7.47578 18.8049Z" fill="#2873FF" stroke="#2873FF"/>
</svg>
