<svg width="121" height="92" viewBox="0 0 121 92" fill="none" xmlns="http://www.w3.org/2000/svg">
<rect width="121" height="92" fill="#1E1E1E"/>
<path d="M-1892 -616C-1892 -617.105 -1891.1 -618 -1890 -618H3739C3740.1 -618 3741 -617.105 3741 -616V1589C3741 1590.1 3740.1 1591 3739 1591H-1890C-1891.1 1591 -1892 1590.1 -1892 1589V-616Z" fill="#232323"/>
<rect x="-148" y="-87" width="428" height="926" rx="40" fill="#0C1017"/>
<circle cx="65.5252" cy="51.8231" r="39.3143" fill="#161A22"/>
<circle cx="7.20762" cy="28.8893" r="7.20762" fill="#2873FF"/>
<circle cx="113.208" cy="84.2076" r="7.20762" fill="#2873FF"/>
<circle cx="116.931" cy="3.93143" r="3.93143" fill="#2873FF"/>
<path d="M80.6805 55.3374C80.2702 55.3374 79.9375 55.0047 79.9375 54.5943C79.9375 54.184 80.2702 53.8513 80.6805 53.8513H86.9734C87.3838 53.8513 87.7165 54.184 87.7165 54.5943C87.7165 55.0047 87.3838 55.3374 86.9734 55.3374H80.6805ZM83.0748 51.2736C83.0748 50.8531 83.4157 50.5122 83.8362 50.5122C84.2567 50.5122 84.5976 50.8531 84.5976 51.2736V57.9151C84.5976 58.3356 84.2567 58.6765 83.8362 58.6765C83.4157 58.6765 83.0748 58.3356 83.0748 57.9151V51.2736Z" fill="white"/>
<g clip-path="url(#clip0_2_86)">
<path d="M88.024 46.5286C88.0136 44.4865 86.9837 42.9335 85.2121 41.9035C84.3373 41.405 83.3429 41.1547 82.3363 41.1798C80.7223 41.1872 80.9378 41.37 80.9289 39.7545C80.9185 37.9012 80.9155 36.0479 80.9289 34.1946C80.9408 33.4904 80.885 32.7867 80.7625 32.0932C79.7261 26.4932 76.5456 22.6702 71.2211 20.6242C70.1332 20.2081 69.0022 20.0996 67.8608 20H65.0816C64.2077 20.1278 63.322 20.1486 62.4644 20.4132C60.0948 21.1332 57.947 22.4434 56.2224 24.2208C53.5458 26.994 52.1948 30.3023 52.1354 34.1382C52.1012 36.2694 52.1354 38.4006 52.1265 40.5288C52.1265 41.1158 52.067 41.1664 51.4963 41.1812C51.2556 41.1887 51.0148 41.1812 50.774 41.1812C47.3796 41.1902 45.0106 43.5695 45.0106 46.9744C45.0106 54.4232 45.0106 61.8725 45.0106 69.3223C45.0106 70.1561 44.9868 70.9898 45.0106 71.8236C45.1101 74.5552 47.4346 77.0059 50.1766 77C61.0753 76.9792 71.9711 76.9752 82.8639 76.9881C83.4393 77.0136 84.0136 76.9173 84.5493 76.7057C86.7503 75.7382 88.0017 74.0454 88.0166 71.6527C88.073 63.2755 88.0755 54.9008 88.024 46.5286ZM69.2742 59.4124C69.1433 59.4907 69.037 59.6043 68.9677 59.7402C68.8983 59.8761 68.8685 60.0288 68.8818 60.1807C68.8982 61.8468 68.9071 63.5143 68.8818 65.1803C68.858 66.3797 67.9901 67.2773 66.7655 67.4363C65.682 67.576 64.6031 66.8419 64.2612 65.7525C64.1833 65.4473 64.1522 65.1321 64.1691 64.8177C64.1691 63.2809 64.1572 61.7442 64.1765 60.2105C64.1905 60.0497 64.1592 59.8882 64.0862 59.7443C64.0132 59.6004 63.9014 59.4797 63.7634 59.396C62.9376 58.8191 62.3224 57.9888 62.0108 57.0309C61.6992 56.073 61.7082 55.0397 62.0364 54.0873C62.7022 52.1256 64.5852 50.7865 66.6005 50.8385C67.5974 50.8593 68.5628 51.1909 69.3621 51.7869C70.1615 52.3829 70.7547 53.2137 71.0591 54.1631C71.3609 55.114 71.3505 56.1366 71.0293 57.0811C70.7082 58.0256 70.0931 58.8426 69.2742 59.4124ZM75.4969 41.3611C72.5126 41.3432 69.5298 41.3521 66.5455 41.3521C63.5612 41.3521 60.5785 41.3388 57.5957 41.364C57.1141 41.364 57.0294 41.2303 57.0354 40.7844C57.0606 38.6532 57.0354 36.522 57.0487 34.3938C57.0681 29.4344 60.3823 25.5911 65.2867 24.8242C70.1555 24.0647 75.109 27.7 75.8729 32.5851C75.9649 33.1895 76.0096 33.8002 76.0066 34.4116C76.0066 36.5607 75.9933 38.7112 76.0185 40.8602C76.0245 41.2897 75.8967 41.364 75.4969 41.3611Z" fill="#2873FF"/>
</g>
<path d="M-1890 -617H3739V-619H-1890V-617ZM3740 -616V1589H3742V-616H3740ZM3739 1590H-1890V1592H3739V1590ZM-1891 1589V-616H-1893V1589H-1891ZM-1890 1590C-1890.55 1590 -1891 1589.55 -1891 1589H-1893C-1893 1590.66 -1891.66 1592 -1890 1592V1590ZM3740 1589C3740 1589.55 3739.55 1590 3739 1590V1592C3740.66 1592 3742 1590.66 3742 1589H3740ZM3739 -617C3739.55 -617 3740 -616.552 3740 -616H3742C3742 -617.657 3740.66 -619 3739 -619V-617ZM-1890 -619C-1891.66 -619 -1893 -617.657 -1893 -616H-1891C-1891 -616.552 -1890.55 -617 -1890 -617V-619Z" fill="white" fill-opacity="0.1"/>
<defs>
<clipPath id="clip0_2_86">
<rect width="43.058" height="57" fill="white" transform="translate(45 20)"/>
</clipPath>
</defs>
</svg>
