<svg width="44" height="57" viewBox="0 0 44 57" fill="none" xmlns="http://www.w3.org/2000/svg">
<path d="M43.024 26.5286C43.0136 24.4865 41.9837 22.9335 40.2121 21.9035C39.3373 21.405 38.3429 21.1547 37.3363 21.1798C35.7223 21.1872 35.9378 21.37 35.9289 19.7545C35.9185 17.9012 35.9155 16.0479 35.9289 14.1946C35.9408 13.4904 35.885 12.7867 35.7625 12.0932C34.7261 6.49318 31.5456 2.6702 26.2211 0.624201C25.1332 0.208067 24.0022 0.099575 22.8608 0H20.0816C19.2077 0.127813 18.322 0.148619 17.4644 0.413162C15.0948 1.13319 12.947 2.44337 11.2224 4.22079C8.54578 6.99403 7.19483 10.3023 7.13538 14.1382C7.1012 16.2694 7.13538 18.4006 7.12647 20.5288C7.12647 21.1158 7.06702 21.1664 6.49632 21.1812C6.25556 21.1887 6.01479 21.1812 5.77403 21.1812C2.37956 21.1902 0.0105685 23.5695 0.0105685 26.9744C0.0105685 34.4232 0.0105685 41.8725 0.0105685 49.3223C0.0105685 50.1561 -0.0132106 50.9898 0.0105685 51.8236C0.110144 54.5552 2.43455 57.0059 5.17658 57C16.0753 56.9792 26.9711 56.9752 37.8639 56.9881C38.4393 57.0136 39.0136 56.9173 39.5493 56.7057C41.7503 55.7382 43.0017 54.0454 43.0166 51.6527C43.073 43.2755 43.0755 34.9008 43.024 26.5286ZM24.2742 39.4124C24.1433 39.4907 24.037 39.6043 23.9677 39.7402C23.8983 39.8761 23.8685 40.0288 23.8818 40.1807C23.8982 41.8468 23.9071 43.5143 23.8818 45.1803C23.858 46.3797 22.9901 47.2773 21.7655 47.4363C20.682 47.576 19.6031 46.8419 19.2612 45.7525C19.1833 45.4473 19.1522 45.1321 19.1691 44.8177C19.1691 43.2809 19.1572 41.7442 19.1765 40.2105C19.1905 40.0497 19.1592 39.8882 19.0862 39.7443C19.0132 39.6004 18.9014 39.4797 18.7634 39.396C17.9376 38.8191 17.3224 37.9888 17.0108 37.0309C16.6992 36.073 16.7082 35.0397 17.0364 34.0873C17.7022 32.1256 19.5852 30.7865 21.6005 30.8385C22.5974 30.8593 23.5628 31.1909 24.3621 31.7869C25.1615 32.3829 25.7547 33.2137 26.0591 34.1631C26.3609 35.114 26.3505 36.1366 26.0293 37.0811C25.7082 38.0256 25.0931 38.8426 24.2742 39.4124ZM30.4969 21.3611C27.5126 21.3432 24.5298 21.3521 21.5455 21.3521C18.5612 21.3521 15.5785 21.3388 12.5957 21.364C12.1141 21.364 12.0294 21.2303 12.0354 20.7844C12.0606 18.6532 12.0354 16.522 12.0487 14.3938C12.0681 9.43436 15.3823 5.59106 20.2867 4.82419C25.1555 4.06474 30.109 7.69997 30.8729 12.5851C30.9649 13.1895 31.0096 13.8002 31.0066 14.4116C31.0066 16.5607 30.9933 18.7112 31.0185 20.8602C31.0245 21.2897 30.8967 21.364 30.4969 21.3611Z" fill="#2873FF"/>
</svg>
