<svg width="20" height="21" viewBox="0 0 20 21" fill="none" xmlns="http://www.w3.org/2000/svg">
<path d="M10.59 11.5001L8.29 13.7901C8.19627 13.8831 8.12188 13.9937 8.07111 14.1155C8.02034 14.2374 7.9942 14.3681 7.9942 14.5001C7.9942 14.6321 8.02034 14.7628 8.07111 14.8847C8.12188 15.0065 8.19627 15.1171 8.29 15.2101C8.38296 15.3038 8.49356 15.3782 8.61542 15.429C8.73728 15.4798 8.86799 15.5059 9 15.5059C9.13201 15.5059 9.26272 15.4798 9.38458 15.429C9.50644 15.3782 9.61704 15.3038 9.71 15.2101L13.71 11.2101C13.801 11.115 13.8724 11.0029 13.92 10.8801C14.02 10.6366 14.02 10.3636 13.92 10.1201C13.8724 9.99735 13.801 9.8852 13.71 9.7901L9.71 5.7901C9.61676 5.69686 9.50607 5.6229 9.38425 5.57244C9.26243 5.52198 9.13186 5.49601 9 5.49601C8.86814 5.49601 8.73757 5.52198 8.61575 5.57244C8.49393 5.6229 8.38324 5.69686 8.29 5.7901C8.19676 5.88334 8.1228 5.99403 8.07234 6.11585C8.02188 6.23767 7.99591 6.36824 7.99591 6.5001C7.99591 6.63196 8.02188 6.76253 8.07234 6.88435C8.1228 7.00617 8.19676 7.11686 8.29 7.2101L10.59 9.5001H1C0.734784 9.5001 0.48043 9.60546 0.292893 9.79299C0.105357 9.98053 0 10.2349 0 10.5001C0 10.7653 0.105357 11.0197 0.292893 11.2072C0.48043 11.3947 0.734784 11.5001 1 11.5001H10.59ZM10 0.5001C8.13109 0.491756 6.29724 1.00731 4.70647 1.98829C3.11569 2.96927 1.83165 4.37641 1 6.0501C0.880653 6.28879 0.861015 6.56512 0.945406 6.8183C1.0298 7.07147 1.21131 7.28075 1.45 7.4001C1.68869 7.51945 1.96502 7.53909 2.2182 7.45469C2.47137 7.3703 2.68065 7.18879 2.8 6.9501C3.43219 5.67342 4.39383 4.58872 5.58555 3.80809C6.77727 3.02746 8.15582 2.57922 9.57876 2.50969C11.0017 2.44017 12.4174 2.75188 13.6795 3.41261C14.9417 4.07334 16.0045 5.05913 16.7581 6.2681C17.5118 7.47706 17.9289 8.86535 17.9664 10.2895C18.0039 11.7136 17.6605 13.1219 16.9715 14.3689C16.2826 15.6159 15.2731 16.6563 14.0475 17.3825C12.8219 18.1088 11.4246 18.4946 10 18.5001C8.50888 18.5066 7.04615 18.0925 5.77969 17.3053C4.51323 16.5182 3.49435 15.39 2.84 14.0501C2.72065 13.8114 2.51137 13.6299 2.2582 13.5455C2.00502 13.4611 1.72869 13.4808 1.49 13.6001C1.25131 13.7194 1.0698 13.9287 0.985406 14.1819C0.901015 14.4351 0.920653 14.7114 1.04 14.9501C1.83283 16.5456 3.03752 17.9003 4.52947 18.8741C6.02142 19.848 7.74645 20.4055 9.52612 20.4891C11.3058 20.5727 13.0755 20.1793 14.6521 19.3496C16.2288 18.5199 17.5552 17.2841 18.4941 15.7699C19.433 14.2558 19.9503 12.5182 19.9925 10.7371C20.0347 8.95597 19.6003 7.19589 18.7342 5.63893C17.8682 4.08197 16.6018 2.78467 15.0663 1.88121C13.5307 0.977745 11.7816 0.500936 10 0.5001Z" fill="#2873FF"/>
</svg>
