<svg width="23" height="22" viewBox="0 0 23 22" fill="none" xmlns="http://www.w3.org/2000/svg">
<path d="M21.1016 16H1.10156C0.836346 16 0.581992 16.1054 0.394456 16.2929C0.206919 16.4804 0.101563 16.7348 0.101562 17C0.101563 17.2652 0.206919 17.5196 0.394456 17.7071C0.581992 17.8946 0.836346 18 1.10156 18H21.1016C21.3668 18 21.6211 17.8946 21.8087 17.7071C21.9962 17.5196 22.1016 17.2652 22.1016 17C22.1016 16.7348 21.9962 16.4804 21.8087 16.2929C21.6211 16.1054 21.3668 16 21.1016 16ZM21.1016 20H1.10156C0.836346 20 0.581992 20.1054 0.394456 20.2929C0.206919 20.4804 0.101563 20.7348 0.101562 21C0.101563 21.2652 0.206919 21.5196 0.394456 21.7071C0.581992 21.8946 0.836346 22 1.10156 22H21.1016C21.3668 22 21.6211 21.8946 21.8087 21.7071C21.9962 21.5196 22.1016 21.2652 22.1016 21C22.1016 20.7348 21.9962 20.4804 21.8087 20.2929C21.6211 20.1054 21.3668 20 21.1016 20ZM5.10156 6C4.90378 6 4.71044 6.05865 4.54599 6.16853C4.38154 6.27841 4.25337 6.43459 4.17768 6.61732C4.102 6.80004 4.08219 7.00111 4.12078 7.19509C4.15936 7.38907 4.2546 7.56725 4.39446 7.70711C4.53431 7.84696 4.71249 7.9422 4.90647 7.98079C5.10045 8.01937 5.30152 7.99957 5.48425 7.92388C5.66697 7.84819 5.82315 7.72002 5.93303 7.55557C6.04291 7.39112 6.10156 7.19778 6.10156 7C6.10156 6.73478 5.99621 6.48043 5.80867 6.29289C5.62113 6.10536 5.36678 6 5.10156 6ZM19.1016 0H3.10156C2.30591 0 1.54285 0.31607 0.980242 0.87868C0.417633 1.44129 0.101563 2.20435 0.101562 3V11C0.101563 11.7956 0.417633 12.5587 0.980242 13.1213C1.54285 13.6839 2.30591 14 3.10156 14H19.1016C19.8972 14 20.6603 13.6839 21.2229 13.1213C21.7855 12.5587 22.1016 11.7956 22.1016 11V3C22.1016 2.20435 21.7855 1.44129 21.2229 0.87868C20.6603 0.31607 19.8972 0 19.1016 0ZM20.1016 11C20.1016 11.2652 19.9962 11.5196 19.8087 11.7071C19.6211 11.8946 19.3668 12 19.1016 12H3.10156C2.83635 12 2.58199 11.8946 2.39446 11.7071C2.20692 11.5196 2.10156 11.2652 2.10156 11V3C2.10156 2.73478 2.20692 2.48043 2.39446 2.29289C2.58199 2.10536 2.83635 2 3.10156 2H19.1016C19.3668 2 19.6211 2.10536 19.8087 2.29289C19.9962 2.48043 20.1016 2.73478 20.1016 3V11ZM11.1016 4C10.5082 4 9.9282 4.17595 9.43485 4.50559C8.9415 4.83524 8.55699 5.30377 8.32992 5.85195C8.10286 6.40013 8.04345 7.00333 8.15921 7.58527C8.27496 8.16721 8.56068 8.70176 8.98024 9.12132C9.3998 9.54088 9.93435 9.8266 10.5163 9.94236C11.0982 10.0581 11.7014 9.9987 12.2496 9.77164C12.7978 9.54458 13.2663 9.16006 13.596 8.66671C13.9256 8.17336 14.1016 7.59334 14.1016 7C14.1016 6.20435 13.7855 5.44129 13.2229 4.87868C12.6603 4.31607 11.8972 4 11.1016 4ZM11.1016 8C10.9038 8 10.7104 7.94135 10.546 7.83147C10.3815 7.72159 10.2534 7.56541 10.1777 7.38268C10.102 7.19996 10.0822 6.99889 10.1208 6.80491C10.1594 6.61093 10.2546 6.43275 10.3945 6.29289C10.5343 6.15304 10.7125 6.0578 10.9065 6.01921C11.1005 5.98063 11.3015 6.00043 11.4842 6.07612C11.667 6.15181 11.8232 6.27998 11.933 6.44443C12.0429 6.60888 12.1016 6.80222 12.1016 7C12.1016 7.26522 11.9962 7.51957 11.8087 7.70711C11.6211 7.89464 11.3668 8 11.1016 8ZM17.1016 6C16.9038 6 16.7104 6.05865 16.546 6.16853C16.3815 6.27841 16.2534 6.43459 16.1777 6.61732C16.102 6.80004 16.0822 7.00111 16.1208 7.19509C16.1594 7.38907 16.2546 7.56725 16.3945 7.70711C16.5343 7.84696 16.7125 7.9422 16.9065 7.98079C17.1005 8.01937 17.3015 7.99957 17.4842 7.92388C17.667 7.84819 17.8232 7.72002 17.933 7.55557C18.0429 7.39112 18.1016 7.19778 18.1016 7C18.1016 6.73478 17.9962 6.48043 17.8087 6.29289C17.6211 6.10536 17.3668 6 17.1016 6Z" fill="#929292"/>
</svg>
