<svg width="121" height="92" viewBox="0 0 121 92" fill="none" xmlns="http://www.w3.org/2000/svg">
<circle cx="65.3143" cy="52.3143" r="39.3143" fill="#161A22"/>
<path fill-rule="evenodd" clip-rule="evenodd" d="M37 72.5119V79.4075C37 80.1008 37.7763 80.8771 38.4696 80.8771H86.3995C86.9765 80.8771 87.5241 80.3661 87.7284 79.9451C88.0156 79.3525 87.8691 74.0804 87.8691 73.1902C87.0488 73.3813 86.7277 73.584 85.5435 73.8038C83.3617 74.2086 81.6097 74.1814 79.4587 73.6878C73.6734 72.3601 69.3164 68.0273 67.9497 62.249C67.3309 59.6328 67.4017 56.9711 68.2129 54.4385C68.6125 53.1908 69.1119 51.9221 69.7823 50.9211C68.3667 51.2508 68.1356 51.9001 64.5208 52.4423C61.9043 52.8346 59.4962 52.478 57.051 51.6699C56.2817 51.4156 55.4776 51.0984 54.8246 50.7312C53.5644 50.0226 53.4243 49.6655 52.7609 49.9405C50.3547 50.9379 46.8776 53.0699 44.9961 54.9605C44.4494 55.51 43.8996 55.9771 43.4435 56.573C42.0524 58.39 42.412 57.6738 40.7293 60.189C38.7798 63.1029 37.0003 68.5594 37.0003 72.5119H37Z" fill="#2873FF"/>
<path fill-rule="evenodd" clip-rule="evenodd" d="M49.3203 35.5475C49.3203 37.9336 49.5377 39.6355 50.5246 41.691C50.8751 42.4215 51.2659 43.0803 51.6945 43.6862C52.4741 44.788 52.951 45.2807 53.9199 46.0955C54.2493 46.3727 54.4279 46.5403 54.7936 46.8044C55.4259 47.2607 56.0841 47.643 56.7792 47.984C60.9435 50.0272 66.2126 49.5366 70.0066 46.8514C70.5704 46.4524 71.2298 45.9133 71.7317 45.4114C73.8982 43.2448 75.5458 39.8559 75.5458 36.678C75.5458 33.4179 74.96 31.0661 73.1717 28.5393C71.8672 26.696 70.1146 25.2365 68.087 24.2416C66.5404 23.4826 64.7674 23.069 62.973 23H61.8938C60.1305 23.0681 58.3862 23.4692 56.8549 24.2043C54.0714 25.5405 51.9161 27.6995 50.5619 30.4592C49.9641 31.6775 49.3203 33.7372 49.3203 35.5478V35.5475Z" fill="#2873FF"/>
<path fill-rule="evenodd" clip-rule="evenodd" d="M71 58.1912C71 61.3554 71.4292 63.1776 73.169 65.7438C74.982 68.4177 78.791 70.7387 82.1912 70.7387C84.4557 70.7387 85.9186 70.6389 87.9567 69.6089C89.4101 68.8744 90.1309 68.3945 91.2628 67.2628C93.115 65.4107 94.739 62.437 94.739 59.5478C94.739 57.2833 94.6389 55.8204 93.6089 53.7821C92.8744 52.3286 92.3948 51.6079 91.2628 50.4759C89.4107 48.6238 86.437 47 83.5478 47C80.3836 47 78.5611 47.4292 75.9953 49.169C73.3213 50.982 71.0003 54.791 71.0003 58.1912H71Z" fill="#2873FF"/>
<path d="M79.743 59.8252C79.3327 59.8252 79 59.4925 79 59.0821C79 58.6718 79.3327 58.3391 79.743 58.3391H86.0359C86.4463 58.3391 86.779 58.6718 86.779 59.0821C86.779 59.4925 86.4463 59.8252 86.0359 59.8252H79.743ZM82.1373 55.7614C82.1373 55.3409 82.4782 55 82.8987 55C83.3192 55 83.6601 55.3409 83.6601 55.7614V62.4029C83.6601 62.8234 83.3192 63.1643 82.8987 63.1643C82.4782 63.1643 82.1373 62.8234 82.1373 62.4029V55.7614Z" fill="white"/>
<circle cx="7.20762" cy="28.8893" r="7.20762" fill="#2873FF"/>
<circle cx="113.208" cy="84.2076" r="7.20762" fill="#2873FF"/>
<circle cx="116.931" cy="3.93143" r="3.93143" fill="#2873FF"/>
</svg>
