<svg width="12" height="18" viewBox="0 0 12 18" fill="none" xmlns="http://www.w3.org/2000/svg">
<path d="M10.7183 8.05322L3.17168 0.519886C3.04773 0.394915 2.90026 0.295723 2.73778 0.228031C2.5753 0.16034 2.40103 0.125488 2.22501 0.125488C2.049 0.125488 1.87472 0.16034 1.71225 0.228031C1.54977 0.295723 1.4023 0.394915 1.27835 0.519886C1.03001 0.769703 0.890625 1.10764 0.890625 1.45989C0.890625 1.81213 1.03001 2.15007 1.27835 2.39989L7.87835 9.06655L1.27835 15.6666C1.03001 15.9164 0.890625 16.2543 0.890625 16.6066C0.890625 16.9588 1.03001 17.2967 1.27835 17.5466C1.40183 17.6725 1.54909 17.7728 1.71159 17.8414C1.8741 17.9101 2.04861 17.9458 2.22501 17.9466C2.40142 17.9458 2.57593 17.9101 2.73844 17.8414C2.90094 17.7728 3.0482 17.6725 3.17168 17.5466L10.7183 10.0132C10.8537 9.88836 10.9617 9.73683 11.0356 9.56816C11.1095 9.3995 11.1476 9.21735 11.1476 9.03322C11.1476 8.84908 11.1095 8.66694 11.0356 8.49828C10.9617 8.32961 10.8537 8.17808 10.7183 8.05322Z" fill="white"/>
</svg>
