<svg width="35" height="35" viewBox="0 0 35 35" fill="none" xmlns="http://www.w3.org/2000/svg">
<path d="M25.169 0.856445L8.5191 6.38979C-2.67303 10.134 -2.67303 16.2391 8.5191 19.9649L13.4606 21.6065L15.1016 26.5496C18.8262 37.7454 24.9478 37.7454 28.6723 26.5496L34.2223 9.91268C36.693 2.44267 32.6366 -1.63356 25.169 0.856445ZM25.759 10.7796L18.7524 17.8254C18.4759 18.102 18.1255 18.2311 17.7752 18.2311C17.4249 18.2311 17.0745 18.102 16.798 17.8254C16.2632 17.2905 16.2632 16.4051 16.798 15.8702L23.8046 8.82446C24.3393 8.28957 25.2243 8.28957 25.759 8.82446C26.2938 9.35934 26.2938 10.2447 25.759 10.7796Z" fill="white"/>
</svg>
