<svg width="20" height="21" viewBox="0 0 20 21" fill="none" xmlns="http://www.w3.org/2000/svg">
<path fill-rule="evenodd" clip-rule="evenodd" d="M18.7381 6.28381L18.1082 5.21619C17.5753 4.31282 16.3944 4.00118 15.4682 4.51952V4.51952C15.0274 4.77319 14.5013 4.84516 14.0061 4.71956C13.5109 4.59396 13.0871 4.28111 12.8283 3.85C12.6618 3.57598 12.5723 3.26387 12.5689 2.94524V2.94524C12.584 2.43439 12.3866 1.93935 12.0219 1.5729C11.6572 1.20645 11.1562 0.99979 10.633 1H9.36394C8.85134 0.999994 8.35987 1.19951 7.99828 1.55439C7.63668 1.90928 7.43478 2.39027 7.43725 2.89095V2.89095C7.42205 3.92468 6.55973 4.75487 5.50129 4.75476C5.17507 4.75145 4.85553 4.66406 4.57499 4.50143V4.50143C3.64885 3.98309 2.46792 4.29473 1.93504 5.1981L1.25885 6.28381C0.726609 7.18605 1.04132 8.33879 1.96283 8.86238V8.86238C2.56183 9.20017 2.93082 9.82442 2.93082 10.5C2.93082 11.1756 2.56183 11.7998 1.96283 12.1376V12.1376C1.0425 12.6577 0.727436 13.8076 1.25885 14.7071V14.7071L1.89799 15.7838C2.14767 16.2239 2.56658 16.5486 3.06204 16.6861C3.55749 16.8237 4.08864 16.7627 4.53794 16.5167V16.5167C4.97962 16.2649 5.50596 16.196 5.99996 16.3251C6.49396 16.4542 6.91469 16.7707 7.16862 17.2043C7.33512 17.4783 7.42459 17.7904 7.42798 18.109V18.109C7.42798 19.1534 8.29474 20 9.36394 20H10.633C11.6986 20 12.5638 19.1589 12.5689 18.1181V18.1181C12.5665 17.6158 12.7696 17.1335 13.1332 16.7783C13.4968 16.4232 13.9907 16.2247 14.5049 16.2271C14.8303 16.2357 15.1485 16.3227 15.4312 16.4805V16.4805C16.3549 17.0003 17.5351 16.6929 18.0711 15.7929V15.7929L18.7381 14.7071C18.9962 14.2743 19.0671 13.7589 18.9349 13.2749C18.8028 12.7909 18.4786 12.3784 18.0341 12.1286V12.1286C17.5896 11.8788 17.2654 11.4662 17.1332 10.9822C17.0011 10.4983 17.0719 9.9828 17.3301 9.55C17.498 9.26372 17.741 9.02635 18.0341 8.86238V8.86238C18.9501 8.33908 19.264 7.19307 18.7381 6.29286V6.29286V6.28381Z" stroke="#929292" stroke-width="1.5" stroke-linecap="round" stroke-linejoin="round"/>
<ellipse cx="10.0037" cy="10.5002" rx="2.66773" ry="2.60571" stroke="#929292" stroke-width="1.5" stroke-linecap="round" stroke-linejoin="round"/>
</svg>
