<svg width="64" height="52" viewBox="0 0 64 52" fill="none" xmlns="http://www.w3.org/2000/svg">
<path d="M53.3236 17.5251C50.3656 5.74164 38.4156 -1.41283 26.6321 1.5451C17.4236 3.85672 10.7372 11.8155 10.0483 21.2846C3.50988 22.3628 -0.916508 28.5373 0.161749 35.0757C1.12027 40.8884 6.15697 45.1453 12.0481 45.122H22.047V41.1224H12.0481C7.63031 41.1224 4.04895 37.541 4.04895 33.1233C4.04895 28.7055 7.63031 25.1241 12.0481 25.1241C13.1526 25.1241 14.0479 24.2289 14.0479 23.1244C14.0379 13.1843 22.0878 5.11821 32.0279 5.10833C40.6324 5.09971 48.0395 11.1828 49.7039 19.6247C49.8683 20.4677 50.5524 21.1116 51.4038 21.2246C56.8709 22.0031 60.6716 27.0662 59.8932 32.5332C59.1942 37.4424 55.0026 41.0977 50.0439 41.1224H42.0448V45.122H50.0439C57.7751 45.0986 64.0234 38.8123 63.9999 31.0811C63.9804 24.6456 59.5754 19.0523 53.3236 17.5251Z" fill="#AAA6A6"/>
<path d="M30.6241 25.7036L22.625 33.7028L25.4447 36.5224L30.0442 31.943V51.1208H34.0437V31.943L38.6232 36.5224L41.4429 33.7028L33.4438 25.7036C32.6638 24.9282 31.4042 24.9282 30.6241 25.7036Z" fill="#AAA6A6"/>
</svg>
