<svg width="48" height="48" viewBox="0 0 48 48" fill="none" xmlns="http://www.w3.org/2000/svg">
<rect width="48" height="48" rx="24" fill="#161A22"/>
<g clip-path="url(#clip0_1681_5206)">
<path d="M16.3153 27.7764C16.8825 27.7767 17.4404 27.9205 17.937 28.1945C18.4336 28.4686 18.8528 28.8639 19.1554 29.3436H29.2784C29.6621 28.7365 30.2295 28.2676 30.8981 28.0052V14.7402H8.96484V29.3436H13.4752C13.7775 28.8637 14.1966 28.4681 14.6933 28.1941C15.19 27.92 15.748 27.7763 16.3153 27.7764Z" fill="#2873FF"/>
<path d="M8.96484 30.6108C8.96469 30.6819 8.97984 30.7521 9.00928 30.8168C9.03872 30.8815 9.08175 30.9391 9.13544 30.9857C9.24978 31.085 9.39646 31.139 9.54786 31.1376H12.9597C12.9588 30.6962 13.0454 30.2591 13.2146 29.8516H8.96484V30.6108Z" fill="#2873FF"/>
<path d="M19.669 31.1317H28.7647C28.7644 30.6903 28.8517 30.2531 29.0216 29.8457H19.4141C19.5833 30.2533 19.67 30.6904 19.669 31.1317Z" fill="#2873FF"/>
<path d="M38.2888 20.3228C37.3609 19.3855 36.1499 18.5963 34.9895 18.4238C33.8291 18.2513 31.5664 18.2363 31.5664 18.2363V27.8232C31.7521 27.7912 31.9403 27.7755 32.1288 27.7763C33.0186 27.7768 33.8718 28.1305 34.501 28.7597C35.1302 29.3889 35.4839 30.2421 35.4844 31.1319H38.2963C38.6648 31.13 39.0174 30.9821 39.2771 30.7207C39.5367 30.4593 39.6822 30.1057 39.6817 29.7372V23.684C39.6824 23.0596 39.5597 22.4412 39.3207 21.8644C39.0817 21.2876 38.731 20.7637 38.2888 20.3228ZM38.705 24.835C38.7051 24.9083 38.6888 24.9807 38.6575 25.047C38.6262 25.1132 38.5805 25.1717 38.5238 25.2181C38.4672 25.2646 38.4009 25.2979 38.3298 25.3156C38.2586 25.3333 38.1845 25.335 38.1126 25.3206L33.1486 24.3289C33.0365 24.3074 32.9355 24.247 32.8637 24.1583C32.7903 24.0698 32.7505 23.9583 32.7512 23.8434V19.5973C33.5909 19.5987 34.43 19.6437 35.2651 19.7323C36.1161 19.8598 37.0066 20.4465 37.6871 21.127C38.012 21.4508 38.2697 21.8356 38.4454 22.2593C38.621 22.683 38.7112 23.1372 38.7106 23.5959L38.705 24.835Z" fill="#2873FF"/>
<path d="M18.6951 29.5313C18.6501 29.4676 18.6051 29.4039 18.5563 29.3439C18.2877 29.0075 17.9467 28.7359 17.5587 28.5492C17.1708 28.3625 16.7458 28.2656 16.3152 28.2656C15.8847 28.2656 15.4597 28.3625 15.0717 28.5492C14.6837 28.7359 14.3428 29.0075 14.0741 29.3439C14.0254 29.4039 13.9804 29.4676 13.9354 29.5313C13.8657 29.6318 13.803 29.7371 13.7479 29.8463C13.5457 30.2447 13.4409 30.6855 13.4423 31.1323C13.4326 31.515 13.4995 31.8958 13.6392 32.2522C13.7789 32.6086 13.9885 32.9335 14.2557 33.2076C14.5229 33.4818 14.8423 33.6996 15.1951 33.8484C15.5478 33.9972 15.9268 34.0738 16.3096 34.0738C16.6924 34.0738 17.0714 33.9972 17.4241 33.8484C17.7769 33.6996 18.0963 33.4818 18.3635 33.2076C18.6307 32.9335 18.8403 32.6086 18.98 32.2522C19.1197 31.8958 19.1866 31.515 19.1769 31.1323C19.1783 30.6855 19.0735 30.2447 18.8713 29.8463C18.8198 29.7374 18.7609 29.6322 18.6951 29.5313ZM16.3162 32.617C15.9888 32.6178 15.6704 32.5102 15.4105 32.3111C15.1507 32.112 14.964 31.8324 14.8797 31.5161C14.7954 31.1998 14.8181 30.8644 14.9443 30.5624C15.0706 30.2603 15.2932 30.0085 15.5776 29.8463C15.8019 29.7161 16.0567 29.6475 16.3162 29.6475C16.5756 29.6475 16.8304 29.7161 17.0548 29.8463C17.3391 30.0085 17.5617 30.2603 17.688 30.5624C17.8142 30.8644 17.8369 31.1998 17.7526 31.5161C17.6683 31.8324 17.4816 32.112 17.2218 32.3111C16.962 32.5102 16.6435 32.6178 16.3162 32.617Z" fill="#2873FF"/>
<path d="M32.1245 28.2656C31.9357 28.2652 31.7473 28.2834 31.5621 28.32C31.3331 28.3648 31.1108 28.4385 30.9003 28.5393C30.2625 28.8402 29.7581 29.3657 29.4836 30.0154C29.2092 30.665 29.184 31.3931 29.413 32.0601C29.642 32.7271 30.1089 33.2862 30.7245 33.6303C31.3401 33.9745 32.061 34.0794 32.7491 33.9251C33.4372 33.7708 34.0442 33.368 34.4539 32.794C34.8635 32.2199 35.047 31.5149 34.9692 30.814C34.8914 30.1131 34.5577 29.4655 34.0321 28.9953C33.5065 28.5251 32.826 28.2653 32.1207 28.2656H32.1245ZM32.1245 32.6167C31.8308 32.6167 31.5438 32.5296 31.2996 32.3664C31.0555 32.2033 30.8652 31.9714 30.7528 31.7001C30.6404 31.4288 30.611 31.1303 30.6683 30.8423C30.7256 30.5543 30.867 30.2897 31.0746 30.0821C31.2823 29.8745 31.5468 29.7331 31.8348 29.6758C32.1228 29.6185 32.4214 29.6479 32.6927 29.7603C32.9639 29.8726 33.1958 30.0629 33.359 30.3071C33.5221 30.5512 33.6092 30.8383 33.6092 31.132C33.6092 31.5257 33.4528 31.9034 33.1743 32.1818C32.8959 32.4602 32.5182 32.6167 32.1245 32.6167Z" fill="#2873FF"/>
</g>
<defs>
<clipPath id="clip0_1681_5206">
<rect width="30.7159" height="19.26" fill="white" transform="translate(8.96484 14.7402)"/>
</clipPath>
</defs>
</svg>
