<svg width="46" height="56" viewBox="0 0 46 56" fill="none" xmlns="http://www.w3.org/2000/svg">
<path d="M45.817 12.9753C45.817 11.4875 45.1361 10.5834 43.7042 10.2119C40.4791 9.37704 37.3423 8.23211 34.3377 6.7931C30.9061 5.14111 27.7409 3.07135 24.7431 0.733699C24.3649 0.414031 23.9196 0.183508 23.4403 0.0591925C22.364 -0.179994 21.5683 0.343028 20.7853 0.958535C15.1628 5.36436 8.92007 8.50249 1.98206 10.2326C0.754236 10.5404 0.00797289 11.5274 0 12.8063C0 14.9733 0 17.1403 0 19.7411C0.0653777 22.5045 -0.17062 25.7096 0.339645 28.8924C1.54036 36.3725 4.96392 42.6297 10.8033 47.4501C14.1248 50.1911 17.66 52.6739 21.0979 55.2731C22.3815 56.2426 23.4275 56.2442 24.7319 55.2731C27.7536 53.012 30.8057 50.7891 33.7859 48.4738C41.6196 42.3857 45.6262 34.3719 45.8059 24.4323C45.8728 20.6117 45.8186 16.7927 45.817 12.9753ZM32.3476 24.6906C28.9459 28.1147 25.5308 31.5282 22.1025 34.931C21.8785 35.1605 21.6113 35.3432 21.3162 35.4685C21.0211 35.5938 20.7041 35.6592 20.3835 35.661C20.0629 35.6628 19.7452 35.6009 19.4487 35.4788C19.1523 35.3568 18.883 35.1771 18.6566 34.9502C16.885 33.2408 15.1581 31.482 13.4248 29.7311C12.9767 29.2767 12.7726 28.7026 12.7566 27.9563C12.7577 27.4805 12.8983 27.0153 13.1611 26.6186C13.4238 26.2218 13.7971 25.9107 14.2348 25.7239C15.2569 25.2456 16.2312 25.405 17.0444 26.18C18.0554 27.1367 19.0313 28.1254 19.9976 29.1268C20.2814 29.4202 20.4313 29.4345 20.7295 29.1268C23.359 26.4718 26.006 23.8375 28.6466 21.1953C29.3849 20.457 30.2635 20.1876 31.2617 20.4953C31.696 20.6162 32.0879 20.8559 32.3933 21.1875C32.6987 21.5191 32.9055 21.9294 32.9902 22.3721C33.0993 22.7808 33.0973 23.2112 32.9843 23.6188C32.8714 24.0264 32.6515 24.3965 32.3476 24.6906Z" fill="#2873FF"/>
</svg>
