<svg width="121" height="92" viewBox="0 0 121 92" fill="none" xmlns="http://www.w3.org/2000/svg">
<rect width="121" height="92" fill="#1E1E1E"/>
<path d="M-2368 -616C-2368 -617.105 -2367.1 -618 -2366 -618H3263C3264.1 -618 3265 -617.105 3265 -616V1589C3265 1590.1 3264.1 1591 3263 1591H-2366C-2367.1 1591 -2368 1590.1 -2368 1589V-616Z" fill="#232323"/>
<rect x="-148" y="-87" width="428" height="926" rx="40" fill="#0C1017"/>
<circle cx="65.3143" cy="52.3143" r="39.3143" fill="#161A22"/>
<circle cx="7.20762" cy="28.8893" r="7.20762" fill="#2873FF"/>
<circle cx="113.208" cy="84.2076" r="7.20762" fill="#2873FF"/>
<circle cx="116.931" cy="3.93143" r="3.93143" fill="#2873FF"/>
<g clip-path="url(#clip0_2_86)">
<path d="M88.817 36.9753C88.817 35.4875 88.1361 34.5834 86.7042 34.2119C83.4791 33.377 80.3423 32.2321 77.3377 30.7931C73.9061 29.1411 70.7409 27.0714 67.7431 24.7337C67.3649 24.414 66.9196 24.1835 66.4403 24.0592C65.364 23.82 64.5683 24.343 63.7853 24.9585C58.1628 29.3644 51.9201 32.5025 44.9821 34.2326C43.7542 34.5404 43.008 35.5274 43 36.8063C43 38.9733 43 41.1403 43 43.7411C43.0654 46.5045 42.8294 49.7096 43.3396 52.8924C44.5404 60.3725 47.9639 66.6297 53.8033 71.4501C57.1248 74.1911 60.66 76.6739 64.0979 79.2731C65.3815 80.2426 66.4275 80.2442 67.7319 79.2731C70.7536 77.012 73.8057 74.7891 76.7859 72.4738C84.6196 66.3857 88.6262 58.3719 88.8059 48.4323C88.8728 44.6117 88.8186 40.7927 88.817 36.9753ZM75.3476 48.6906C71.9459 52.1147 68.5308 55.5282 65.1025 58.931C64.8785 59.1605 64.6113 59.3432 64.3162 59.4685C64.0211 59.5938 63.7041 59.6592 63.3835 59.661C63.0629 59.6628 62.7452 59.6009 62.4487 59.4788C62.1523 59.3568 61.883 59.1771 61.6566 58.9502C59.885 57.2408 58.1581 55.482 56.4248 53.7311C55.9767 53.2767 55.7726 52.7026 55.7566 51.9563C55.7577 51.4805 55.8983 51.0153 56.1611 50.6186C56.4238 50.2218 56.7971 49.9107 57.2348 49.7239C58.2569 49.2456 59.2312 49.405 60.0444 50.18C61.0554 51.1367 62.0313 52.1254 62.9976 53.1268C63.2814 53.4202 63.4313 53.4345 63.7295 53.1268C66.359 50.4718 69.006 47.8375 71.6466 45.1953C72.3849 44.457 73.2635 44.1876 74.2617 44.4953C74.696 44.6162 75.0879 44.8559 75.3933 45.1875C75.6987 45.5191 75.9055 45.9294 75.9902 46.3721C76.0993 46.7808 76.0973 47.2112 75.9843 47.6188C75.8714 48.0264 75.6515 48.3965 75.3476 48.6906Z" fill="#2873FF"/>
</g>
<path d="M-2366 -617H3263V-619H-2366V-617ZM3264 -616V1589H3266V-616H3264ZM3263 1590H-2366V1592H3263V1590ZM-2367 1589V-616H-2369V1589H-2367ZM-2366 1590C-2366.55 1590 -2367 1589.55 -2367 1589H-2369C-2369 1590.66 -2367.66 1592 -2366 1592V1590ZM3264 1589C3264 1589.55 3263.55 1590 3263 1590V1592C3264.66 1592 3266 1590.66 3266 1589H3264ZM3263 -617C3263.55 -617 3264 -616.552 3264 -616H3266C3266 -617.657 3264.66 -619 3263 -619V-617ZM-2366 -619C-2367.66 -619 -2369 -617.657 -2369 -616H-2367C-2367 -616.552 -2366.55 -617 -2366 -617V-619Z" fill="white" fill-opacity="0.1"/>
<defs>
<clipPath id="clip0_2_86">
<rect width="45.8393" height="56" fill="white" transform="translate(43 24)"/>
</clipPath>
</defs>
</svg>
